<?xml version="1.0" standalone="no"?>
<!DOCTYPE svg PUBLIC "-//W3C//DTD SVG 1.1//EN" "http://www.w3.org/Graphics/SVG/1.1/DTD/svg11.dtd" >
<svg>
<metadata>
Created by FontForge 20090914 at Sun Mar 23 10:37:05 2014
 By www-data
(C) Tepid Monkey Fonts--www.fontframe.com/tepidmonkey
</metadata>
<defs>
<font id="Jrhand" horiz-adv-x="911" >
  <font-face 
    font-family="jrhand"
    font-weight="400"
    font-stretch="normal"
    units-per-em="2048"
    panose-1="0 0 4 0 0 0 0 0 0 0"
    ascent="1638"
    descent="-410"
    x-height="776.004"
    cap-height="1343"
    bbox="-291.003 -881 2195 1858"
    underline-thickness="40"
    underline-position="-252"
    unicode-range="U+000D-U+25FC"
  />
<missing-glyph horiz-adv-x="748" 
d="M68 0v1365h544v-1365h-544zM136 68h408v1229h-408v-1229z" />
    <glyph glyph-name=".notdef" horiz-adv-x="748" 
d="M68 0v1365h544v-1365h-544zM136 68h408v1229h-408v-1229z" />
    <glyph glyph-name="glyph1" horiz-adv-x="2048" 
 />
    <glyph glyph-name="glyph1" horiz-adv-x="2048" 
 />
    <glyph glyph-name="uni000D" unicode="&#xd;" horiz-adv-x="536" 
 />
    <glyph glyph-name="space" unicode=" " horiz-adv-x="536" 
 />
    <glyph glyph-name="exclam" unicode="!" horiz-adv-x="733" 
d="M-39 90c0 6.66699 2.33203 17.168 6.99902 31.501s7 25.166 7 32.499c5.33301 0 13.5 2.33301 24.5 7s20.167 7 27.5 7c16.667 0 41.334 -19 74.001 -57s49 -66 49 -84c0 -54.667 -24.667 -82 -74 -82c-35.333 0 -63.333 15 -84 45s-31 63.333 -31 100zM101.999 403.001
c0 64 88.834 233.001 266.501 507.001s288.834 411 333.501 411c13.333 0 30.666 -15 51.999 -45s32 -52.667 32 -68c0 -20.667 -61.333 -109.334 -184 -266.001l-227 -291l-94 -159c-38 -62.667 -79 -108 -123 -136h-39c-10.667 9.33301 -16.334 25 -17.001 47z" />
    <glyph glyph-name="quotedbl" unicode="&#x22;" horiz-adv-x="372" 
d="M-10 1057c0 62.667 15.667 149.333 47 260c80.667 -31.333 121 -71 121 -119c0 -36.667 -14.333 -150 -43 -340h-41c-56 40.667 -84 107 -84 199zM233 1147c0 28.667 5.66699 66.999 17 114.999c13.333 60 29.666 90 48.999 90c32.667 0 66 -28.667 100 -86v-76
c0 -180 -6 -286 -18 -318l2 -8c-5.33301 -1.33301 -12.333 -3.33301 -21 -6c-35.333 0 -66.666 39.667 -93.999 119c-23.333 66.667 -35 123.334 -35 170.001z" />
    <glyph glyph-name="numbersign" unicode="#" horiz-adv-x="1583" 
d="M68 354c0 22 29.332 42.0039 87.999 60.0039c45.333 13.333 84 20 116 20l11 -4c0 -4 -1.5 -6 -4.5 -6s-5.16699 -1.33301 -6.5 -4c0 -2.66699 0.666992 -4 2 -4l11 -4c34 0 82.333 20.5 145 61.5s94.667 77.167 96 108.5l-18 6c-23.333 0 -87 -31.333 -191 -94
c-44 45.333 -65.667 86 -65 122c0 48 34 87.667 102 119c39.333 18 105.666 36.667 198.999 56c76.667 15.333 119.667 27.666 129 36.999s38.666 59.666 87.999 150.999c45.333 86 71.333 129 78 129c39.333 0 65.333 -21.333 78 -64c4 -27.333 10.667 -67.333 20 -120
c9.33301 -44 34 -66 74 -66c28.667 0 53.334 4.66699 74.001 14c9.33301 4 59 73.667 149 209c83.333 125.333 144 188.333 182 189c15.333 0 31.833 -13.333 49.5 -40s26.5 -48.334 26.5 -65.001c0 -27.333 -62.667 -124.333 -188 -291v-30l188 -47
c2.66699 -16.667 6 -42.667 10 -78l-235 -12c-74 -10.667 -132 -59.334 -174 -146.001c44 -8 180.333 -31 409 -69c0.666992 -19.333 5.66699 -36.666 15 -51.999c-26 -26 -108 -43 -246 -51c-157.333 -8 -249.333 -17.667 -276 -29c-13.333 -5.33301 -47 -74 -101 -206
c-50.667 -126.667 -92.334 -190.334 -125.001 -191.001c-19.333 0 -37 16.333 -53 49c-15.333 28.667 -23 54 -23 76c0 12 31.667 100.667 95 266c-124 0 -217.667 -36.667 -281 -110l-172 -256c-61.333 28.667 -92 66.667 -92 114c0 38 20.333 87.333 61 148
c-9.33301 2.66699 -18.666 4 -27.999 4c-13.333 0 -34.166 -3 -62.499 -9s-49.166 -9 -62.499 -9c-20.667 0 -41.167 14.333 -61.5 43s-30.5 53.667 -30.5 75zM724.999 532.004c68 0 121.999 -4.66699 161.999 -14c16.667 46.667 41.334 87 74.001 121v43
c-76.667 0 -126 -10.333 -148 -31z" />
    <glyph glyph-name="dollar" unicode="$" horiz-adv-x="946" 
d="M-51 494c0 15.333 8.66602 37.002 25.999 65.002c61.333 -13.333 125 -76 191 -188c24.667 18 64.667 67.5 120 148.5s83 133.167 83 156.5c0 -42 -19.5 -17.333 -58.5 74s-58.5 150.666 -58.5 177.999c0 109.333 75.667 164 227 164c19.333 0 47 -1.16699 83 -3.5
s63.667 -3.5 83 -3.5c8 0 55.833 60.5 143.5 181.5s138.834 181.5 153.501 181.5c18 0 34.5 -11.5 49.5 -34.5s22.5 -44.167 22.5 -63.5c0 -9.33301 -28.667 -59.333 -86 -150c-64 -101.333 -98.333 -156.666 -103 -165.999c95.333 -48 143.333 -115.667 144 -203
c0 -22 -4.33301 -42.333 -13 -61c-105.333 92.667 -168 139 -188 139c-8 0 -47.167 -40.5 -117.5 -121.5s-105.5 -127.833 -105.5 -140.5c0 4 19.5 -22.333 58.5 -79s58.5 -106.667 58.5 -150l-13 -19c-4 -30 -35.333 -69.833 -94 -119.5s-103 -73.834 -133 -72.501l-78 2
c-40.667 1.33301 -72 -11.667 -94 -39l-60 -102l-94 -164c-10.667 2.66699 -25.667 12 -45 28l-43 33c9.33301 31.333 44.333 131.666 105 300.999c-109.333 102.667 -164 178.667 -164 228zM353.999 326.002c27.333 9.33301 68 24.001 122 44.001s81 47.667 81 83
c0 15.333 -21.667 46.666 -65 93.999l-74 -107c-28.667 -40.667 -50 -78.667 -64 -114zM380.999 881.003c10.667 -18 22.833 -37.168 36.5 -57.501s27.5 -34.833 41.5 -43.5c20 36.667 52.667 91.334 98 164.001c-74 0 -132.667 -21 -176 -63z" />
    <glyph glyph-name="percent" unicode="%" horiz-adv-x="1361" 
d="M117 616c0 108 56.001 221.167 168.001 339.5s221.667 177.5 329 177.5c124 0 190.333 -97.667 199 -293c135.333 143.333 265 248.333 389 315c0 -31.333 -12.333 -64 -37 -98c-5.33301 -6.66699 -29 -34 -71 -82l6 -17c-34 -57.333 -117.333 -163 -250 -317
c-58.667 -68 -136.834 -177.167 -234.501 -327.5s-175.167 -258.833 -232.5 -325.5c-20.667 4 -37.5 16.167 -50.5 36.5s-19.5 41.5 -19.5 63.5c0 34 47.333 128.333 142 283c82 134 144 229.333 186 286v5l-16 2c-124 -68 -226 -103 -306 -105l-79 -96h-39
c-56 35.333 -84 86.333 -84 153zM303.001 735h85.998c32.667 0 89 19.5 169 58.5s131 70.833 153 95.5v53c-18 18 -35.333 27 -52 27c-12 0 -27.167 -10 -45.5 -30s-32.5 -30 -42.5 -30c-5.33301 0 -13.166 2.16699 -23.499 6.5s-18.166 6.5 -23.499 6.5
c-53.333 0 -127 -62.333 -221 -187zM640.999 135c0 52 40 147.667 120 287s142.333 218.333 187 237c22 9.33301 43.333 14.333 64 15c64 0 118 -39.667 162 -119c35.333 -66 53 -134.333 53 -205c0 -95.333 -47.333 -182 -142 -260c-88.667 -75.333 -182 -113 -280 -113
c-109.333 0 -164 52.667 -164 158zM794.999 131h86c44 0 93.167 28.667 147.5 86s81.5 108 81.5 152c0 23.333 -5.33301 51.333 -16 84c-12 39.333 -27 59 -45 59c-13.333 0 -55 -57.333 -125 -172z" />
    <glyph glyph-name="ampersand" unicode="&#x26;" horiz-adv-x="1265" 
d="M61 281c0 165.333 122.332 317.998 366.999 457.998l262 148l-14 215c0 84.667 19.5 144.667 58.5 180s101.5 52.333 187.5 51l168 -96c60 -46.667 90 -100 90 -160c0 -75.333 -48.667 -139.333 -146 -192l-235 -119l30 -281
c13.333 -101.333 48.333 -188.666 105 -261.999c20.667 16.667 36.334 38 47.001 64c12 36.667 21.667 59.667 29 69l-19 19c-6.66699 -15.333 -16 -23 -28 -23c-15.333 0 -30.833 12.333 -46.5 37s-23.5 45.334 -23.5 62.001c0 52 21 77.667 63 77
c45.333 0 85 -22.833 119 -68.5s51 -91.5 51 -137.5c0 -116 -84 -219.333 -252 -310c-144.667 -78 -281 -116.667 -409 -116c-102.667 0 -195.667 38.833 -279 116.5s-125 167.167 -125 268.5zM202.999 226.998c0 -58.667 19.833 -105.332 59.5 -139.999s89.5 -52 149.5 -52
c64 0 135.667 13.667 215 41c18 5.33301 87 32 207 80c-44 105.333 -92 291 -144 557c-94 -36.667 -194.333 -102.334 -301 -197.001c-124 -110.667 -186 -207 -186 -289zM787.999 948l40.999 0.000976562c60 31.333 106.667 56.666 140 75.999
c58.667 34.667 91.334 71 98.001 109c-82 40.667 -136.667 61 -164 61c-23.333 0 -48.333 -11 -75 -33s-40 -44.333 -40 -67v-146z" />
    <glyph glyph-name="quotesingle" unicode="'" horiz-adv-x="161" 
d="M10 1122c0 27.333 5.66504 65.001 16.998 113.001c13.333 60 29 90 47 90c32.667 0 65.334 -28.667 98.001 -86v-74c0 -177.333 -5.33301 -282.333 -16 -315l2 -6c-5.33301 -2.66699 -12.333 -5.33398 -21 -8.00098c-35.333 0 -66.666 39.333 -93.999 118
c-22 64 -33 120 -33 168z" />
    <glyph glyph-name="parenleft" unicode="(" horiz-adv-x="808" 
d="M117 514c0 88.667 24.166 197.168 72.499 325.501s102.5 225.166 162.5 290.499c46.667 50.667 83 76 109 76h145c6.66699 -26 10 -46.333 10 -61c0 -32.667 -22.333 -64.667 -67 -96l-105 -74c-38 -36.667 -78.667 -118 -122 -244c-42 -120 -63.333 -210 -64 -270
c0 -79.333 27.333 -148.333 82 -207c24.667 -26 80.667 -68.333 168 -127c70.667 -48 116.334 -92.333 137.001 -133c-138 0 -260.5 52.167 -367.5 156.5s-160.5 225.5 -160.5 363.5z" />
    <glyph glyph-name="parenright" unicode=")" horiz-adv-x="802" 
d="M115 16c138 90 230.666 155.666 277.999 196.999c110.667 95.333 166 187.333 166 276c0 87.333 -32.667 179.666 -98 276.999c-15.333 22 -75.333 96.333 -180 223c-64 78 -96.333 137.333 -97 178c0 31.333 15.667 47 47 47c40.667 0 103.667 -39.333 189 -118
c76.667 -72.667 129.334 -132 158.001 -178c30 -50.667 55.833 -126.167 77.5 -226.5s32.5 -181.166 32.5 -242.499c0 -53.333 -39 -129.333 -117 -228c-124 -155.333 -268 -248.666 -432 -279.999z" />
    <glyph glyph-name="asterisk" unicode="*" horiz-adv-x="817" 
d="M-43 868c0 39.333 40.333 77.6689 121 115.002l174 64l-59 110c-15.333 35.333 -23 77 -23 125c8 9.33301 21.667 14 41 14c35.333 0 68 -28 98 -84l66 -127l45 134c23.333 68 45.666 102 66.999 102c31.333 0 57 -11.333 77 -34s30 -50.334 30 -83.001
c0 -34 -12.333 -63.333 -37 -88c40.667 -4 102 -11.333 184 -22c90.667 -12.667 136 -39.334 136 -80.001c0 -35.333 -46.667 -60 -140 -74l-182 -18l-20 -19l151 -174v-55c-39.333 0 -78.333 15 -117 45l-100 84c-15.333 -13.333 -38 -66 -68 -158
c-24.667 -75.333 -60.667 -113 -108 -113c-31.333 0 -54.666 16.667 -69.999 50l-28 88c23.333 2.66699 38.333 4 45 4c15.333 0 28.333 27.333 39 82c13.333 62.667 20.666 96 21.999 100l-20 6c-28.667 0 -68.667 -11.833 -120 -35.5s-91.333 -35.5 -120 -35.5
c-15.333 0 -33.166 9.16699 -53.499 27.5s-30.5 34.833 -30.5 49.5z" />
    <glyph glyph-name="plus" unicode="+" horiz-adv-x="925" 
d="M43 494c0 20.667 5.33594 38.333 16.0029 53c52 2.66699 129.333 8 232 16c0 34 -3.83301 84.167 -11.5 150.5s-11.5 116.5 -11.5 150.5c0 58.667 7.66699 110.667 23 156c75.333 -30 112.666 -105.667 111.999 -227c0 -16.667 -0.666992 -40.334 -2 -71.001
s-2 -54.334 -2 -71.001c0 -24.667 1.33301 -45.667 4 -63h136c15.333 0 37.166 4 65.499 12s50.166 12 65.499 12c38 0 74 -6 108 -18c48 -18 72 -41.333 72 -70s-62 -58 -186 -88c-78 -19.333 -156.667 -37.666 -236 -54.999c2.66699 -10.667 17.667 -62.667 45 -156
c18 -61.333 27 -113.666 27 -156.999c0 -50.667 -13.667 -76 -41 -76c-35.333 0 -68.333 55.333 -99 166l-57 217c-46.667 -2.66699 -113.667 2 -201 14c-39.333 15.333 -59 50.333 -59 105z" />
    <glyph glyph-name="comma" unicode="," horiz-adv-x="722" 
d="M162 -117c1.33301 0 45.667 25.334 133 76.001c50.667 28.667 91.667 58.667 123 90l6 47c26 34 41 87.333 45 160c1.33301 57.333 2 114.666 2 171.999c84.667 -9.33301 127 -83 127 -221c0 -106.667 -28 -201 -84 -283c-62.667 -94 -144.667 -141 -246 -141
c-30 0 -51.5 10.833 -64.5 32.5z" />
    <glyph glyph-name="hyphen" unicode="-" 
d="M111 461c0 10.667 0.666992 19.999 2 27.999c36.667 26 117 52 241 78c112 23.333 198.667 35 260 35c123.333 0 190.333 -42.333 201 -127c-35.333 -10.667 -85 -21 -149 -31c-108 -15.333 -215.333 -39.666 -322 -72.999c-82 -26 -134.667 -39 -158 -39
c-26 0 -45.667 15.667 -59 47c-10.667 24.667 -16 52 -16 82z" />
    <glyph glyph-name="period" unicode="." horiz-adv-x="464" 
d="M152 117c0 24.667 6.66699 52 20 82c16.667 36.667 35 55 55 55c27.333 0 55 -18.5 83 -55.5s42 -69.833 42 -98.5c0 -26 -9.83301 -47.167 -29.5 -63.5s-43.167 -24.5 -70.5 -24.5c-30 0 -54.167 10 -72.5 30s-27.5 45 -27.5 75z" />
    <glyph glyph-name="slash" unicode="/" horiz-adv-x="851" 
d="M-37 104c0 20.667 9.66602 42.668 28.999 66.001l51 53c53.333 56 127.666 166 222.999 330c78 134 166.667 237.667 266 311c44 32.667 101.833 91.334 173.5 176.001s130.834 143.667 177.501 177c20 -12.667 30 -34 30 -64c0 -45.333 -12 -82.333 -36 -111
c-5.33301 -8 -34 -34.333 -86 -79c-28.667 -24.667 -61.5 -70.834 -98.5 -138.501s-70.5 -113.834 -100.5 -138.501c-86 -69.333 -156.333 -145 -211 -227c-23.333 -34 -63 -105 -119 -213c-48 -91.333 -97.667 -168 -149 -230c-20.667 -24.667 -42.667 -36.667 -66 -36
c-19.333 0 -38.166 15.667 -56.499 47s-27.5 57 -27.5 77z" />
    <glyph glyph-name="zero" unicode="0" horiz-adv-x="1218" 
d="M31 303c0 49.333 20.999 132 62.999 248c26 69.333 92.333 170.333 199 303c118.667 146 204 219 256 219c6.66699 0 14.167 -3.33301 22.5 -10s16.5 -10.667 24.5 -12c121.333 125.333 229.333 188 324 188c82 0 144 -34 186 -102c36.667 -58.667 55 -131 55 -217
c0 -139.333 -32 -283.666 -96 -432.999c-69.333 -161.333 -156.666 -277.333 -261.999 -348c-22 -9.33301 -60.333 -29 -115 -59c-8 -4 -13.333 -13 -16 -27l-142 -69c-48 -19.333 -99.667 -29 -155 -29c-105.333 0 -189 31.667 -251 95s-93 147.666 -93 252.999z
M161.999 244c0 -113.333 60.667 -170 182 -170c8 0 19.5 1.66699 34.5 5s26.833 5 35.5 5c46.667 0 108 18.333 184 55c65.333 31.333 121.333 65.666 168 102.999c91.333 72.667 165 175 221 307c53.333 124.667 80 248.334 80 371.001c0 110.667 -31.333 165.667 -94 165
c-94 0 -193 -46.333 -297 -139l-250 -237l-35 47c-54.667 -56 -105.667 -136 -153 -240c-50.667 -108 -76 -198.667 -76 -272z" />
    <glyph glyph-name="one" unicode="1" horiz-adv-x="538" 
d="M-23 106c0 56 72 246 216 570c135.333 304.667 229.333 500 282 586c68.667 -32 103 -77.333 103 -136c0 -23.333 -79.333 -211.666 -238 -564.999c-154 -342.667 -249 -547.334 -285 -614.001c-52 49.333 -78 102.333 -78 159z" />
    <glyph glyph-name="two" unicode="2" horiz-adv-x="1116" 
d="M18 295c0 70.667 31.667 121.002 95 151.002c39.333 19.333 101.333 33.666 186 42.999c80.667 8 127 17.667 139 29c30 24.667 45 117 45 277c0 56 -10.667 103 -32 141c-27.333 48 -67 72 -119 72c-48 0 -81 -11.667 -99 -35c-4 -4 -13.333 -24.667 -28 -62
c-9.33301 -22 -25.666 -32.667 -48.999 -32c-20.667 0 -40.667 24.333 -60 73c-16.667 42 -24.667 76.333 -24 103c0 31.333 34 62 102 92c57.333 24.667 105.666 37 144.999 37c80.667 0 151.667 -43.667 213 -131c54.667 -79.333 82 -161.333 82 -246
c0 -136.667 -9.33301 -234.334 -28 -293.001c108.667 -8 271.667 -24.333 489 -49c-15.333 -18 -40 -42.667 -74 -74c-30 -22 -103 -35 -219 -39c-125.333 -4 -205 -13.333 -239 -28l-117 -181c-76.667 -113.333 -153 -170 -229 -170c-54.667 0 -100 41.667 -136 125
c-28.667 68 -43 133.667 -43 197zM158 217.002c0 -40.667 23.667 -61 71 -61c18 0 37.167 17.333 57.5 52s30.5 61.667 30.5 81c0 28.667 -23.667 43 -71 43c-18 0 -37.167 -14.333 -57.5 -43s-30.5 -52.667 -30.5 -72z" />
    <glyph glyph-name="three" unicode="3" horiz-adv-x="761" 
d="M33 115c0 66.667 40.998 100.002 122.998 100.002c9.33301 0 23.5 -7.83301 42.5 -23.5s34.167 -23.5 45.5 -23.5c39.333 0 96.5 35.167 171.5 105.5s112.5 125.166 112.5 164.499c0 36.667 -25 69 -75 97c-42 23.333 -83.667 34.666 -125 33.999
c-18 0 -46.833 -2.33301 -86.5 -7s-69.5 -6.33398 -89.5 -5.00098l-48 2c-8 36.667 -12 87.334 -12 152.001c128.667 45.333 213.334 77.333 254.001 96c88.667 39.333 166 88.333 232 147c-5.33301 18 -19.666 37.333 -42.999 58c-22 0 -54.833 1.33301 -98.5 4
s-76.5 4 -98.5 4h-49c-16.667 -15.333 -36 -23 -58 -23c-28.667 0 -53.167 11 -73.5 33s-30.5 47.333 -30.5 76c0 72.667 31.333 108.667 94 108c355.333 0 533 -71.667 533 -215c0 -139.333 -67 -254 -201 -344c54.667 -88.667 82 -163 82 -223
c0 -104 -48.167 -205.833 -144.5 -305.5s-196.5 -149.5 -300.5 -149.5c-40.667 0 -77 13 -109 39s-48 59 -48 99z" />
    <glyph glyph-name="four" unicode="4" horiz-adv-x="788" 
d="M-35 649c0 113.333 53.3301 232.334 159.997 357.001h41c16.667 -24.667 41.334 -70.667 74.001 -138c-27.333 -16.667 -56.666 -42.334 -87.999 -77.001c-35.333 -40.667 -53.333 -73.667 -54 -99c0 -24.667 21.333 -45.667 64 -63c34 -15.333 66 -23.666 96 -24.999
l260 361c117.333 161.333 213 265.666 287 312.999c26 -42 39 -71.333 39 -88c0 -19.333 -56.667 -111 -170 -275l-209 -303c23.333 -5.33301 48 -8 74 -8c27.333 0 53.666 3.33301 78.999 10c-31.333 -42 -79.666 -103.333 -144.999 -184c-15.333 4 -29.666 6 -42.999 6
c-57.333 0 -109.333 -34.667 -156 -104l-110 -209c-44 -83.333 -89 -136 -135 -158c-9.33301 26 -14.333 43.667 -15 53c0 84.667 43.667 211.667 131 381v31c-120 36.667 -180 109.667 -180 219z" />
    <glyph glyph-name="five" unicode="5" horiz-adv-x="942" 
d="M-55 199c0 52 10.6689 85.998 32.002 101.998c15.333 10.667 51 20.334 107 29.001c16.667 -58.667 31 -95 43 -109c20.667 -22 57.667 -33 111 -33c32.667 0 62.667 5.66699 90 17c38 13.333 57 33 57 59c0 30 -39 116.667 -117 260c-9.33301 19.333 -28 86.333 -56 201
s-42 183.667 -42 207c0 32.667 4.66699 62.667 14 90c6.66699 19.333 47 54.5 121 105.5s122 76.5 144 76.5c9.33301 0 23.5 -7.83301 42.5 -23.5s34.167 -23.5 45.5 -23.5c35.333 0 88.5 7.83301 159.5 23.5s124.167 23.5 159.5 23.5c102.667 0 154 -39.667 154 -119
c0 -23.333 -9 -41.666 -27 -54.999c-80.667 -10.667 -201.334 -28.334 -362.001 -53.001c-190 -32.667 -285 -77 -285 -133c0 -49.333 33.5 -151.166 100.5 -305.499s100.5 -267.5 100.5 -339.5c0 -58.667 -35 -110 -105 -154c-61.333 -39.333 -123.333 -59 -186 -59
s-126.334 19.667 -191.001 59c-74 44 -110.667 95.333 -110 154z" />
    <glyph glyph-name="six" unicode="6" horiz-adv-x="866" 
d="M-14 268c0 83.333 62.665 215.999 187.998 397.999c98 140.667 193.667 259.334 287 356.001c128.667 134 227 201 295 201c36.667 -0.666992 68 -34.334 94 -101.001c-1.33301 -31.333 -14.333 -55.666 -39 -72.999c-26 -10.667 -65 -28.667 -117 -54
c-52 -32.667 -142 -124 -270 -274c-132.667 -155.333 -199 -256.333 -199 -303v-12c61.333 36.667 105 61 131 73c48 22 96.667 33 146 33c58.667 0 108.334 -29.333 149.001 -88c38 -53.333 57.333 -110.666 58 -171.999c0 -72.667 -61 -140.334 -183 -203.001
c-105.333 -54.667 -198.666 -82 -279.999 -82c-78 0 -141.667 31.333 -191 94c-46.667 58.667 -69.667 127.667 -69 207zM222.998 157.999l86.001 0.000976562c27.333 0 74.166 17.667 140.499 53s104.833 64 115.5 86c-26 9.33301 -43.667 14 -53 14
c-49.333 0 -102 -15.333 -158 -46s-99.667 -66.334 -131 -107.001z" />
    <glyph glyph-name="seven" unicode="7" horiz-adv-x="714" 
d="M27 1094l2.00098 23.999c166.667 68 360.334 102.333 581.001 103c57.333 0 97.666 -13 120.999 -39s35 -68.333 35 -127c0 -131.333 -144.667 -449 -434 -953c-48 -83.333 -89.667 -125 -125 -125c-48 0 -72 41.667 -72 125c0 44 48.667 127.333 146 250
c125.333 158.667 190.666 242.667 195.999 252c27.333 48 52 120.333 74 217c24.667 110.667 45 184.334 61 221.001h-90c-49.333 0 -120 -17 -212 -51s-162.667 -51 -212 -51c-26 0 -45.667 20.333 -59 61c-10.667 32.667 -14.667 63.667 -12 93z" />
    <glyph glyph-name="eight" unicode="8" horiz-adv-x="923" 
d="M-53 170c0 58.667 50.333 138.664 151 239.997c96.667 96.667 176.667 153.334 240 170.001c-5.33301 24.667 -21.666 75 -48.999 151c-23.333 64 -35 115.333 -35 154c0 154 45.667 231 137 231c64 0 129 -48.333 195 -145l-11 -94l-8 6l-43 -11
c-26 36.667 -56.667 55.334 -92 56.001c-20.667 0 -33.667 -3.5 -39 -10.5s-8 -21.5 -8 -43.5c0 -28.667 4 -60 12 -94c5.33301 -23.333 13 -54 23 -92v-2l18 -8c58.667 0 145.334 55.333 260.001 166s172 195.334 172 254.001c0 28.667 -24.5 52.834 -73.5 72.501
s-73.5 36.5 -73.5 50.5c0 2.66699 4.66699 27.667 14 75c30 9.33301 49.333 14.333 58 15c35.333 0 73.166 -25.667 113.499 -77s60.5 -94.666 60.5 -129.999c0 -8 3.33301 -19 10 -33s10 -25 10 -33s-11.667 -35.333 -35 -82
c-72.667 -143.333 -219.334 -293.333 -440.001 -450c1.33301 -24.667 9.83301 -62.334 25.5 -113.001s23.5 -89.667 23.5 -117c0 -91.333 -40.333 -166.333 -121 -225c-72.667 -54.667 -155.667 -82 -249 -82c-69.333 0 -126 15.667 -170 47
c-50.667 35.333 -76 86.666 -76 153.999zM113 163.997c0 -23.333 15.666 -35 46.999 -35c53.333 0 113.333 16.333 180 49c78 38 117 80.333 117 127c0 12 -7.66699 34.667 -23 68c-13.333 28.667 -23.666 51.667 -30.999 69c-12 -23.333 -65.667 -71 -161 -143
c-86 -65.333 -129 -110.333 -129 -135z" />
    <glyph glyph-name="nine" unicode="9" horiz-adv-x="806" 
d="M-4 870c0 116 67.667 214.332 203 294.999c117.333 69.333 238.666 104.333 363.999 105c64 0 126.5 -33.5 187.5 -100.5s91.5 -132.5 91.5 -196.5c0 -20.667 -7 -42.667 -21 -66c-22 -36.667 -33.667 -57 -35 -61c-10.667 -35.333 -31 -98.333 -61 -189
c-27.333 -75.333 -86 -196.666 -176 -363.999c-104 -194 -175 -291 -213 -291c-52 0 -78 30.667 -78 92c0 66.667 43.667 161.667 131 285c98 139.333 154 238.333 168 297c-27.333 -4 -75.666 -13.667 -144.999 -29c-62.667 -13.333 -112 -20 -148 -20
c-178.667 0 -268 81 -268 243zM117 851.999c0 -23.333 47.001 -35.001 141.001 -35.001c83.333 0 164.666 12.333 243.999 37c97.333 28.667 167 69.667 209 123c-10.667 28.667 -40 54 -88 76c-40.667 18 -79 26.667 -115 26c-34 0 -60.667 -1.33301 -80 -4
c-38 -5.33301 -98 -35.333 -180 -90c-87.333 -57.333 -131 -101.666 -131 -132.999z" />
    <glyph glyph-name="colon" unicode=":" horiz-adv-x="460" 
d="M162 137v86c0 9.33301 10.333 14.333 31 15c30 0 64 -17.833 102 -53.5s57 -67.834 57 -96.501c0 -49.333 -15.667 -74 -47 -74c-24.667 0 -54.667 14.333 -90 43s-53 55.334 -53 80.001zM186 717l-0.00195312 86c28.667 9.33301 42.334 14 41.001 14
c32.667 0 61.334 -15.667 86.001 -47s37 -64 37 -98c0 -38 -19 -57.333 -57 -58c-19.333 0 -42 12.333 -68 37s-39 46.667 -39 66z" />
    <glyph glyph-name="semicolon" unicode=";" horiz-adv-x="448" 
d="M109 -174c0 9.33301 9.33203 31 27.999 65c23.333 42 36.333 66 39 72c18 46.667 33.667 109.667 47 189l4 112c2.66699 46.667 16.334 81 41.001 103c20.667 -16.667 40.5 -42 59.5 -76s28.5 -63.333 28.5 -88c0 -66.667 -15.667 -150 -47 -250
c-39.333 -124 -82.333 -186 -129 -186h-41c-20.667 0 -30.667 19.667 -30 59zM249.999 762c0 15.333 8.16895 31.833 24.502 49.5s32.166 26.5 47.499 26.5c10.667 0 29 -15.833 55 -47.5s39 -53.5 39 -65.5c0 -56 -21.333 -84 -64 -84c-28.667 0 -52.834 12.667 -72.501 38
s-29.5 53 -29.5 83z" />
    <glyph glyph-name="less" unicode="&#x3c;" horiz-adv-x="909" 
d="M80 403v97.001c118.667 13.333 281.667 112.333 489 297c72.667 64 111 96 115 96c13.333 0 30.333 -12.333 51 -37s31 -43.667 31 -57c0 -44 -65.667 -114.333 -197 -211c-150 -110.667 -234.667 -180.334 -254 -209.001c116 -22 182.333 -35 199 -39
c78 -20.667 138.667 -47.334 182 -80.001c-26 -44 -52 -65.667 -78 -65c-82 0 -162.333 6.66699 -241 20c-105.333 18 -179 44 -221 78c-50.667 40.667 -76 77.334 -76 110.001z" />
    <glyph glyph-name="equal" unicode="=" horiz-adv-x="1007" 
d="M84 578c0 35.333 9.66699 67.335 29 96.002c26 1.33301 112 4.66602 258 9.99902c106.667 4 192.667 6 258 6c28.667 0 118.667 -13 270 -39l49 -35v-75c-303.333 -40.667 -562 -61.334 -776 -62.001c-58.667 0 -88 33 -88 99zM156 119.002l-0.00195312 125
c34 13.333 104.833 28.5 212.5 45.5s182.834 25.5 225.501 25.5c120 0 206 -8.66699 258 -26c18.667 -13.333 50.667 -28.333 96 -45l-28 -54c-263.333 -64 -493.666 -96 -690.999 -96c-18 0 -42.333 8.33301 -73 25z" />
    <glyph glyph-name="greater" unicode="&#x3e;" horiz-adv-x="786" 
d="M109 737l14 88.002c84.667 -46.667 187 -111.334 307 -194.001c161.333 -112 242 -184.333 242 -217c0 -22 -8.33301 -44 -25 -66c-78 -18 -198.667 -86.333 -362 -205c-62.667 19.333 -94.334 44.666 -95.001 75.999c0 52 90.333 131.333 271 238
c-18 18 -81 60.333 -189 127c-79.333 49.333 -133.666 100.333 -162.999 153z" />
    <glyph glyph-name="question" unicode="?" horiz-adv-x="688" 
d="M-16 1081l-0.000976562 13.001c56 46.667 128.333 91 217 133c98 46.667 177.667 69.667 239 69c70.667 0 129.334 -29.333 176.001 -88c44 -52.667 66 -115.334 66 -188.001c0 -79.333 -30 -147 -90 -203c-39.333 -36.667 -107 -77.667 -203 -123
c-104 -49.333 -172.333 -85.333 -205 -108l74 -72c13.333 -16.667 20.333 -52.667 21 -108c0 -9.33301 -9.66699 -14.333 -29 -15c-136.667 0 -205 77.333 -205 232c0 9.33301 0.666992 32.333 2 69c36.667 27.333 104.5 60.5 203.5 99.5s168.5 72.167 208.5 99.5
c69.333 48 104 100.667 104 158c0 39.333 -37.333 59 -112 59c-113.333 0 -247.333 -67 -402 -201c-44 1.33301 -65.667 59.333 -65 174zM243.999 139.001c0 13.333 2.33398 32.834 7.00098 58.501s7 45.167 7 58.5c5.33301 0 14.5 2.33301 27.5 7s22.833 7 29.5 7
c23.333 0 50.666 -19.333 81.999 -58s47 -70.334 47 -95.001c0 -28.667 -11.167 -53.667 -33.5 -75s-47.833 -32 -76.5 -32c-60 0 -90 43 -90 129z" />
    <glyph glyph-name="at" unicode="@" horiz-adv-x="1572" 
d="M23 526c0 225.333 107.669 409.001 323.002 551.001c190 124 403.667 186.333 641 187c187.333 0 319.666 -45.333 396.999 -136c57.333 -66.667 95 -119.667 113 -159c23.333 -52 35 -115.667 35 -191v-35c1.33301 -14.667 2 -26 2 -34c0 -91.333 -80 -178 -240 -260
c-140.667 -72.667 -262.667 -109 -366 -109c-36.667 0 -87.334 46.333 -152.001 139c-20.667 -16.667 -52 -39.667 -94 -69c-34 -23.333 -71 -35 -111 -35c-48 0 -86 19.667 -114 59c-24.667 34 -37 76.333 -37 127c0 74 50.5 157 151.5 249s189.167 138 264.5 138
c49.333 0 88.666 -27.333 117.999 -82c26 -45.333 39 -94.333 39 -147c0 -53.333 -4 -87 -12 -101l-59 -75v-29c46.667 -1.33301 83.334 2 110.001 10c10.667 2.66699 44.334 17.667 101.001 45l184 88c64 44 96 100 96 168c0 100 -44.333 177.333 -133 232
c-74 45.333 -164 67.666 -270 66.999c-202 0 -387.667 -61.333 -557 -184c-186 -135.333 -279 -300.666 -279 -495.999c0 -140.667 82 -244.334 246 -311.001c118.667 -49.333 260.667 -74 426 -74c27.333 0 51.166 7.5 71.499 22.5s31.833 22.5 34.5 22.5
c27.333 0 58.5 -16.333 93.5 -49s52.5 -62.667 52.5 -90c0 -48 -50 -71.667 -150 -71c-254 0 -460 41.333 -618 124c-204.667 106.667 -307 276 -307 508zM602.002 575.001c103.333 28 178.332 85.668 224.999 173.001h-41
c-105.333 -62.667 -166.666 -120.334 -183.999 -173.001z" />
    <glyph glyph-name="A" unicode="A" horiz-adv-x="1243" 
d="M115 59c0 13.333 22.3359 53.6689 67.0029 121.002l86 129c157.333 250 348 594.667 572 1034c126.667 -50.667 190 -211 190 -481c0 -30 -1.33301 -74.333 -4 -133s-4 -103 -4 -133c0 -10.667 9.83301 -28 29.5 -52s29.5 -41.333 29.5 -52c0 -8 -6 -21.667 -18 -41
l-27 -41c-13.333 -32.667 -20 -95 -20 -187c0 -26 0.666992 -54 2 -84l4 -129c-19.333 -4 -37 -6 -53 -6c-56 0 -84 32.667 -84 98c0 23.333 4 58.166 12 104.499s12 81.166 12 104.499c0 39.333 -14.333 59.333 -43 60c-32.667 0 -113.834 -18.167 -243.501 -54.5
s-201.834 -61.833 -216.501 -76.5c-8 -8 -41.667 -60 -101 -156c-48 -78 -86.333 -117 -115 -117c-16.667 0 -33.334 11.333 -50.001 34s-25 42 -25 58zM530.003 465.003c83.333 15.333 208.334 42.666 375.001 81.999v362c0 22 -4 53.167 -12 93.5s-12.667 68.5 -14 84.5
c-32.667 -66.667 -92.334 -169.667 -179.001 -309c-82 -131.333 -138.667 -235.666 -170 -312.999z" />
    <glyph glyph-name="B" unicode="B" horiz-adv-x="1392" 
d="M106 141c0 8 41.999 74.5 125.999 199.5s126 199.833 126 224.5c0 10.667 -2.66699 27 -8 49s-8 38.667 -8 50c0 10.667 0.666992 21.334 2 32.001c54.667 19.333 98.334 56.333 131.001 111c8 12 32.667 66 74 162c-40.667 -4 -91.334 -34.667 -152.001 -92l-133 -132
c-19.333 12 -28.666 30 -27.999 54c0 39.333 27 93.333 81 162c40.667 50.667 84.667 95.667 132 135c100 83.333 195.333 141.333 286 174c87.333 30 198 45 332 45c22 0 55.5 -35.5 100.5 -106.5s67.5 -120.167 67.5 -147.5c0 -94 -93 -195.667 -279 -305
c109.333 -36.667 179 -63.334 209 -80.001c78 -44 117 -101.333 117 -172c0 -54.667 -26.667 -114 -80 -178c-194 -232 -450.667 -348.333 -770 -349c-78 0 -145 9.66699 -201 29c-83.333 28.667 -125 73.667 -125 135zM304.999 201c132.667 -56 220 -83.999 262 -83.999
c95.333 0 208.666 38 339.999 114c144.667 84.667 217 170.667 217 258c0 83.333 -59.333 125 -178 125c-145.333 0 -218 0.333008 -218 1l9 1c-91.333 -2.66699 -156 -16.334 -194 -41.001c-16.667 -32.667 -59.667 -98.667 -129 -198
c-65.333 -94 -101.666 -152.667 -108.999 -176zM642.999 1042c30 -44 45 -82 45 -114c0 -22 -4.66699 -48 -14 -78l-25 -76c70.667 22 154 65.667 250 131c116 79.333 173.333 145 172 197c-24.667 0 -60.5 1.66699 -107.5 5s-82.833 5 -107.5 5
c-68 0 -139 -23.333 -213 -70z" />
    <glyph glyph-name="C" unicode="C" horiz-adv-x="1206" 
d="M43 469c0 136.667 49 268.332 147 394.999c82 106.667 190 201.667 324 285c28.667 20.667 73 50.667 133 90c50.667 32.667 100.667 49 150 49c42 0 86.5 -23.167 133.5 -69.5s70.5 -90.166 70.5 -131.499c0 -46.667 -13.833 -88.334 -41.5 -125.001
s-64.167 -55 -109.5 -55c-36.667 0 -71.667 14.333 -105 43c5.33301 22 21.333 48.667 48 80c31.333 38 50.333 62.667 57 74l-10 8c-135.333 0 -277 -84.333 -425 -253s-222 -322 -222 -460c0 -60 26.5 -117.667 79.5 -173s109.5 -83.666 169.5 -84.999l95 -2h44
c160 0 270 20.667 330 62c24.667 16.667 42.667 46.667 54 90c8 32.667 24.333 49 49 49c18 0 41.833 -15 71.5 -45s44.5 -54 44.5 -72c0 -76.667 -83.667 -138 -251 -184c-124 -34 -241 -51 -351 -51c-130 0 -243.333 47.667 -340 143s-145 208 -145 338z" />
    <glyph glyph-name="D" unicode="D" horiz-adv-x="1345" 
d="M53 1176c94 45.333 181.332 75.332 261.999 89.999c61.333 10.667 153.666 16 276.999 16c150 0 299.333 -62 448 -186c156 -130 234 -268 234 -414c0 -109.333 -61.333 -225.333 -184 -348c-95.333 -95.333 -205.333 -176.666 -330 -243.999
c-139.333 -75.333 -256.666 -113 -351.999 -113h-111c-31.333 0 -61.333 31 -90 93c-26 53.333 -39 98.333 -39 135c0 54.667 37 157.667 111 309l157 317c-27.333 8 -41 26 -41 54c0 46.667 48.667 125.667 146 237c-9.33301 5.33301 -19.666 8 -30.999 8
c-56 0 -129.333 -17.333 -220 -52s-141 -52 -151 -52c-26 0 -47 19 -63 57c-13.333 30 -21 61 -23 93zM318.999 153.999c75.333 -8 128.001 -12.334 158.001 -13.001c102.667 0 243.667 74.5 423 223.5s269 272.5 269 370.5c0 70.667 -50.333 147.334 -151 230.001
c-94 78 -178.667 121 -254 129l-242 -461c-92.667 -180 -160.334 -339.667 -203.001 -479z" />
    <glyph glyph-name="E" unicode="E" horiz-adv-x="1400" 
d="M-90 203c0 53.333 20.333 132.334 61 237.001c0 6.66699 -2 17.667 -6 33s-6 27 -6 35c0 5.33301 0.666992 10 2 14c4 20.667 39 42 105 64c35.333 22 102.666 117.333 201.999 286c-13.333 49.333 -20 87 -20 113c0 27.333 15 52.666 45 75.999l80 49
c35.333 30 61.333 72.333 78 127h53c35.333 -38 64 -57 86 -57c19.333 0 80 12.333 182 37c66.667 18 168.334 43 305.001 75c110.667 26 213 39 307 39c19.333 0 43.666 -13.5 72.999 -40.5s44 -50.167 44 -69.5c0 -16.667 -7.5 -31.834 -22.5 -45.501
s-30.5 -20.5 -46.5 -20.5c-6.66699 0 -11.5 2 -14.5 6s-7.83301 6 -14.5 6c-13.333 0 -36 -6 -68 -18c-35.333 -13.333 -59 -21.666 -71 -24.999c-56 -12 -172.333 -32.333 -349 -61c-140.667 -22 -254.667 -47.333 -342 -76c-49.333 -15.333 -93 -64.333 -131 -147
c-46.667 -96.667 -83.334 -156 -110.001 -178c12 -4 24.333 -6.33301 37 -7c19.333 0 46.333 5.83301 81 17.5s61.334 17.5 80.001 17.5c174.667 0 305.334 35.667 392.001 107c58.667 -48 88 -81.667 88 -101c0 -44 -64.333 -84.333 -193 -121
c-32.667 -9.33301 -159 -37 -379 -83c-151.333 -32.667 -242 -60.667 -272 -84c-18 -13.333 -37 -49 -57 -107c-27.333 -72.667 -43.333 -113 -48 -121c98 -20 151 -30 159 -30h1c46.667 0 116.667 5.66699 210 17s163.333 17 210 17c6.66699 0 47 19.333 121 58l33 -52
c-0.666992 -2 -1 -5 -1 -9c0 -12 1.66699 -33.333 5 -64c-91.333 -88.667 -268.333 -133 -531 -133c-238.667 0 -358 73 -358 219z" />
    <glyph glyph-name="F" unicode="F" horiz-adv-x="1290" 
d="M-82 463c0 31.333 16.3369 54.3359 49.0039 69.0029c15.333 6.66699 47.333 13 96 19c38 4 59.333 9.33301 64 16c8 12 14 39.333 18 82c2.66699 36.667 5.66699 66 9 88c10.667 65.333 42.667 124.666 96 177.999c9.33301 9.33301 62.666 52.333 159.999 129
c10.667 10.667 27 28.5 49 53.5s37 37.5 45 37.5c5.33301 0 11.333 -3.83301 18 -11.5s14.334 -11.5 23.001 -11.5c6.66699 0 15.5 3.83301 26.5 11.5s19.833 11.5 26.5 11.5c66.667 0 163.5 23.833 290.5 71.5s224.167 71.5 291.5 71.5c56 0 99.167 -9.83301 129.5 -29.5
s54.5 -55.5 72.5 -107.5c-48 -50.667 -113.333 -76 -196 -76c-9.33301 0 -23 4.16699 -41 12.5s-31.667 12.5 -41 12.5c-34 0 -125.167 -24.667 -273.5 -74s-240.833 -85 -277.5 -107c-20.667 -12 -47.334 -54.333 -80.001 -127l-67 -149c15.333 -8 35 -12 59 -12
c23.333 0 57.166 4.66699 101.499 14s78.166 14 101.499 14c5.33301 0 13.166 3.83301 23.499 11.5s18.166 11.5 23.499 11.5c158.667 0 291.667 26.667 399 80l-4 -23c0 -6.66699 2.66699 -16.834 8 -30.501s8 -23.834 8 -30.501c0 -10.667 -5.33301 -34.667 -16 -72
c-70.667 -36.667 -163.667 -66 -279 -88c-143.333 -28.667 -281.666 -52.667 -414.999 -72c-49.333 -6.66699 -89 -18.334 -119 -35.001c-4 -2.66699 -43.667 -70.667 -119 -204c-72.667 -128.667 -121.667 -193 -147 -193c-23.333 0 -43.833 11.333 -61.5 34
s-26.5 46.334 -26.5 71.001c0 10.667 17 50.667 51 120l63 131c-12 -1.33301 -23.333 -2 -34 -2c-69.333 0 -104.333 35 -105 105z" />
    <glyph glyph-name="G" unicode="G" horiz-adv-x="1681" 
d="M12 383c0 116 83.335 255.997 250.002 419.997c124 121.333 258.667 227 404 317c170.667 105.333 305.667 158 405 158c24.667 0 46.5 -8.5 65.5 -25.5s28.5 -37.833 28.5 -62.5c0 -31.333 -13 -59.333 -39 -84c-10.667 4 -22 6 -34 6c-84.667 0 -216 -59.333 -394 -178
c-140.667 -95.333 -257.334 -188.333 -350.001 -279c-130 -125.333 -194.667 -224.333 -194 -297c0 -76.667 42.333 -132.667 127 -168c61.333 -26.667 135 -40 221 -40h6c8 0 18.5 3.66699 31.5 11s23.5 11 31.5 11c6.66699 0 13.5 -3.66699 20.5 -11s13.833 -11 20.5 -11
c9.33301 0 23 5.66699 41 17s31.667 17 41 17l13 -4l-2 -2l12 -6c4 0 30.667 10.333 80 31c31.333 6.66699 77.666 20.334 138.999 41.001c32.667 18 64 45.333 94 82c35.333 40.667 53 76.667 53 108c0 52 -43.667 78 -131 78c-26 0 -65.167 -2.33301 -117.5 -7
s-91.5 -7 -117.5 -7c-112 0 -168 36.667 -168 110c0 28.667 9.66699 56.667 29 84l256 17c44 0 109.167 -5.5 195.5 -16.5s151.5 -16.5 195.5 -16.5c30 0 75 1.66699 135 5s105 5 135 5c98 0 147 -37.667 147 -113c0 -56 -55 -84 -165 -84c-18 0 -43.667 1.5 -77 4.5
s-59 4.5 -77 4.5c-15.333 0 -49.333 -50 -102 -150c-49.333 -91.333 -78.666 -152.666 -87.999 -183.999c-2.66699 -40.667 -13 -98 -31 -172c-15.333 -34 -37.333 -51 -66 -51c-32.667 0 -53 22.333 -61 67c-4 24.667 -8.66699 60.334 -14 107.001
c-22 -16.667 -44.667 -31.167 -68 -43.5s-88.333 -25.833 -195 -40.5c-96.667 -13.333 -166.334 -20.333 -209.001 -21c-23.333 0 -57 3.83301 -101 11.5s-77.667 11.5 -101 11.5c-78 0 -144.333 40.333 -199 121c-50.667 72.667 -76 149 -76 229z" />
    <glyph glyph-name="H" unicode="H" horiz-adv-x="1019" 
d="M4 55c0 9.33301 15.9971 43.834 47.9971 103.501s50.5 98.334 55.5 116.001s10.833 79.167 17.5 184.5c18 9.33301 43.333 29 76 59c18 22 37 59 57 111c16.667 40.667 32.334 81 47.001 121c57.333 135.333 165.333 313.333 324 534
c16.667 -6.66699 39.5 -20.334 68.5 -41.001s43.5 -36.334 43.5 -47.001c0 -28.667 -49 -125.667 -147 -291c-110.667 -186 -170.667 -291.667 -180 -317c12 -6.66699 27 -10 45 -10c54.667 0 136.667 27 246 81c32.667 117.333 68.667 227.333 108 330
c66.667 173.333 121.334 260 164.001 260c18 0 34.167 -10.833 48.5 -32.5s21.5 -42.167 21.5 -61.5c0 -36.667 -27.333 -111.667 -82 -225s-82 -189.333 -82 -228c0 -12 7.83301 -31.333 23.5 -58s23.5 -46 23.5 -58s-15.667 -34 -47 -66c-38 -38 -59.333 -59.667 -64 -65
c-12 -20.667 -23.667 -72.667 -35 -156c-10.667 -91.333 -22.667 -154.666 -36 -189.999c-23.333 -62.667 -58.333 -94.334 -105 -95.001c-23.333 0 -47.666 12.667 -72.999 38s-38 49.666 -38 72.999c0 20.667 9.66699 31 29 31c34 0 58.667 41 74 123l24 163l-16 11
c-22 -1.33301 -60.333 -16.333 -115 -45c-8 -4 -44 -11 -108 -21c-49.333 -6.66699 -90.333 -36 -123 -88c-9.33301 -16.667 -32 -65 -68 -145c-32.667 -75.333 -58.334 -142.333 -77.001 -201c-18 -13.333 -36.667 -20.333 -56 -21c-27.333 0 -49.666 14.333 -66.999 43
c-16.667 24.667 -25 51.334 -25 80.001z" />
    <glyph glyph-name="I" unicode="I" horiz-adv-x="1337" 
d="M-88 47l-0.00292969 51c9.33301 18 23 27 41 27c42 0 124 10.333 246 31c126.667 22 203.667 40.333 231 55c22 12 37.667 31.667 47 59c5.33301 16.667 13.666 41.334 24.999 74.001c50.667 120 158.334 345.333 323.001 676l-10 8
c-35.333 0 -97.666 -22.5 -186.999 -67.5s-155.333 -67.5 -198 -67.5c-57.333 0 -86 39 -86 117c0 22 33.833 51.667 101.5 89s114.5 56 140.5 56c5.33301 0 10 -1.66699 14 -5s8.66699 -5 14 -5s31.666 10.5 78.999 31.5s85.333 31.5 114 31.5
c10.667 0 22.334 -1.33301 35.001 -4l32 29c53.333 6.66699 119 17 197 31c9.33301 1.33301 55 16.333 137 45c64.667 22.667 106 34 124 34h1c16.667 0 37.667 -14.5 63 -43.5s38 -51.833 38 -68.5c0 -61.333 -149 -113.333 -447 -156c0 -9.33301 0.666992 -22.5 2 -39.5
s2 -30.5 2 -40.5c0 -38 -54.5 -157.667 -163.5 -359s-164.167 -330 -165.5 -386l18 -19c30 9.33301 90.667 14.333 182 15c8 0 77.667 -9.66699 209 -29c0 -50.667 -53.333 -90.334 -160 -119.001c-74 -20 -145.333 -30 -214 -30h-7c-5.33301 0 -13.166 2 -23.499 6
s-18.166 6 -23.499 6c-13.333 0 -40.5 -11 -81.5 -33s-68.5 -33 -82.5 -33c-18 0 -45.333 1 -82 3s-64 3 -82 3c-35.333 0 -86.833 -9.83301 -154.5 -29.5s-119.167 -29.5 -154.5 -29.5c-24.667 0 -56 28.667 -94 86z" />
    <glyph glyph-name="J" unicode="J" horiz-adv-x="1476" 
d="M-88 358c19.333 8 32.335 12.3301 39.002 12.9971c23.333 0 71.166 -14 143.499 -42s118.5 -50.333 138.5 -67c-1.33301 -19.333 -8 -39 -20 -59c66.667 -44 110.334 -70.667 131.001 -80c45.333 -22 96 -33 152 -33c206 0 335.667 162.667 389 488
c10.667 66.667 31.667 138.334 63 215.001l86 208l-18 9c-23.333 -1.33301 -57.5 -11.666 -102.5 -30.999s-79.167 -29 -102.5 -29c-39.333 0 -66.666 16.333 -81.999 49c-2.66699 10.667 -10 44.334 -22 101.001c54.667 30 184.667 71.333 390 124s340 79 404 79
c15.333 0 32.833 -14.667 52.5 -44s29.5 -52.333 29.5 -69c0 -32.667 -54.667 -62 -164 -88c-28.667 -6.66699 -99 -21 -211 -43c-2.66699 -56 -26.334 -139.333 -71.001 -250c-56 -136.667 -88.333 -222.667 -97 -258c-44 -182.667 -87 -312.334 -129 -389.001
c-76.667 -140.667 -182.334 -211 -317.001 -211c-6.66699 0 -15.834 1.66699 -27.501 5s-20.167 5 -25.5 5l-11 -4l5 -12l-11 -6c-64 0 -159.333 27 -286 81c-118.667 50.667 -207.667 98.667 -267 144c-46 34.667 -69 83.334 -69 146.001c0 20 3.33301 36 10 48z" />
    <glyph glyph-name="K" unicode="K" horiz-adv-x="1327" 
d="M-63 150c0 12 46.3301 89.667 138.997 233l168 260c-8 5.33301 -15.667 8 -23 8c-15.333 0 -36.5 -6.16699 -63.5 -18.5s-47.5 -18.5 -61.5 -18.5c-20.667 0 -44.5 15.5 -71.5 46.5s-40.5 56.5 -40.5 76.5c0 20.667 31.333 42 94 64l192 65
c79.333 32.667 134 71.667 164 117c61.333 91.333 93.333 163.666 96 216.999c24.667 16.667 44 41.334 58 74.001c66.667 -10.667 100 -47 100 -109c0 -15.333 -2 -38.5 -6 -69.5s-6 -54.167 -6 -69.5c4 1.33301 119.333 67.666 346 198.999
c192.667 110.667 293.667 166 303 166c13.333 0 26.5 -12 39.5 -36s19.5 -43.667 19.5 -59c0 -39.333 -46.333 -86.333 -139 -141l-192 -108c-121.333 -83.333 -277.666 -162.666 -468.999 -237.999c140.667 -65.333 265.334 -165 374.001 -299
c120 -148.667 180.333 -294 181 -436c0 -31.333 -6.33301 -64.333 -19 -99c-15.333 -44.667 -34.666 -67 -57.999 -67h-1c-42 0 -63.333 36 -64 108c0 16.667 2.5 42 7.5 76s7.5 59.333 7.5 76c0 94 -58.667 197.333 -176 310c-113.333 108.667 -216 163 -308 163h-10
l-43 -2l-219 -344c-120 -187.333 -193 -281 -219 -281c-22 0 -44.167 16.833 -66.5 50.5s-33.5 62.167 -33.5 85.5z" />
    <glyph glyph-name="L" unicode="L" horiz-adv-x="1034" 
d="M49 111c0 36.667 36.999 113 110.999 229c86 135.333 134.333 216 145 242c34 80.667 73.667 199 119 355s87 272.333 125 349c15.333 31.333 28.333 47 39 47c15.333 0 35.833 -18.667 61.5 -56s38.5 -64.333 38.5 -81c0 -13.333 -9.66699 -40.666 -29 -81.999
c-27.333 -60 -85.333 -223 -174 -489c-53.333 -161.333 -112 -290.333 -176 -387c26 -2.66699 55.333 -4.33398 88 -5.00098c27.333 0 68.333 1.5 123 4.5s95.667 4.5 123 4.5c234.667 0 352 -37.667 352 -113c0 -12 -12.333 -28.333 -37 -49c-31.333 -8 -92 -12 -182 -12
c-186 0 -347 -14.333 -483 -43c-9.33301 -2.66699 -32.666 -11 -69.999 -25c-30 -12 -52.333 -18 -67 -18c-28.667 0 -53.667 14 -75 42s-32 57 -32 87z" />
    <glyph glyph-name="M" unicode="M" horiz-adv-x="1540" 
d="M55 102c0 39.333 36.3281 127.671 108.995 265.004c113.333 214.667 181.666 347 204.999 397c73.333 160 110 286.333 110 379c0 49.333 13 84.666 39 105.999c40.667 -31.333 68.667 -47 84 -47c6.66699 0 16.167 6.16699 28.5 18.5s22.833 18.5 31.5 18.5
c36.667 0 67.334 -24 92.001 -72c20.667 -40.667 30.667 -81.667 30 -123c0 -42 -9.83301 -104.333 -29.5 -187s-29.5 -145 -29.5 -187l-2 -144l20 -6c18 0 63.333 30 136 90c66.667 56 110.334 95.667 131.001 119c48 53.333 107.667 139.666 179 258.999
s128.333 204.333 171 255c26 0 47 -16.333 63 -49c14 -27.333 21 -56 21 -86c0 -45.333 -9 -102.666 -27 -171.999c-23.333 -92.667 -37 -149.334 -41 -170.001c-26 -151.333 -47.667 -328 -65 -530c-1.33301 -36.667 -5.66602 -92 -12.999 -166
c-9.33301 -80.667 -33.666 -121 -72.999 -121c-23.333 0 -43.833 13.667 -61.5 41s-26.5 53.333 -26.5 78c0 74 14 182.5 42 325.5s42 251.5 42 325.5v20c-13.333 -2.66699 -46.333 -41.334 -99 -116.001c-64 -94 -117.667 -162.333 -161 -205
c-74 -72.667 -144.333 -109 -211 -109c-75.333 0 -126.666 57.333 -153.999 172c-4 16.667 -14.333 104 -31 262l-209 -428c-113.333 -232 -180.666 -348 -201.999 -348c-26 0 -49 15.667 -69 47s-30 60.666 -30 87.999z" />
    <glyph glyph-name="N" unicode="N" horiz-adv-x="1265" 
d="M-74 51l-0.000976562 5c0 94.667 35.667 220 107 376c106.667 233.333 162.667 359 168 377l69 221c39.333 118.667 72.333 178 99 178c57.333 0 99 -74.333 125 -223c8 -65.333 21.667 -163.666 41 -294.999c22 -146 65 -284 129 -414
c158.667 432.667 344.334 852 557.001 1258h122l13 -55c-108 -181.333 -224 -426 -348 -734c-131.333 -323.333 -214 -579.333 -248 -768c-14.667 -17.333 -33.667 -26 -57 -26h-3c-54.667 0 -121.334 122 -200.001 366c-49.333 150 -91.666 303.667 -126.999 461
c-39.333 -122.667 -93.333 -265.334 -162 -428.001c-96.667 -230.667 -163 -346 -199 -346c-26 0 -54.667 15.667 -86 47z" />
    <glyph glyph-name="O" unicode="O" horiz-adv-x="1361" 
d="M78 401c0 50.667 10.998 117.002 32.998 199.002c16.667 16.667 33.667 42.667 51 78c22 44 36.333 71.333 43 82c131.333 196.667 310.666 344 537.999 442c6.66699 2.66699 21 13.667 43 33c18 15.333 34 22.666 48 21.999c4 0 8.33301 -1.66699 13 -5
s9.66699 -5 15 -5c12 0 28.333 5.83301 49 17.5s37.334 17.5 50.001 17.5c9.33301 0 15.333 -8.33301 18 -25c8 9.33301 10.667 21 8 35c36.667 -10.667 92 -27.667 166 -51l72 -82c35.333 -42 53 -69.333 53 -82v-342c0 -152.667 -62 -293.334 -186 -422.001
c-105.333 -109.333 -238 -194.666 -398 -255.999c-20.667 -8 -82.667 -35.333 -186 -82c-2.66699 -2.66699 -4 -7.33398 -4 -14.001c0 -9.33301 2 -22.333 6 -39h-33c-15.333 -1.33301 -25.666 -2 -30.999 -2c-34 0 -87.667 30 -161 90
c-69.333 56 -113.666 101.667 -132.999 137c-49.333 91.333 -74 176 -74 254zM263.998 449.002c0 -195.333 37.667 -293.002 113 -293.002c46.667 0 153.667 27.333 321 82l11 -2c4 2.66699 5.33301 4.66699 4 6c38 15.333 96 51.833 174 109.5s128.333 102.834 151 135.501
c82 115.333 123 265 123 449c0 39.333 -8 79 -24 119c-20.667 48.667 -47.667 73 -81 73h-1c-64 0 -191.667 -51.667 -383 -155c-76.667 -42 -145.667 -103.667 -207 -185c-27.333 -35.333 -78 -113.666 -152 -234.999c-32.667 -53.333 -49 -88 -49 -104z" />
    <glyph glyph-name="P" unicode="P" horiz-adv-x="1052" 
d="M-59 90c0 15.333 26.8359 68.9971 80.5029 160.997s80.5 145.667 80.5 161c0 9.33301 -7.5 28.666 -22.5 57.999s-22.5 50 -22.5 62c0 40.667 11 61.334 33 62.001c5.33301 0 14.166 -1.33301 26.499 -4s21.166 -4 26.499 -4c42 0 96 60.667 162 182
c87.333 162.667 158.333 274.667 213 336c108 121.333 235 182 381 182c65.333 0 120.666 -32 165.999 -96c40.667 -58 61 -121 61 -189c0 -147.333 -73 -275.666 -219 -384.999c-110.667 -80.667 -252 -144 -424 -190c-44 -5.33301 -106 -19.666 -186 -42.999
c-5.33301 -1.33301 -44.5 -72.666 -117.5 -213.999s-117.833 -212 -134.5 -212c-22 0 -44.833 16.333 -68.5 49s-35.5 60.667 -35.5 84zM418.003 611.997l28.001 -14c173.333 70.667 291 126.667 353 168c127.333 86 197.666 189 210.999 309
c-49.333 28.667 -97.333 43 -144 43c-118.667 0 -232.667 -100.333 -342 -301z" />
    <glyph glyph-name="Q" unicode="Q" horiz-adv-x="1597" 
d="M115 387c0 95.333 21.0039 182.668 63.0039 262.001c13.333 24.667 64.666 99 153.999 223c38 53.333 110.333 123 217 209c121.333 98 202.666 147.333 243.999 148c18 0 43.333 -7.83301 76 -23.5s57.667 -23.5 75 -23.5c5.33301 0 13.166 2 23.499 6
s18.166 6 23.499 6l15 -4l-2 -2l12 -6c5.33301 0 13.166 2 23.499 6s18.166 6 23.499 6c9.33301 0 14 -1.33301 14 -4v-2c0 -4 5 -6 15 -6c6.66699 0 16.5 2.33301 29.5 7s22.833 7 29.5 7c32.667 0 71 -14.333 115 -43c39.333 -26 70 -54 92 -84
c24.667 -35.333 49.334 -118 74.001 -248c21.333 -117.333 32 -205.333 32 -264c0 -220 -104.333 -396 -313 -528v-15c0 -26 8.16699 -62.833 24.5 -110.5s24.5 -84.5 24.5 -110.5c0 -20.667 -5.33301 -40.334 -16 -59.001h-31c-22 0 -50 35.333 -84 106l-70 140
c-169.333 -46.667 -279.666 -70 -330.999 -70c-136.667 0 -261 44.333 -373 133c-120 95.333 -180 210 -180 344zM283.004 244.002c49.333 -52 95.001 -83.334 137.001 -94.001c-32.667 28.667 -78.334 74.334 -137.001 137.001v-43zM362.005 465.001
c0 -74 33.001 -143.667 99.001 -209l186 -154v-24c38 0 90.667 4.66699 158 14c84.667 12 136.667 19 156 21c-5.33301 35.333 -26 104 -62 206c-31.333 91.333 -47 157 -47 197c0 20.667 12.333 31 37 31c48 0 94.333 -54 139 -162c34 -79.333 56.667 -155 68 -227
c83.333 44 148.666 124.333 195.999 241c42.667 101.333 64 206 64 314c0 92.667 -17.667 169 -53 229c-42 74 -106.333 111 -193 111c-64 0 -104.333 -5.66699 -121 -17l-23.5 -27.5c-9 -10.333 -17.5 -15.5 -25.5 -15.5c-5.33301 0 -12.5 2.16699 -21.5 6.5
s-16.167 6.5 -21.5 6.5c-92.667 0 -205 -66.667 -337 -200s-198 -247 -198 -341z" />
    <glyph glyph-name="R" unicode="R" horiz-adv-x="1183" 
d="M20 104c0 34 56.6689 175.331 170.002 423.998c106.667 233.333 178.667 380.333 216 441c-10.667 12 -34 22 -70 30v50c0 42 30.667 84.833 92 128.5s114.666 65.5 159.999 65.5c9.33301 0 22.833 -2 40.5 -6s31.5 -6 41.5 -6c12 0 28.333 6.16699 49 18.5
s37 18.5 49 18.5c9.33301 0 23.333 -6.16699 42 -18.5s32 -18.5 40 -18.5c5.33301 0 12.5 2 21.5 6s15.5 6 19.5 6c58.667 0 113.167 -23.167 163.5 -69.5s75.5 -98.833 75.5 -157.5c0 -69.333 -40 -131 -120 -185c-54.667 -35.333 -135.334 -70.666 -242.001 -105.999
c-120 -40.667 -202 -72.667 -246 -96l269 -324c125.333 -155.333 188 -266.666 188 -333.999c0 -43.333 -15.333 -65 -46 -65h-1c-31.333 0 -67 34 -107 102c-20.667 34 -37.667 60 -51 78l-158 160c-30 30 -68.833 78 -116.5 144s-84.5 113.333 -110.5 142
c-58.667 -116 -116 -243.333 -172 -382l-61 -154c-18 -22 -36.667 -33 -56 -33c-23.333 0 -43 18.333 -59 55c-13.333 30 -20.333 58.667 -21 86zM512.002 822.998c76.667 0 162.666 22 257.999 66c106.667 48 172.334 102.667 197.001 164c-58.667 14.667 -117 22 -175 22
h-8c-52 0 -123 -7.33301 -213 -22c1.33301 -9.33301 2 -20.333 2 -33c0 -78 -20.333 -143.667 -61 -197z" />
    <glyph glyph-name="S" unicode="S" horiz-adv-x="1196" 
d="M88 899c0 90 64.332 168.668 192.999 236.001c113.333 58.667 225.666 88 336.999 88c16.667 0 32.667 -1.33301 48 -4h-9l11 -2c10.667 0 25.5 4.33301 44.5 13s33.5 13 43.5 13c46.667 0 95.167 -18.833 145.5 -56.5s75.5 -78.834 75.5 -123.501
c0 -13.333 -3.83301 -32.333 -11.5 -57s-12.167 -42.667 -13.5 -54c-15.333 -4 -29 -6 -41 -6c-18 0 -32.667 20.167 -44 60.5s-36.666 60.5 -75.999 60.5c-82 0 -171 -14.333 -267 -43c-102.667 -30 -182.334 -68.333 -239.001 -115c26 -23.333 73 -54.666 141 -93.999
c16.667 -9.33301 76 -39.333 178 -90c58.667 -28.667 119.334 -68.334 182.001 -119.001c116 -92.667 185.667 -153.334 209 -182.001c13.333 -18 29.333 -48.667 48 -92s28 -75.333 28 -96v-11c-12 -1.33301 -18.667 -7.33301 -20 -18l12 -37
c-15.333 -64 -74.666 -112.333 -177.999 -145c-74 -23.333 -156 -35 -246 -35c-102.667 0 -197.667 16.333 -285 49c-114.667 44 -172 108.667 -172 194c0 12 3.83301 28.333 11.5 49s12.167 35.334 13.5 44.001c24.667 9.33301 41.667 14 51 14
c38 0 82.333 -16.333 133 -49c50 -31.333 75 -63.333 75 -96c0 -4 -0.333008 -7.66699 -1 -11c18 -19.333 50 -30 96 -32h109c50.667 0 91 7.33301 121 22c24.667 12 56 38 94 78c-34 80.667 -138.667 162 -314 244l-383 174c-19.333 9.33301 -40.833 43.333 -64.5 102
s-35.5 101 -35.5 127z" />
    <glyph glyph-name="T" unicode="T" horiz-adv-x="1001" 
d="M-61 920c0 76.667 29.3281 131.666 87.9951 164.999c22 12 87.333 33.333 196 64c128.667 35.333 218.334 53 269.001 53c5.33301 0 15.833 4.5 31.5 13.5s25.5 14.167 29.5 15.5c36.667 10.667 98 16 184 16h162c34 0 71.5 -17.333 112.5 -52
s61.5 -68.334 61.5 -101.001c0 -38 -13.667 -57.333 -41 -58c-24.667 0 -60.5 1.83301 -107.5 5.5s-82.833 5.5 -107.5 5.5c-13.333 0 -72.666 -5 -177.999 -15c-40.667 -125.333 -90.667 -261.666 -150 -408.999c-20.667 -49.333 -58 -147.666 -112 -294.999
c-45.333 -125.333 -85.666 -223 -120.999 -293c-13.333 -27.333 -24.333 -41 -33 -41c-27.333 0 -49.666 15 -66.999 45c-13.333 26 -20.333 54 -21 84c0 39.333 110 333.666 330 882.999l-19 4c-27.333 0 -84.666 -11 -171.999 -33c-91.333 -22 -145.666 -39 -162.999 -51
c-6.66699 -4 -21 -18 -43 -42s-38 -36 -48 -36c-16.667 0 -34.334 7.83301 -53.001 23.5s-28 31.834 -28 48.501z" />
    <glyph glyph-name="U" unicode="U" horiz-adv-x="1124" 
d="M37 410c0 91.333 31.9961 221.666 95.9961 390.999c58.667 155.333 117.334 278 176.001 368c64 -74 96.333 -124.333 97 -151c0 -30 -32.5 -120.833 -97.5 -272.5s-97.5 -263.5 -97.5 -335.5c0 -75.333 23.833 -132.833 71.5 -172.5s109.834 -59.5 186.501 -59.5
c72.667 0 138.334 15.667 197.001 47c72.667 38 138.667 163.667 198 377c52 182.667 78 331 78 445c0 20.667 -3 50.334 -9 89.001s-9 68.334 -9 89.001c0 72 22.667 108 68 108h1c32.667 0 63.334 -34.667 92.001 -104c24.667 -59.333 37 -108 37 -146
c-2.66699 -6.66699 -8 -26.334 -16 -59.001l-82 -377c-94 -416 -237 -624 -429 -624h-1c-22 0 -55.167 -1.83301 -99.5 -5.5s-77.5 -5.5 -99.5 -5.5c-94 0 -177.167 42.333 -249.5 127s-108.5 175 -108.5 271z" />
    <glyph glyph-name="V" unicode="V" horiz-adv-x="880" 
d="M-45 1108c0 8 4.66699 24.998 14 50.998h39c64 0 109 -95.667 135 -287l29 -286c12 -108 32.333 -201 61 -279l297 529l164 282c12 30 31.333 75.667 58 137c30 66.667 58.667 100.334 86 101.001c22 0 45.167 -16.667 69.5 -50s36.5 -61.666 36.5 -84.999
c0 -19.333 -201.333 -401 -604 -1145c-39.333 -72.667 -73.333 -109 -102 -109c-56 0 -119 169.333 -189 508c-62.667 303.333 -94 514.333 -94 633z" />
    <glyph glyph-name="W" unicode="W" horiz-adv-x="1603" 
d="M98 256c0 98 20.6709 243.335 62.0039 436.002c38 178.667 76 322.667 114 432c15.333 42 36.666 63.333 63.999 64c23.333 0 49.666 -13 78.999 -39s44 -50.667 44 -74c0 -88.667 -33.167 -222 -99.5 -400s-99.5 -312.333 -99.5 -403c92.667 46.667 182.667 135 270 265
c23.333 35.333 87.666 147 192.999 335c30 -10.667 68.333 -30.334 115 -59.001v-39c0 -50.667 -20.5 -121.667 -61.5 -213s-61.5 -162.333 -61.5 -213c0 -15.333 1.33301 -30.333 4 -45c38 -38 86.333 -57 145 -57c10.667 0 26.667 0.666992 48 2s37.666 2 48.999 2
c19.333 0 66.833 24.167 142.5 72.5s120.834 82.166 135.501 101.499c34 44 51 112.333 51 205c0 66.667 -7.33301 147.667 -22 243c-19.333 122.667 -45.333 190.334 -78 203.001c-2.66699 1.33301 -19 6.33301 -49 15c-26 38 -39 68 -39 90c0 18 6.83301 39.5 20.5 64.5
s28.5 38.167 44.5 39.5l11 -6l-9 -10l11 -6l8 6l-6 10l10 6c68 0 130 -90.667 186 -272c48 -153.333 72 -276.333 72 -369c0 -114.667 -17 -212.334 -51 -293.001c-27.333 -64 -97.333 -130.167 -210 -198.5s-204.667 -102.5 -276 -102.5c-79.333 0 -151 20.667 -215 62
c-69.333 44 -113 102 -131 174c-13.333 -2.66699 -63.333 -52.5 -150 -149.5s-146.334 -145.5 -179.001 -145.5c-52 0 -90.333 33.333 -115 100c-18 46.667 -27 102 -27 166z" />
    <glyph glyph-name="X" unicode="X" horiz-adv-x="1257" 
d="M229 328c61.333 68 122.333 126.669 183 176.002c-62.667 90 -116.667 195.667 -162 317c-50.667 134 -76 249.333 -76 346c0 76.667 17.667 135.334 53 176.001c38 -20.667 71.667 -93 101 -217c15.333 -72.667 39.666 -180.334 72.999 -323.001
c28.667 -113.333 65.667 -172 111 -176c69.333 44 233.333 216 492 516c60 -15.333 90 -58.333 90 -129c0 -50.667 -74.5 -150.834 -223.5 -300.501s-223.5 -229.834 -223.5 -240.501c0 -12 77.5 -87 232.5 -225s232.5 -222 232.5 -252l-49 -105h-8
c-21.333 0 -40.666 5 -57.999 15l-141 157c-30 31.333 -85 80.5 -165 147.5s-135.667 115.5 -167 145.5c-194 -218.667 -307.333 -327.667 -340 -327c-50 0 -75 30.667 -75 92c0 46.667 40 115.667 120 207z" />
    <glyph glyph-name="Y" unicode="Y" horiz-adv-x="1128" 
d="M-66 956c0 61.333 9 152.334 27 273.001l25 39h39c44.667 -38.667 67 -86 67 -142c0 -20.667 -2.66699 -50 -8 -88s-8 -66.667 -8 -86c0 -130 64.667 -222.667 194 -278c60 -26 181 -52.667 363 -80l231 434c128.667 218.667 227.667 328 297 328
c13.333 0 24.5 -9.83301 33.5 -29.5s13.5 -37.167 13.5 -52.5c0 -9.33301 -34.667 -69.333 -104 -180l-127 -205c-84.667 -168 -213 -448.667 -385 -842c-32.667 -73.333 -61.667 -110 -87 -110h-1c-60 0 -90 27.667 -90 83c0 53.333 21.667 122.333 65 207
c48 91.333 75.333 159 82 203c-2.66699 1.33301 -5.33398 2 -8.00098 2c-5.33301 0 -12.333 -2 -21 -6c-173.333 0 -313.666 44.333 -420.999 133c-117.333 95.333 -176.333 227.666 -177 396.999z" />
    <glyph glyph-name="Z" unicode="Z" horiz-adv-x="1236" 
d="M88 1087c0 24.667 8.33301 49.999 25 75.999l387 125c170.667 54.667 298.334 82 383.001 82c44 0 80 -24.667 108 -74c24.667 -40.667 37 -85 37 -133c0 -53.333 -72.333 -204.666 -217 -453.999c-134 -230.667 -230.333 -381 -289 -451c230.667 18 383.667 27 459 27
c102.667 -0.666992 154 -44.334 154 -131.001v-7l-2 -67l-19 14c-46.667 4 -94.334 6 -143.001 6c-96.667 0 -184.667 -6.66699 -264 -20c-36.667 -6.66699 -97.667 -21.667 -183 -45c-78 -22 -139.333 -33 -184 -33c-34 0 -63 12 -87 36s-36 53 -36 87
c0 61.333 50.667 159 152 293l221 278c35.333 46.667 79 123.334 131 230.001c60 124 99.667 203 119 237l-19 8c-79.333 0 -195.333 -33.667 -348 -101s-249.667 -101 -291 -101c-26 0 -48.167 13 -66.5 39s-27.5 52.333 -27.5 79z" />
    <glyph glyph-name="bracketleft" unicode="[" horiz-adv-x="673" 
d="M12 1268c176 39.333 329.667 58.999 461 58.999c36.667 0 71.5 -11 104.5 -33s49.5 -50.667 49.5 -86c0 -39.333 -40.333 -59 -121 -59c-15.333 0 -38.333 1 -69 3s-53.334 3 -68.001 3c-52 0 -124.333 -12.333 -217 -37c23.333 -229.333 50.333 -573.333 81 -1032
c20.667 0 50.834 2.33301 90.501 7s69.834 7 90.501 7c18 0 36.167 -12.167 54.5 -36.5s27.5 -46.166 27.5 -65.499c0 -31.333 -46 -56 -138 -74c-62.667 -12 -125.334 -19.333 -188.001 -22c-52 44 -78 117.667 -78 221c0 18 1 45.333 3 82s3 64 3 82
c0 228 -6.66699 406.667 -20 536c-2.66699 31.333 -15.667 105 -39 221c-18 91.333 -27 166 -27 224z" />
    <glyph glyph-name="backslash" unicode="\" horiz-adv-x="956" 
d="M45 1018c0 32.667 9.66895 58.667 29.002 78c27.333 -12 58.666 -44.333 93.999 -97l289 -411c79.333 -109.333 159.666 -197.333 240.999 -264l95 -76c34 -30 61 -58.667 81 -86c24 -31.333 42 -76.333 54 -135c-79.333 2.66699 -192 71.334 -338 206.001
c-108 100 -217.333 222.333 -328 367c-144.667 187.333 -217 326.666 -217 417.999z" />
    <glyph glyph-name="bracketright" unicode="]" horiz-adv-x="739" 
d="M70 1229l38.999 32.9961c40.667 2.66699 83.5 5.33398 128.5 8.00098s85.833 4 122.5 4c238 0 357 -61.333 357 -184c0 -69.333 -17.167 -187.166 -51.5 -353.499s-51.5 -296.5 -51.5 -390.5c0 -50.667 3.5 -126.167 10.5 -226.5s10.5 -175.5 10.5 -225.5
c0 -49.333 -37 -80.333 -111 -93c-24.667 -4 -80.667 -6 -168 -6c-168 0 -252 33.667 -252 101c0 31.333 59.667 53 179 65c49.333 4 123.666 9.33301 222.999 16l2 33c2.66699 32.667 -1.16602 80.834 -11.499 144.501s-15.5 109.834 -15.5 138.501c0 216 9 374.333 27 475
c2.66699 15.333 16.334 67.333 41.001 156c18 64 26.667 116.333 26 157c-20.667 12 -57.334 18.333 -110.001 19c-35.333 0 -87.5 -3.83301 -156.5 -11.5s-121.167 -11.5 -156.5 -11.5c-45.333 0 -72.666 50.667 -81.999 152z" />
    <glyph glyph-name="asciicircum" unicode="^" horiz-adv-x="1019" 
d="M141 463c0 49.333 78.668 174.336 236.001 375.003c10.667 15.333 113.667 140.666 309 375.999c19.333 -6.66699 49.333 -14.667 90 -24c0 -18 3.83301 -44.333 11.5 -79s11.5 -61 11.5 -79c0 -39.333 -5.5 -98 -16.5 -176s-16.5 -136.667 -16.5 -176
c0 -84.667 6 -148.334 18 -191.001l25 -61c9.33301 -24.667 14 -46.667 14 -66c0 -48 -14.333 -71.667 -43 -71c-34 0 -68 58.667 -102 176c-16.667 54.667 -26.334 112.667 -29.001 174c1.33301 -16.667 2 41.333 2 174c0 15.333 -0.666992 52.333 -2 111l-18 20
c-10.667 -30 -50.334 -91.333 -119.001 -184l-158 -221c-87.333 -122.667 -136.333 -184.334 -147 -185.001c-15.333 0 -30.166 13.667 -44.499 41s-21.5 49.333 -21.5 66z" />
    <glyph glyph-name="underscore" unicode="_" horiz-adv-x="1255" 
d="M47 -113c0 32.667 9.66699 55.333 29 68c30 19.333 165.667 33 407 41l463 14c18 1.33301 46 7.16602 84 17.499s67.333 15.5 88 15.5c18 0 38.5 -13.167 61.5 -39.5s34.5 -48.5 34.5 -66.5c0 -30 -24.333 -52.667 -73 -68c-34 -10.667 -71 -16 -111 -16
c-53.333 0 -132.833 -3.5 -238.5 -10.5s-185.167 -10.5 -238.5 -10.5c-131.333 0 -234.333 -6.66699 -309 -20c-9.33301 -1.33301 -30 -7.66602 -62 -18.999c-26 -8 -47 -12 -63 -12c-48 0 -72 35.333 -72 106z" />
    <glyph glyph-name="grave" unicode="`" horiz-adv-x="434" 
d="M-25 1849l5.00098 9.00098c24.667 0 72 -9 142 -27s110.667 -33 122 -45c2.66699 -20.667 40.167 -79 112.5 -175s108.5 -155 108.5 -177c0 -20.667 -20.667 -31 -62 -31c-36.667 0 -90.834 32.333 -162.501 97s-107.5 115 -107.5 151c0 9.33301 -26 42.666 -78 99.999
s-78.667 90 -80 98z" />
    <glyph glyph-name="a" unicode="a" horiz-adv-x="1124" 
d="M84 168c0 130 63.168 263.499 189.501 400.499s253.5 205.5 381.5 205.5c46.667 0 91 -29.333 133 -88c39.333 -53.333 59.333 -104.666 60 -153.999c0 -12 -47 -123 -141 -333c22 -12 55.333 -18.333 100 -19c22 0 54.5 6.83301 97.5 20.5s75.167 20.5 96.5 20.5
c23.333 0 47.333 -29.333 72 -88c-1.33301 -44 -44.333 -78.667 -129 -104c-62.667 -19.333 -124 -29 -184 -29c-72.667 -0 -125.334 31.333 -158.001 94c-10.667 22 -21.667 33.667 -33 35c-34 -22 -90.667 -48 -170 -78c-83.333 -32.667 -141.333 -49 -174 -49
c-42 0 -76.667 17.667 -104 53c-24.667 31.333 -37 69 -37 113zM223.001 181.999c24.667 -5.33301 48.667 -8 72 -8c114.667 0 221.667 75 321 225l111 170c-44 26 -83.667 39 -119 39c-54.667 0 -129.667 -57.333 -225 -172c-90 -108 -143.333 -192.667 -160 -254z" />
    <glyph glyph-name="b" unicode="b" horiz-adv-x="944" 
d="M84 -4c0 65.333 60 269.999 180 613.999s202 550.333 246 619c52 -27.333 78 -56.666 78 -87.999c0 -16.667 -26 -102.667 -78 -258c-48 -143.333 -80.667 -237 -98 -281v-31c31.333 1.33301 77 16.833 137 46.5s107 44.5 141 44.5c42 0 78.333 -30.333 109 -91
c26 -50 39 -98.333 39 -145c0 -116 -47.167 -215.667 -141.5 -299s-200.166 -125 -317.499 -125c-32.667 0 -60.334 10.667 -83.001 32s-34 48.333 -34 81c0 6.66699 0.666992 14 2 22c-19.333 -48 -35 -85.333 -47 -112c-26 -58.667 -47 -88 -63 -88
c-13.333 0 -28.333 6.33301 -45 19s-25 26 -25 40zM319 235.999c13.333 -2.66699 31.5 -16.332 54.5 -40.999s42.5 -37 58.5 -37c50.667 0 111.167 25.5 181.5 76.5s105.5 100.5 105.5 148.5c0 24.667 -5.66699 48.667 -17 72c-13.333 28.667 -31 43 -53 43
c-46.667 0 -108.667 -33.667 -186 -101c-68 -58.667 -116 -112.334 -144 -161.001z" />
    <glyph glyph-name="c" unicode="c" horiz-adv-x="735" 
d="M119 281c0 88.667 18.999 166.334 56.999 233.001c22 38 71.333 100.667 148 188c1.33301 0 40 20 116 60c50.667 26 90.334 39 119.001 39c91.333 -0.666992 137 -61.667 137 -183c0 -16.667 -1.33301 -33 -4 -49c-20.667 -12 -50 -31.667 -88 -59
c-10.667 10.667 -16 23.667 -16 39c0 13.333 4 36.333 12 69l-10 9c-54.667 0 -127 -46.167 -217 -138.5s-135 -165.833 -135 -220.5c0 -77.333 132.333 -116 397 -116h20l2 -15c0.666992 -4.66699 1 -9.33398 1 -14.001c0 -42.667 -28.333 -77 -85 -103
c-46.667 -21.333 -96.667 -32 -150 -32h-5c-88.667 0 -160.667 26.5 -216 79.5s-83 124.167 -83 213.5z" />
    <glyph glyph-name="d" unicode="d" horiz-adv-x="1359" 
d="M135 182c0 94 45 203.335 135 328.002c95.333 132.667 188.333 199 279 199c69.333 0 120.333 -51.333 153 -154c-13.333 -13.333 -26.666 -20 -39.999 -20c-6.66699 0 -17 2.66699 -31 8s-24.333 8 -31 8c-52 0 -120.667 -47.5 -206 -142.5s-128 -169.167 -128 -222.5
v-51h43c112 54.667 195.333 108 250 160s113.334 132.667 176.001 242c13.333 23.333 38.666 65 75.999 125l123 274c54.667 120 105.667 202 153 246c44 -13.333 66 -47 66 -101c0 -20.667 -43.333 -121.334 -130 -302.001s-130 -314.667 -130 -402
c0 -131.333 17.667 -197 53 -197c57.333 0 129.666 3.33301 216.999 10c10 -28.667 15 -56.667 15 -84c0 -26 -21.333 -48.333 -64 -67c-35.333 -16.667 -68 -25 -98 -25c-122.667 0 -209.334 93 -260.001 279c-57.333 -64 -125.666 -130.333 -204.999 -199
c-108 -91.333 -185.333 -137 -232 -137c-54.667 0 -99.667 24.667 -135 74c-32.667 45.333 -49 95.666 -49 150.999z" />
    <glyph glyph-name="e" unicode="e" horiz-adv-x="980" 
d="M113 291c0 138 74.333 260.668 223 368.001c136.667 100 276.667 150 420 150c31.333 0 56.333 -28 75 -84c15.333 -44 23 -85.667 23 -125c0 -90 -34.667 -162.333 -104 -217c-46.667 -35.333 -124.667 -71 -234 -107c-122.667 -39.333 -201.667 -69.333 -237 -90
c39.333 -28.667 107.333 -43 204 -43c23.333 0 56.833 7.83301 100.5 23.5s77.167 23.5 100.5 23.5c13.333 0 29.333 -14.667 48 -44s28 -51.333 28 -66c0 -38 -36.333 -67.333 -109 -88c-53.333 -15.333 -105 -23 -155 -23c-108 0 -197 26 -267 78
c-78 57.333 -116.667 138.666 -116 243.999zM291 334.001l255.998 108.001c94 50.667 157.333 113.667 190 189h-51c-57.333 0 -131.666 -36.333 -222.999 -109c-83.333 -66.667 -140.666 -129.334 -171.999 -188.001z" />
    <glyph glyph-name="f" unicode="f" horiz-adv-x="1001" 
d="M-61 442c0 54.667 27.0039 95.0029 81.0039 121.003c27.333 12 80 26.333 158 43c50.667 9.33301 83.167 20.166 97.5 32.499s28.166 41.166 41.499 86.499c6.66699 23.333 15 48.666 25 75.999c40.667 128.667 113 256.334 217 383.001c118.667 146 236.667 219 354 219
c45.333 0 83.666 -22.667 114.999 -68c28.667 -39.333 43 -83 43 -131c0 -105.333 -8 -171.333 -24 -198c-19.333 -32.667 -76 -66.334 -170 -101.001c-12 13.333 -25.667 22.333 -41 27l75 72c31.333 28.667 47 58 47 88c0 90 -7.33301 135 -22 135
c-118.667 0 -262.667 -147 -432 -441c-6.66699 -12 -14.834 -20.333 -24.501 -25s-17.167 -11.334 -22.5 -20.001v-41c32.667 2.66699 98.667 12.334 198 29.001c84.667 13.333 151.667 20.333 201 21c18 0 38.5 -15.167 61.5 -45.5s34.5 -54.833 34.5 -73.5l-2 -8
c-6.66699 -27.333 -40.667 -45.333 -102 -54l-125 -12c-116 -13.333 -228 -42.666 -336 -87.999c-4 -20.667 -11.333 -51.334 -22 -92.001c-1.33301 -10.667 -2.33301 -73.667 -3 -189c0 -159.333 -22.667 -239 -68 -239h-1c-24.667 0 -43 8.66699 -55 26
c-40.667 126.667 -61.334 212 -62.001 256l51 -24c13.333 13.333 20.333 55 21 125v57c0 8 -0.666992 19 -2 33v22c-39.333 -6.66699 -112.333 -38.667 -219 -96h-4c-56 0 -84 31.333 -84 94z" />
    <glyph glyph-name="g" unicode="g" horiz-adv-x="786" 
d="M84 -260c0 52 31.3311 101.669 93.998 149.002c58.667 45.333 115.334 68 170.001 68c8 0 25 -4.66699 51 -14v-41c-22 -30 -83.333 -85.333 -184 -166l-14 -53c66.667 -52 121.334 -78 164.001 -78c68 0 128 26.5 180 79.5s78 114.5 78 184.5
c0 57.333 -12.333 117.666 -37 180.999s-56 114.333 -94 153c-19.333 19.333 -59 48.666 -119 87.999c-54.667 36.667 -89.667 66 -105 88c-20 29.333 -30 72 -30 128v5c0 90 42.333 160.333 127 211c70.667 42 154.334 63 251.001 63c20.667 0 46.334 -17 77.001 -51
s46 -61.333 46 -82c0 -8 -2 -20.5 -6 -37.5s-6 -29.5 -6 -37.5c-20.667 -4 -39 -6.33301 -55 -7c-16.667 0 -32.834 6.83301 -48.501 20.5s-29.5 20.5 -41.5 20.5c-23.333 0 -61.333 -12.167 -114 -36.5s-87 -45.5 -103 -63.5c136.667 -118.667 230 -226 280 -322
c57.333 -109.333 86 -248.333 86 -417c0 -30 -10.333 -65.667 -31 -107c-28.667 -58.667 -44.334 -92.667 -47.001 -102c-106.667 -74 -189 -111 -247 -111c-214.667 0 -322 95.667 -322 287z" />
    <glyph glyph-name="h" unicode="h" horiz-adv-x="1118" 
d="M111 90c0 72.667 31.333 155.999 94 249.999c92.667 139.333 142.334 215.666 149.001 228.999l140 357c76.667 192 127 288 151 288c13.333 0 26.166 -12.5 38.499 -37.5s18.5 -45.833 18.5 -62.5c0 -45.333 -48.333 -187.333 -145 -426
c22 1.33301 57.667 8.33301 107 21c45.333 12 80.666 18 105.999 18c75.333 0 133.333 -39.667 174 -119c32.667 -62.667 49 -135 49 -217c0 -50.667 -12.333 -125 -37 -223c-28.667 -117.333 -58 -176 -88 -176c-32.667 0 -49 29.333 -49 88c0 39.333 9.66699 98 29 176
s29 136.667 29 176c0 32.667 -11.667 62.334 -35 89.001s-51.333 40 -84 40c-100 0 -203 -64.667 -309 -194c-45.333 -56 -116.333 -165.333 -213 -328l-17 -12c-44 4 -68.667 7.33301 -74 10c-23.333 6.66699 -34.666 24.334 -33.999 53.001z" />
    <glyph glyph-name="i" unicode="i" horiz-adv-x="407" 
d="M8 113c0 88.667 20 193 60 313l106 305c42.667 -6.66699 64 -50.334 64 -131.001c0 -72.667 -18.167 -177.167 -54.5 -313.5s-72.833 -233.166 -109.5 -290.499h-41c-16.667 28.667 -25 67.667 -25 117zM242 969c0 23.333 8.50098 57.167 25.501 101.5
s34.167 68.5 51.5 72.5c48 -32 72 -79.333 72 -142c0 -58.667 -20.333 -88 -61 -88c-24.667 0 -53.334 14.333 -86.001 43z" />
    <glyph glyph-name="j" unicode="j" horiz-adv-x="659" 
d="M-27 -420c0 74 64.333 248.667 193 524c24.667 53.333 48.667 117.666 72 192.999l59 197c2.66699 22 8.5 55.5 17.5 100.5s27.167 67.5 54.5 67.5c28.667 0 55.334 -20.667 80.001 -62c21.333 -35.333 32 -68.666 32 -99.999c0 -42 -54.5 -207.5 -163.5 -496.5
s-175.833 -443.833 -200.5 -464.5c-28.667 -24.667 -52.667 -37 -72 -37c-16.667 0 -32.834 9 -48.501 27s-23.5 35 -23.5 51zM506 1026c0 54.667 19 82 57 82c34 0 66.5 -17.5 97.5 -52.5s46.5 -70.167 46.5 -105.5c0 -50.667 -25.333 -76 -76 -76
c-38 0 -68.333 15.833 -91 47.5s-34 66.5 -34 104.5z" />
    <glyph glyph-name="k" unicode="k" horiz-adv-x="960" 
d="M-49 70c0 5.33301 27.332 41.5 81.999 108.5s82 111.833 82 134.5c0 18 -11 52.333 -33 103c8 1.33301 30.667 3.33301 68 6c24.667 1.33301 45.667 8.66602 63 21.999c50.667 36.667 121.667 164.334 213 383.001c110.667 262 177 411 199 447c60 -56 90 -101 90 -135
c0 -22 -33.833 -117.667 -101.5 -287s-111.167 -269 -130.5 -299v-10l9 -17c18 9.33301 98.333 60.666 241 153.999c134 86 205 129 213 129c12 0 28.667 -12.333 50 -37s32 -43.667 32 -57c0 -49.333 -77.667 -117.666 -233 -204.999c-22 -12 -126 -64.667 -312 -158
l197 -137c75.333 -57.333 113 -123.666 113 -198.999c0 -20.667 -13.667 -38.334 -41 -53.001l-74 31l-2 67c-147.333 98 -279.666 158.333 -396.999 181c-65.333 -91.333 -148.666 -196 -249.999 -314c-16.667 15.333 -33.834 38 -51.501 68s-26.5 54.667 -26.5 74z" />
    <glyph glyph-name="l" unicode="l" horiz-adv-x="505" 
d="M193 594c122.667 296 209.333 498.666 260 607.999c58.667 -48 88 -91.667 88 -131c0 -44 -70.333 -229.667 -211 -557c-135.333 -315.333 -225 -508.666 -269 -579.999c-52.667 6.66699 -79 41.667 -79 105c0 30 70.333 215 211 555z" />
    <glyph glyph-name="m" unicode="m" horiz-adv-x="1374" 
d="M137 131c0 22 38.998 128.496 116.998 319.496s127 301.5 147 331.5c36.667 -19.333 65.334 -46.666 86.001 -81.999c101.333 52 158 78 170 78c31.333 0 78 -54 140 -162l129 82c66.667 40.667 107.667 61.334 123 62.001c84.667 0 127 -94.333 127 -283
c0 -69.333 -8.33301 -154.666 -25 -255.999c-19.333 -121.333 -43.333 -200.333 -72 -237c-60 42 -90 89.667 -90 143c0 38 6.5 95 19.5 171s19.5 133 19.5 171c0 13.333 -1.33301 34.333 -4 63l-10 15c-30 -2.66699 -92.333 -84 -187 -244l-176 -305
c-16.667 1.33301 -35.667 23 -57 65c-20.667 38 -31 67.667 -31 89c0 34 9.16699 106.333 27.5 217s33.166 179.334 44.499 206.001l-19 7c-35.333 0 -123.333 -134 -264 -402c-12 -24.667 -31.333 -62.167 -58 -112.5s-55.667 -75.5 -87 -75.5
c-13.333 0 -27.666 4.66699 -42.999 14c-1.33301 12 -6.16602 31.667 -14.499 59s-12.5 49.333 -12.5 66z" />
    <glyph glyph-name="n" unicode="n" horiz-adv-x="1073" 
d="M131 147c0 18 16.998 78.999 50.998 182.999c31.333 96.667 54 160 68 190c-8 13.333 -12 29 -12 47l2 21c39.333 35.333 64.333 58.333 75 69c28.667 27.333 50.667 54 66 80c19.333 -6.66699 51.333 -34 96 -82c110.667 62.667 191.334 94.334 242.001 95.001
c38 0 77.667 -33.667 119 -101c38 -60 57 -111 57 -153c0 -54.667 -15.667 -140.667 -47 -258c-35.333 -132.667 -69.666 -206 -102.999 -220c-39.333 54.667 -59 115 -59 181c0 38 11.333 93.167 34 165.5s34 127.5 34 165.5c0 28.667 -15.667 43 -47 43
c-110.667 0 -261.667 -191.667 -453 -575c-10.667 -6.66699 -21.667 -10 -33 -10c-26 0 -47.667 21 -65 63c-16.667 34 -25 66 -25 96z" />
    <glyph glyph-name="o" unicode="o" horiz-adv-x="899" 
d="M113 487c0 32.667 23.168 78.5 69.501 137.5s85.166 89.833 116.499 92.5c36.667 16.667 75.667 33 117 49c56 23.333 92 35 108 35c69.333 0 131 -34.333 185 -103c47.333 -62 71 -129.333 71 -202c0 -106.667 -57.667 -215 -173 -325s-226.333 -165 -333 -165
c-107.333 0 -161 158.333 -161 475v6zM258.001 186c96.667 0 186 30 268 90c90.667 67.333 136 147.333 136 240c0 65.333 -31.667 98 -95 98c-38 0 -84.333 -14.333 -139 -43c-4 -8 -15.167 -18.5 -33.5 -31.5s-30.5 -22.833 -36.5 -29.5
c-24.667 -35.333 -58 -143.333 -100 -324z" />
    <glyph glyph-name="p" unicode="p" horiz-adv-x="1243" 
d="M121 -455l187.998 342.001c87.333 162.667 131 285 131 367c0 13.333 -1.33301 26.333 -4 39c16.667 -6.66699 28.334 -10 35.001 -10c8 0 19 31.333 33 94l24 117c48 196 145.667 294 293 294h2c95.333 0 178 -55 248 -165c62.667 -99.333 94 -199 94 -299
c0 -199.333 -155 -299 -465 -299c-30 0 -76.333 15.667 -139 47c-19.333 -32.667 -128.666 -248.334 -327.999 -647.001c-38 19.333 -57 46.333 -57 81c0 5.33301 1.33301 11 4 17zM624.998 215.001c86 -9.33301 126.998 -13.998 122.998 -13.998c52 0 114 17.667 186 53
c83.333 40.667 125 83.667 125 129c0 57.333 -25.667 107.5 -77 150.5s-105.666 64.5 -162.999 64.5c-65.333 0 -117.666 -29.333 -156.999 -88c12 -40.667 18 -75.334 18 -104.001c0 -23.333 -9.16699 -54.833 -27.5 -94.5s-27.5 -71.834 -27.5 -96.501z" />
    <glyph glyph-name="q" unicode="q" horiz-adv-x="915" 
d="M94 -621c0 60 18.6709 120.332 56.0039 180.999c24.667 39.333 64.667 89.666 120 150.999c62.667 69.333 105 118.666 127 147.999c50.667 70.667 105.334 152.334 164.001 245.001c-16.667 -1.33301 -44.334 -6 -83.001 -14s-68.334 -12 -89.001 -12
c-144.667 0 -217 86 -217 258c0 75.333 60 161.333 180 258c114.667 95.333 211 143 289 143c30 0 68.833 -17.667 116.5 -53s71.5 -66.666 71.5 -93.999v-111c-20.667 -9.33301 -34.334 -14 -41.001 -14s-24.667 18 -54 54s-58.333 54 -87 54
c-50.667 0 -114.667 -32.667 -192 -98c-69.333 -60 -117.333 -116.667 -144 -170v-43c12 -16.667 30.667 -24.667 56 -24c45.333 0 110 23.667 194 71c75.333 42 133.333 82.333 174 121c13.333 -5.33301 32.333 -24.666 57 -57.999s37 -57 37 -71
c0 -44 -18.333 -85.667 -55 -125c-46.667 -50.667 -74 -86 -82 -106c-13.333 -36.667 -36.333 -72.334 -69 -107.001c-5.33301 -5.33301 -37 -34.666 -95 -87.999v-29c12 4 24.333 6.33301 37 7c53.333 0 115.833 -34.167 187.5 -102.5s107.5 -129.166 107.5 -182.499
c0 -83.333 -30 -153 -90 -209c-9.33301 -2.66699 -35.333 -25.334 -78 -68.001c-50.667 -50.667 -92.334 -88 -125.001 -112c-54.667 -39.333 -104.334 -59.333 -149.001 -60c-104 0 -172.333 11 -205 33s-66 80 -100 174zM223.004 -651.001
c0 -24.667 12.333 -45.5 37 -62.5s50 -25.5 76 -25.5c90 0 172.667 25 248 75c86 56 129 127 129 213c0 66.667 -18.667 112 -56 136c-22 13.333 -58.667 22 -110 26c-45.333 2.66699 -72.666 13 -81.999 31c-9.33301 -38 -35.333 -77.667 -78 -119
c-61.333 -60 -97.333 -97.333 -108 -112c-36.667 -49.333 -55.334 -103.333 -56.001 -162z" />
    <glyph glyph-name="r" unicode="r" horiz-adv-x="712" 
d="M-29 37c0 74 7.00098 176.999 21.001 308.999c15.333 148.667 24.666 251.667 27.999 309c15.333 4 28.333 6.33301 39 7c15.333 0 39.333 -21.333 72 -64c92.667 76.667 159 127.334 199 152.001c78 48.667 154.667 73 230 73h3c31.333 0 71 -12.333 119 -37
c54.667 -26.667 82 -53.667 82 -81c0 -35.333 -21.333 -53.333 -64 -54c-8 0 -19.833 1 -35.5 3s-27.5 3 -35.5 3c-136.667 0 -259 -72.333 -367 -217c-100 -134 -151 -270.333 -153 -409c-19.333 -20.667 -38 -31 -56 -31c-8 -0 -35.333 12.333 -82 37z" />
    <glyph glyph-name="s" unicode="s" horiz-adv-x="794" 
d="M109 545c0 75.333 42.332 139.332 126.999 191.999c75.333 46.667 152.333 70 231 70c114.667 0 172 -48.333 172 -145c0 -19.333 -7.16699 -39 -21.5 -59s-31.166 -30 -50.499 -30c-5.33301 0 -17.166 10 -35.499 30s-35.833 30 -52.5 30c-57.333 0 -118 -22 -182 -66
c34 -31.333 91.667 -65.333 173 -102s138.333 -68.667 171 -96c53.333 -45.333 80 -102.666 80 -171.999c0 -76.667 -43 -141 -129 -193c-74 -44.667 -151.333 -67 -232 -67h-4c-50.667 0 -116.667 28.667 -198 86v149c24.667 0 60.5 -9.5 107.5 -28.5
s82.833 -28.5 107.5 -28.5c35.333 0 83.666 10 144.999 30c72.667 23.333 109 48 109 74c0 22 -42.333 59.667 -127 113c-30 19.333 -83.333 34 -160 44s-129.334 22.667 -158.001 38c-49.333 26 -73.666 69.667 -72.999 131z" />
    <glyph glyph-name="t" unicode="t" horiz-adv-x="940" 
d="M20 377l-0.000976562 114.998c96.667 53.333 189 88 277 104c32.667 2.66699 53 4.66699 61 6c24.667 4 42.667 11.667 54 23c32.667 32.667 75.667 119.334 129 260.001c74 199.333 119.667 317.333 137 354c54.667 118.667 105.667 178 153 178h1
c26.667 0 40 -23 40 -69v-15c0 -35.333 -15 -75.666 -45 -120.999c-23.333 -34 -47 -70.667 -71 -110c-38 -104 -94 -242 -168 -414c-1.33301 -19.333 12.334 -29 41.001 -29c9.33301 0 24.333 2.16699 45 6.5s35.667 6.5 45 6.5c80.667 0 123.667 -51.333 129 -154
c-19.333 -5.33301 -79.333 -15.666 -180 -30.999c-80.667 -12 -136 -27 -166 -45c-23.333 -13.333 -44 -50 -62 -110c-27.333 -90 -41 -144.667 -41 -164c0 -16.667 7.83301 -40.334 23.5 -71.001s23.5 -54 23.5 -70c0 -12 -10.833 -26 -32.5 -42s-38.834 -24 -51.501 -24
c-54 0 -81 78.667 -81 236v6c0 87.333 7.33301 146 22 176c-12 6.66699 -25.667 10 -41 10c-18 0 -44.667 -5.16699 -80 -15.5s-62 -15.5 -80 -15.5c-27.333 0 -54.666 6.33301 -81.999 19z" />
    <glyph glyph-name="u" unicode="u" horiz-adv-x="843" 
d="M49 233c0 267.333 9.66699 433.335 29 498.002c4 12 16.167 25.667 36.5 41s32.833 26.333 37.5 33h53c19.333 -22 29.666 -50.667 30.999 -86c0 6 -0.333008 9 -1 9s-1.33398 -33.667 -2.00098 -101c0 -35.333 1.5 -87.833 4.5 -157.5s4.5 -122.5 4.5 -158.5
c0 -36.667 -3 -65.334 -9 -86.001c6.66699 -5.33301 16.334 -8 29.001 -8h55c50.667 0 123.334 82.667 218.001 248c18 30 73 139.333 165 328c27.333 -16.667 53.333 -59.667 78 -129c-1.33301 -15.333 -10.666 -41.333 -27.999 -78l-39 -82
c-36.667 -106.667 -91.334 -206.334 -164.001 -299.001c-92.667 -118.667 -182 -178 -268 -178c-57.333 0 -110 20 -158 60s-72 88.667 -72 146z" />
    <glyph glyph-name="v" unicode="v" horiz-adv-x="702" 
d="M49 653c0 50.667 13.668 87.6709 41.001 111.004c44 -36.667 74 -88.667 90 -156c5.33301 -22 13.666 -84.667 24.999 -188c8 -76.667 24.333 -135.334 49 -176.001c157.333 288 290.333 496 399 624v-16c0 -10.667 3.66699 -21 11 -31c8 13.333 17.333 21 28 23v-76
c0 -40.667 -36.667 -114.334 -110 -221.001c-38 -54.667 -81 -143.834 -129 -267.501s-90.333 -212.834 -127 -267.501c-18 -26 -36 -39 -54 -39c-56 0 -109 99.667 -159 299c-42 165.333 -63.333 292.333 -64 381z" />
    <glyph glyph-name="w" unicode="w" horiz-adv-x="1345" 
d="M121 109c0 76.667 23.0029 187.001 69.0029 331.001l111 334h41c42 -40.667 63.333 -96 64 -166c0 -44 -9 -99.333 -27 -166c-23.333 -87.333 -37 -141 -41 -161c45.333 38 94.333 95.333 147 172c69.333 100 113.666 160.667 132.999 182c45.333 -34 68 -81.667 68 -143
c0 -35.333 -7.33301 -80 -22 -134c-20.667 -72.667 -32.334 -117 -35.001 -133c39.333 -35.333 90.333 -53 153 -53c106.667 0 188 56.667 244 170c45.333 90 68 193.667 68 311c0 18 -5.16699 43.667 -15.5 77s-15.5 57.666 -15.5 72.999c0 36.667 19 74 57 112
c35.333 -32.667 56.666 -53.667 63.999 -63c17.333 -24.667 26 -52.667 26 -84c0 -217.333 -9.33301 -370.333 -28 -459c-18 -82 -67.333 -155 -148 -219s-162.667 -96 -246 -96h-69c-113.333 0 -189 83.333 -227 250l-148 -150c-65.333 -66.667 -120 -100 -164 -100
c-39.333 0 -59 38.333 -59 115z" />
    <glyph glyph-name="x" unicode="x" horiz-adv-x="860" 
d="M14 78c0 34 59.667 101.667 179 203c-79.333 124 -119 274.667 -119 452c0 60 12.333 90 37 90c36.667 0 64.667 -59.333 84 -178c22 -139.333 47 -224 75 -254c285.333 346.667 445.333 520 480 520c20.667 0 39.334 -13.833 56.001 -41.5s25 -52.5 25 -74.5
c0 -12 -66 -92 -198 -240l-240 -264l248 -199v-43h-98c-10.667 0 -30.167 11.333 -58.5 34s-48.5 34.667 -60.5 36l-10 -6l8 -11l-10 -6c-10.667 1.33301 -29.167 13.333 -55.5 36s-45.5 34 -57.5 34l-85 -94c-56.667 -63.333 -99.334 -95 -128.001 -95
c-22 0 -39.5 11 -52.5 33s-19.5 44.667 -19.5 68z" />
    <glyph glyph-name="y" unicode="y" horiz-adv-x="831" 
d="M59 412c0 60 7.66504 122.672 22.998 188.005c22 94 52 141 90 141c13.333 0 29.333 -17.333 48 -52s28 -60.334 28 -77.001c0 -30 -9.66699 -73.667 -29 -131s-29 -101 -29 -131c0 -83.333 59 -125 177 -125l170 305c94 164 154.667 246 182 246
c20.667 0 37.834 -9.16699 51.501 -27.5s20.5 -38.5 20.5 -60.5c0 -13.333 -35.5 -80.5 -106.5 -201.5s-106.5 -188.167 -106.5 -201.5c0 -6.66699 7.83301 -12.834 23.5 -18.501s23.5 -13.167 23.5 -22.5c0 -10.667 -9.66699 -24.334 -29 -41.001
c-9.33301 -6.66699 -23 -17.667 -41 -33c-44 -39.333 -81.667 -105.666 -113 -198.999c-18 -50.667 -38.333 -131.667 -61 -243c-22 -106.667 -42.667 -187.334 -62 -242.001c-15.333 -40.667 -41 -61 -77 -61c-38 0 -57.333 47 -58 141c0 38 14.333 119.333 43 244
c28.667 120 51.334 201 68.001 243c-92.667 35.333 -155.167 78.666 -187.5 129.999s-48.5 127.666 -48.5 228.999z" />
    <glyph glyph-name="z" unicode="z" horiz-adv-x="993" 
d="M90 98c0 49.333 38.334 105.334 115.001 168.001l217 166c79.333 61.333 121 110.666 125 147.999c-121.333 -58.667 -203.333 -88 -246 -88c-78 0 -117 60 -117 180c23.333 30 117 59.333 281 88c142 24.667 246.333 37 313 37c16.667 0 35.5 -15.333 56.5 -46
s31.5 -55 31.5 -73c0 -28.667 -81.667 -108.667 -245 -240l-308 -243c18 -2.66699 37.333 -4.33398 58 -5.00098c30 0 75.333 4.16699 136 12.5s106 12.5 136 12.5h152l-15 -55l-12 10c-15.333 -1.33301 -40.666 -16.333 -75.999 -45
c-40.667 -34 -67.167 -54.167 -79.5 -60.5s-80.333 -23.166 -204 -50.499s-194.834 -41 -213.501 -41c-32.667 0 -58.334 12.333 -77.001 37s-28 54 -28 88z" />
    <glyph glyph-name="braceleft" unicode="{" horiz-adv-x="655" 
d="M37 143c0 45.333 32.667 95.998 98 151.998l152 123c-20.667 0 -51.334 7.33301 -92.001 22c-10.667 6.66699 -35.334 51 -74.001 133c70.667 31.333 154 71 250 119c-166.667 80.667 -250 179.667 -250 297c0 76.667 45.667 144.334 137 203.001
c82 52 163.333 78 244 78c31.333 0 66.833 -18.5 106.5 -55.5s59.5 -70.5 59.5 -100.5c0 6.66699 -5 -8.33301 -15 -45c-15.333 -5.33301 -28.333 -8 -39 -8c-5.33301 0 -16.5 8.83301 -33.5 26.5s-43.167 26.5 -78.5 26.5c-45.333 0 -100.666 -18.333 -165.999 -55
c-72.667 -40.667 -109 -81.667 -109 -123c0 -23.333 26.667 -48 80 -74c84.667 -42 134.667 -68.667 150 -80c53.333 -38 80 -82.333 80 -133c0 -22 -19.333 -46.667 -58 -74l-86 -51c2.66699 -9.33301 13.334 -30.666 32.001 -63.999s28 -57 28 -71
c0 -35.333 -47.5 -87.5 -142.5 -156.5s-142.5 -118.5 -142.5 -148.5c0 -34 37.667 -60.667 113 -80c52 -13.333 103.667 -20 155 -20c30 0 69 23.667 117 71c46.667 -23.333 70 -64.333 70 -123c0 -61.333 -89.667 -92 -269 -92c-76.667 0 -148.667 31.5 -216 94.5
s-101 132.5 -101 208.5z" />
    <glyph glyph-name="bar" unicode="|" horiz-adv-x="411" 
d="M133 739v623.001c13.333 19.333 29 29 47 29c26 0 49.667 -14 71 -42s32 -55.667 32 -83c0 -102.667 -2.16699 -255.667 -6.5 -459s-6.5 -356.333 -6.5 -459c0 -90 3.66699 -165 11 -225c2.66699 -28.667 13.334 -87.334 32.001 -176.001c15.333 -70.667 23 -130 23 -178
c0 -10.667 -1.33301 -25 -4 -43c-5.33301 -22 -8 -36.333 -8 -43c-16.667 -9.33301 -28.334 -14.333 -35.001 -15c-36.667 0 -62.667 41 -78 123c-52 276 -78 592 -78 948z" />
    <glyph glyph-name="braceright" unicode="}" horiz-adv-x="724" 
d="M102 1118c44 40.667 103.665 61.3291 178.998 61.9961c83.333 0 160.333 -22.667 231 -68c80.667 -52 121 -117.667 121 -197c0 -39.333 -27.667 -94.166 -83 -164.499s-102.666 -114.5 -141.999 -132.5c49.333 -27.333 76.333 -43 81 -47
c32.667 -23.333 49.334 -47.666 50.001 -72.999c0 -20.667 -21.333 -41.334 -64 -62.001l-90 -41l164 -170c62.667 -67.333 94 -135.666 94 -204.999c0 -66.667 -35.333 -122.334 -106 -167.001c-62.667 -40.667 -129 -61.334 -199 -62.001c-54.667 0 -88 8.33301 -100 25
c-28.667 36.667 -46 56.334 -52 59.001v78c5.33301 1.33301 49.666 2 132.999 2c36.667 0 77 12.333 121 37c49.333 27.333 74 58 74 92c0 16.667 -28.667 51.334 -86 104.001c-72.667 66.667 -126 124.667 -160 174c-58.667 84.667 -90 176.334 -94 275.001l195 145
c78 62.667 123 126.334 135 191.001c-16.667 8 -46.834 18.833 -90.501 32.5s-72.834 20.5 -87.501 20.5c-19.333 0 -45.666 -7.83301 -78.999 -23.5s-59.666 -23.5 -78.999 -23.5c-13.333 0 -27.666 19.667 -42.999 59c-12 31.333 -19.667 58 -23 80z" />
    <glyph glyph-name="asciitilde" unicode="~" horiz-adv-x="1171" 
d="M106 438c0 38 48.6699 84.6689 146.003 140.002c91.333 52 158.333 77.667 201 77c9.33301 0 53.166 -21.5 131.499 -64.5s147.166 -64.5 206.499 -64.5c70.667 0 139.5 17.167 206.5 51.5s119.5 80.166 157.5 137.499c42.667 -58.667 64 -96.334 64 -113.001
c0 -48 -51.333 -99 -154 -153c-92.667 -49.333 -166.334 -74 -221.001 -74h-99c-18 0 -66.167 19.5 -144.5 58.5s-125.5 58.5 -141.5 58.5c-74 0 -149.333 -37.667 -226 -113c-26 -26 -41 -39 -45 -39c-16.667 0 -34.5 12.333 -53.5 37s-28.5 45 -28.5 61z" />
    <glyph glyph-name="uni00A0" unicode="&#xa0;" horiz-adv-x="536" 
 />
    <glyph glyph-name="exclamdown" unicode="&#xa1;" horiz-adv-x="733" 
d="M-39 -16c0 20.667 61.333 109.333 184 266l228 291l94 159c38 62.667 79 108 123 136h39c10.667 -10 16 -26 16 -48c0 -65.333 -89 -234.5 -267 -507.5s-289.667 -409.5 -335 -409.5c-13.333 0 -30.333 15 -51 45s-31 52.667 -31 68zM598 1165
c0 54.667 24.6689 82 74.002 82c35.333 0 63.166 -15 83.499 -45s30.5 -63.333 30.5 -100c0 -6.66699 -2.33301 -17.167 -7 -31.5s-7 -25.166 -7 -32.499c-5.33301 0 -13.5 -2.33301 -24.5 -7s-19.833 -7 -26.5 -7c-16.667 0 -41.334 19.167 -74.001 57.5
s-49 66.166 -49 83.499z" />
    <glyph glyph-name="cent" unicode="&#xa2;" horiz-adv-x="1204" 
d="M53 20c0 24.667 13.665 52.6689 40.998 84.002c36.667 42 57.334 67.333 62.001 76c-68 87.333 -102.333 183.666 -103 288.999c0 135.333 49.333 267 148 395c83.333 108 191 203 323 285l135 92c50.667 32.667 102 47.667 154 45l172 293c20.667 -12 31 -34 31 -66
c0 -122.667 -22.667 -223.667 -68 -303c42 -44 64 -85 66 -123l-133 21l-539 -930c31.333 -20.667 64 -33 98 -37c10.667 -1.33301 46.334 -2 107.001 -2c190 0 315.667 20.667 377 62c24.667 16.667 41.667 46 51 88c8 34 24.333 51 49 51c18 0 42.333 -15 73 -45
s46 -54 46 -72c0 -76.667 -84.667 -138 -254 -184c-124 -34 -240.667 -51 -350 -51c-91.333 0 -178 27.333 -260 82c-12 -24.667 -31.5 -59.834 -58.5 -105.501s-55.5 -68.5 -85.5 -68.5c-18 0 -36.167 15.667 -54.5 47s-27.5 57 -27.5 77zM202.998 399.002
c0 -31.333 8.66602 -63.334 25.999 -96.001l451 762c-109.333 -57.333 -213.666 -151.666 -312.999 -282.999c-109.333 -143.333 -164 -271 -164 -383z" />
    <glyph glyph-name="brokenbar" unicode="&#xa6;" horiz-adv-x="1861" 
d="M-35 215c0 23.333 9.66406 39.666 28.9971 48.999c10.667 -1.33301 22.334 -2 35.001 -2c12 0 30 1 54 3s42 3 54 3c18 0 44.667 -7.83301 80 -23.5s62 -23.5 80 -23.5c75.333 0 132 19.333 170 58c34 34 59.333 89 76 165l41 189l-9 65
c-91.333 -95.333 -142.333 -143 -153 -143c-26 0 -50 19 -72 57c-19.333 32.667 -28.666 63.667 -27.999 93c0 31.333 45.667 79 137 143c104 72.667 163.333 119.667 178 141l186 96c96.667 50.667 152 76 166 76c9.33301 0 23 -7.83301 41 -23.5s31.667 -23.5 41 -23.5
c26 0 62.833 10 110.5 30s84.5 30 110.5 30c34 0 75.333 -17.833 124 -53.5s73 -69.167 73 -100.5c0 -57.333 -80 -181.666 -240 -372.999h19c65.333 0 112.333 20.667 141 62h88c12.667 -22 19 -44.667 19 -68c0 -64 -35.667 -120.667 -107 -170
c-64 -46.667 -129.667 -70 -197 -70c-91.333 0 -152.666 43 -183.999 129c-13.333 -12 -40 -66.333 -80 -163c-36.667 -88.667 -61.334 -133.334 -74.001 -134.001h-34c-15.333 0 -32.166 17.5 -50.499 52.5s-27.5 61.5 -27.5 79.5c0 38 27.667 118.833 83 242.5
s83 214.167 83 271.5c0 19.333 -4.33301 34.333 -13 45c-50.667 -27.333 -88.667 -50.666 -114 -69.999c-8 -26 -33.333 -150.333 -76 -373c-32.667 -170.667 -69 -282 -109 -334c-60 -78 -166.333 -116.667 -319 -116c-78 0 -147 12.333 -207 37
c-83.333 34 -125 83 -125 147zM1085 840c0 -15.333 6.33301 -29.667 19 -43c24.667 16 69 65 133 147v37h-59c-61.333 -30 -92.333 -77 -93 -141zM1536 482.999c0 8 4.16797 21.668 12.501 41.001s13.166 33 14.499 41h73c26 0 51 -20.833 75 -62.5s36 -76.834 36 -105.501
c0 -53.333 -32.667 -80 -98 -80c-24.667 0 -49.667 21.167 -75 63.5s-38 76.5 -38 102.5zM1608 858c0 74 15.667 161.33 47 261.997c46.667 150 72 235.333 76 256c92.667 -41.333 139 -96.666 139 -165.999c0 -16.667 -16.333 -85.667 -49 -207s-54 -193.666 -64 -216.999
c-19.333 -45.333 -42.333 -67.666 -69 -66.999c-53.333 0 -80 46.333 -80 139z" />
    <glyph glyph-name="dieresis" unicode="&#xa8;" horiz-adv-x="679" 
d="M43 1536c0 32.667 15.334 61.333 46.001 86s63 37 97 37c40 0 60 -19 60 -57c0 -20.667 -12.333 -43.667 -37 -69s-47.334 -38 -68.001 -38h-86c0 4 -2 10.5 -6 19.5s-6 16.167 -6 21.5zM506.001 1507c0 30 17.332 64.167 51.999 102.5s66.334 57.5 95.001 57.5
c50.667 0 76 -15.667 76 -47c0 -24.667 -14.667 -54.667 -44 -90s-56.333 -53 -81 -53h-84c-9.33301 0 -14 10 -14 30z" />
    <glyph glyph-name="copyright" unicode="&#xa9;" horiz-adv-x="1449" 
d="M92 502c0 178.667 70.667 337.666 212 476.999s301.333 209 480 209c135.333 0 261 -58.667 377 -176s174 -243.666 174 -378.999c0 -186 -77 -346.333 -231 -481c-147.333 -130 -315.333 -195 -504 -195c-146 0 -267.167 54 -363.5 162s-144.5 235.667 -144.5 383z
M221 460.999c0 -39.333 27.998 -74.167 83.998 -104.5s84 -50.166 84 -59.499c-30 -27.333 -66 -47 -108 -59c57.333 -95.333 151.333 -143.333 282 -144c158.667 0 306.334 58 443.001 174c140.667 121.333 211 260.666 211 417.999c0 94 -46.667 176.667 -140 248
c-86 66.667 -177.333 100 -274 100c-147.333 0 -281.166 -59 -401.499 -177s-180.5 -250 -180.5 -396zM480.998 572.998c0 64 23.6689 123 71.002 177s102.333 81 165 81c74.667 0 110.667 -45.667 108 -137c-15.333 -13.333 -42 -26.166 -80 -38.499
s-64.333 -23.833 -79 -34.5c-27.333 -22 -45.333 -55 -54 -99l21 -2c9.33301 0 23.666 2.83301 42.999 8.5s33.666 8.5 42.999 8.5c46.667 0 69.667 -26.667 69 -80c0 -32.667 -11.167 -59 -33.5 -79s-49.833 -30 -82.5 -30c-56 0 -101.833 23.167 -137.5 69.5
s-53.5 98.166 -53.5 155.499z" />
    <glyph glyph-name="uni00AD" unicode="&#xad;" 
d="M111 461c0 10.667 0.666992 19.999 2 27.999c36.667 26 117 52 241 78c112 23.333 198.667 35 260 35c123.333 0 190.333 -42.333 201 -127c-35.333 -10.667 -85 -21 -149 -31c-108 -15.333 -215.333 -39.666 -322 -72.999c-82 -26 -134.667 -39 -158 -39
c-26 0 -45.667 15.667 -59 47c-10.667 24.667 -16 52 -16 82z" />
    <glyph glyph-name="registered" unicode="&#xae;" horiz-adv-x="1826" 
d="M78 451c0 87.333 19.501 182.168 58.501 284.501s87.833 185.5 146.5 249.5c24.667 26 67 56.667 127 92l141 80c121.333 74 195.666 116.333 222.999 127c66.667 26 151.334 39 254.001 39c48 0 104.667 -5.33301 170 -16c75.333 -12 128.666 -28.667 159.999 -50
c19.333 -12 50 -46 92 -102l8 6l-6 13l8 6c27.333 -2.66699 71 -59.334 131 -170.001c53.333 -98 85 -168.333 95 -211c18.667 -88 28 -165.333 28 -232c0 -28.667 -13.333 -91.5 -40 -188.5s-46.667 -154.833 -60 -173.5c-48 -62.667 -157.333 -123.334 -328 -182.001
c-157.333 -53.333 -283.666 -80 -378.999 -80c-258 0 -465.333 44.333 -622 133c-46.667 26 -92.834 81.333 -138.501 166s-68.5 154.334 -68.5 209.001zM197.001 438.002c0 -122.667 83.001 -214.667 249.001 -276c120 -44 256 -66 408 -66
c31.333 0 77.666 2.16699 138.999 6.5s108 6.5 140 6.5c13.333 0 38.5 9.83301 75.5 29.5s62.167 29.5 75.5 29.5c6.66699 0 11.5 -2 14.5 -6s8.5 -6 16.5 -6c9.33301 0 36 21.667 80 65c13.333 13.333 38.166 30 74.499 50s62.333 39.5 78 58.5s33.667 63.333 54 133
s30.5 120.167 30.5 151.5c0 150 -45.667 280.667 -137 392c-98 116 -221 174 -369 174c-154 0 -304.667 -45.333 -452 -136c-158.667 -94 -261.667 -210.667 -309 -350l-15 -12c-1.33301 -27.333 6.33398 -52 23.001 -74l-19 -18c-23.333 19.333 -46.333 63 -69 131
c-58.667 -90 -88 -184.333 -88 -283zM489.002 403.002c0 13.333 50.0039 104.999 150.004 274.999c-20.667 26 -31 52 -31 78c0 53.333 37 97 111 131c61.333 28.667 122 43 182 43c56 0 101.667 -11.667 137 -35c42.667 -27.333 64 -67.666 64 -120.999
c0 -68 -30.667 -124.667 -92 -170l-166 -115c9.33301 -10.667 49.666 -26.334 120.999 -47.001c60 -16.667 90 -37.667 90 -63c0 -16.667 -16.833 -32.5 -50.5 -47.5s-59.834 -22.5 -78.501 -22.5c-42 0 -88 12.333 -138 37c-54.667 26 -89.334 56.667 -104.001 92l-55 -86
c-28.667 -45.333 -49.334 -67.666 -62.001 -66.999c-22 0 -41 15 -57 45c-13.333 24.667 -20.333 49 -21 73zM797.006 639.001c27.333 12 60 34 98 66c48 39.333 78 63 90 71h-65c-45.333 0 -75 -5.33301 -89 -16c-8 -6.66699 -13 -23 -15 -49s-8.33301 -50 -19 -72z" />
    <glyph glyph-name="acute" unicode="&#xb4;" horiz-adv-x="432" 
d="M-25 1389c0 38 32.1641 92.501 96.4971 163.501s114.833 106.5 151.5 106.5c10.667 0 37.334 16 80.001 48s67.334 48 74.001 48l47 -6c0 -36.667 13 -75 39 -115c0 -6.66699 -35 -35.334 -105 -86.001c-19.333 -1.33301 -77.666 -38.5 -174.999 -111.5
s-157 -109.5 -179 -109.5c-19.333 0 -29 20.667 -29 62z" />
    <glyph glyph-name="cedilla" unicode="&#xb8;" horiz-adv-x="436" 
d="M72 55h104v-121c100 -35.333 150 -97.333 150 -186c0 -57.333 -28.667 -101.666 -86 -132.999c-46.667 -24.667 -100.667 -37 -162 -37v62c76.667 1.33301 130 32.666 160 93.999c0 104 -55.333 155.667 -166 155v166z" />
    <glyph glyph-name="questiondown" unicode="&#xbf;" horiz-adv-x="798" 
d="M31 119c0 78 30.668 145.667 92.001 203c40.667 38 107.667 78.667 201 122c104 49.333 172 85.666 204 108.999l-73 72c-13.333 16.667 -20.333 52.667 -21 108c0 9.33301 9.66699 14.333 29 15c136.667 0 205 -76.667 205 -230c0 -10.667 -0.666992 -34.667 -2 -72
c-35.333 -26 -103 -58.667 -203 -98s-169.667 -72.666 -209 -99.999c-69.333 -46.667 -104 -99.334 -104 -158.001c0 -39.333 37.333 -59 112 -59c113.333 0 247.333 66.667 402 200c43.333 -1.33301 65 -58.666 65 -171.999v-14c-56 -46.667 -128.333 -91 -217 -133
c-98 -46.667 -178 -70 -240 -70c-70.667 0 -129.334 29.333 -176.001 88c-44 53.333 -65.667 116.333 -65 189zM268.001 1024c0 28.667 11.3311 53.1641 33.998 73.4971s48.334 30.5 77.001 30.5c60 0 90 -43 90 -129c0 -13.333 -2.33301 -32.666 -7 -57.999
s-7 -44.666 -7 -57.999c-5.33301 0 -14.5 -2.5 -27.5 -7.5s-23.167 -7.5 -30.5 -7.5c-23.333 0 -50.666 19.833 -81.999 59.5s-47 71.834 -47 96.501z" />
    <glyph glyph-name="Agrave" unicode="&#xc0;" horiz-adv-x="1273" 
d="M166 59c0 13.333 22.3359 53.6689 67.0029 121.002l86 129c157.333 250 348 594.667 572 1034c126.667 -50.667 190 -211 190 -481c0 -30 -1.33301 -74.333 -4 -133s-4 -103 -4 -133c0 -10.667 9.83301 -28 29.5 -52s29.5 -41.333 29.5 -52c0 -8 -6 -21.667 -18 -41
l-27 -41c-16.667 -42 -22.667 -132.333 -18 -271l4 -129c-19.333 -4 -37 -6 -53 -6c-56 0 -84 32.667 -84 98c0 23.333 4 58.166 12 104.499s12 81.166 12 104.499c0 39.333 -14.333 59.333 -43 60c-32.667 0 -113.834 -18.167 -243.501 -54.5
s-201.834 -61.833 -216.501 -76.5c-8 -8 -41.667 -60 -101 -156c-48 -78 -86.333 -117 -115 -117c-16.667 0 -33.334 11.333 -50.001 34s-25 42 -25 58zM335.003 1849l5.00098 9.00098c24.667 0 72 -9 142 -27s110.667 -33 122 -45c2.66699 -20.667 40.167 -79 112.5 -175
s108.5 -155 108.5 -177c0 -20.667 -20.667 -31 -62 -31c-36.667 0 -90.834 32.333 -162.501 97s-107.5 115 -107.5 151c0 9.33301 -26 42.666 -78 99.999s-78.667 90 -80 98zM581.004 465.004c83.333 15.333 208.334 42.666 375.001 81.999v362c0 22 -4 53.167 -12 93.5
s-12.667 68.5 -14 84.5c-32.667 -66.667 -92.334 -169.667 -179.001 -309c-82 -131.333 -138.667 -235.666 -170 -312.999z" />
    <glyph glyph-name="Aacute" unicode="&#xc1;" horiz-adv-x="1273" 
d="M166 59c0 13.333 22.3359 53.6689 67.0029 121.002l86 129c157.333 250 348 594.667 572 1034c126.667 -50.667 190 -211 190 -481c0 -30 -1.33301 -74.333 -4 -133s-4 -103 -4 -133c0 -10.667 9.83301 -28 29.5 -52s29.5 -41.333 29.5 -52c0 -8 -6 -21.667 -18 -41
l-27 -41c-16.667 -42 -22.667 -132.333 -18 -271l4 -129c-19.333 -4 -37 -6 -53 -6c-56 0 -84 32.667 -84 98c0 23.333 4 58.166 12 104.499s12 81.166 12 104.499c0 39.333 -14.333 59.333 -43 60c-32.667 0 -113.834 -18.167 -243.501 -54.5
s-201.834 -61.833 -216.501 -76.5c-8 -8 -41.667 -60 -101 -156c-48 -78 -86.333 -117 -115 -117c-16.667 0 -33.334 11.333 -50.001 34s-25 42 -25 58zM475.003 1389c0 38 32.1641 92.501 96.4971 163.501s114.833 106.5 151.5 106.5c10.667 0 37.334 16 80.001 48
s67.334 48 74.001 48l47 -6c0 -36.667 13 -75 39 -115c0 -6.66699 -35 -35.334 -105 -86.001c-19.333 -1.33301 -77.666 -38.5 -174.999 -111.5s-157 -109.5 -179 -109.5c-19.333 0 -29 20.667 -29 62zM581 465.004c83.333 15.333 208.334 42.666 375.001 81.999v362
c0 22 -4 53.167 -12 93.5s-12.667 68.5 -14 84.5c-32.667 -66.667 -92.334 -169.667 -179.001 -309c-82 -131.333 -138.667 -235.666 -170 -312.999z" />
    <glyph glyph-name="Acircumflex" unicode="&#xc2;" horiz-adv-x="1273" 
d="M166 59c0 13.333 22.3359 53.6689 67.0029 121.002l86 129c157.333 250 348 594.667 572 1034c126.667 -50.667 190 -211 190 -481c0 -30 -1.33301 -74.333 -4 -133s-4 -103 -4 -133c0 -10.667 9.83301 -28 29.5 -52s29.5 -41.333 29.5 -52c0 -8 -6 -21.667 -18 -41
l-27 -41c-16.667 -42 -22.667 -132.333 -18 -271l4 -129c-19.333 -4 -37 -6 -53 -6c-56 0 -84 32.667 -84 98c0 23.333 4 58.166 12 104.499s12 81.166 12 104.499c0 39.333 -14.333 59.333 -43 60c-32.667 0 -113.834 -18.167 -243.501 -54.5
s-201.834 -61.833 -216.501 -76.5c-8 -8 -41.667 -60 -101 -156c-48 -78 -86.333 -117 -115 -117c-16.667 0 -33.334 11.333 -50.001 34s-25 42 -25 58zM365.003 1438c0 31.333 96.3311 164.332 288.998 398.999c10.667 -4 26.334 -8 47.001 -12
c0 -9.33301 2 -23.666 6 -42.999s6 -33.666 6 -42.999c0 -20.667 -2.66699 -51.5 -8 -92.5s-8 -71.833 -8 -92.5s5 -50.334 15 -89.001s15 -65.667 15 -81c0 -24.667 -7.33301 -36.667 -22 -36c-39.333 0 -62.666 92 -69.999 276l-2 59l-8 11
c-8 -18 -29.333 -50.333 -64 -97l-161 -215c-8 0 -15.833 6.83301 -23.5 20.5s-11.5 25.5 -11.5 35.5zM581.001 465.002c83.333 15.333 208.334 42.666 375.001 81.999v362c0 22 -4 53.167 -12 93.5s-12.667 68.5 -14 84.5c-32.667 -66.667 -92.334 -169.667 -179.001 -309
c-82 -131.333 -138.667 -235.666 -170 -312.999z" />
    <glyph glyph-name="Atilde" unicode="&#xc3;" horiz-adv-x="1198" 
d="M90 59c0 13.333 22.3359 53.6689 67.0029 121.002l86 129c157.333 250 348 594.667 572 1034c126.667 -50.667 190 -211 190 -481c0 -30 -1.33301 -74.333 -4 -133s-4 -103 -4 -133c0 -10.667 9.83301 -28 29.5 -52s29.5 -41.333 29.5 -52c0 -8 -6 -21.667 -18 -41
l-27 -41c-16.667 -42 -22.667 -132.333 -18 -271l4 -129c-19.333 -4 -37 -6 -53 -6c-56 0 -84 32.667 -84 98c0 23.333 4 58.166 12 104.499s12 81.166 12 104.499c0 39.333 -14.333 59.333 -43 60c-32.667 0 -113.834 -18.167 -243.501 -54.5
s-201.834 -61.833 -216.501 -76.5c-8 -8 -41.667 -60 -101 -156c-48 -78 -86.333 -117 -115 -117c-16.667 0 -33.334 11.333 -50.001 34s-25 42 -25 58zM221.003 1554c0 26 32.667 57.668 98 95.001c61.333 35.333 107.333 53 138 53c5.33301 0 34.666 -14.667 87.999 -44
s100.333 -44 141 -44c109.333 0 192 42.333 248 127c28.667 -38.667 43 -63.334 43 -74.001c0 -35.333 -34.333 -70.666 -103 -105.999c-61.333 -32.667 -111.666 -49.334 -150.999 -50.001h-68c-12 0 -44.333 13.333 -97 40s-85 40 -97 40c-30 0 -70 -17.333 -120 -52
s-71.667 -52 -65 -52c-10.667 0 -22.5 8.5 -35.5 25.5s-19.5 30.833 -19.5 41.5zM505.003 465.004c83.333 15.333 208.334 42.666 375.001 81.999v362c0 22 -4 53.167 -12 93.5s-12.667 68.5 -14 84.5c-32.667 -66.667 -92.334 -169.667 -179.001 -309
c-82 -131.333 -138.667 -235.666 -170 -312.999z" />
    <glyph glyph-name="Adieresis" unicode="&#xc4;" horiz-adv-x="1273" 
d="M166 59c0 13.333 22.3359 53.6689 67.0029 121.002l86 129c157.333 250 348 594.667 572 1034c126.667 -50.667 190 -211 190 -481c0 -30 -1.33301 -74.333 -4 -133s-4 -103 -4 -133c0 -10.667 9.83301 -28 29.5 -52s29.5 -41.333 29.5 -52c0 -8 -6 -21.667 -18 -41
l-27 -41c-16.667 -42 -22.667 -132.333 -18 -271l4 -129c-19.333 -4 -37 -6 -53 -6c-56 0 -84 32.667 -84 98c0 23.333 4 58.166 12 104.499s12 81.166 12 104.499c0 39.333 -14.333 59.333 -43 60c-32.667 0 -113.834 -18.167 -243.501 -54.5
s-201.834 -61.833 -216.501 -76.5c-8 -8 -41.667 -60 -101 -156c-48 -78 -86.333 -117 -115 -117c-16.667 0 -33.334 11.333 -50.001 34s-25 42 -25 58zM262.003 1536c0 32.667 15.334 61.333 46.001 86s63 37 97 37c40 0 60 -19 60 -57c0 -20.667 -12.333 -43.667 -37 -69
s-47.334 -38 -68.001 -38h-86c0 4 -2 10.5 -6 19.5s-6 16.167 -6 21.5zM581.004 465.002c83.333 15.333 208.334 42.666 375.001 81.999v362c0 22 -4 53.167 -12 93.5s-12.667 68.5 -14 84.5c-32.667 -66.667 -92.334 -169.667 -179.001 -309
c-82 -131.333 -138.667 -235.666 -170 -312.999zM725.005 1507c0 30 17.332 64.167 51.999 102.5s66.334 57.5 95.001 57.5c50.667 0 76 -15.667 76 -47c0 -24.667 -14.667 -54.667 -44 -90s-56.333 -53 -81 -53h-84c-9.33301 0 -14 10 -14 30z" />
    <glyph glyph-name="Aring" unicode="&#xc5;" horiz-adv-x="1273" 
d="M166 59c0 13.333 22.3359 53.6689 67.0029 121.002l86 129c157.333 250 348 594.667 572 1034c126.667 -50.667 190 -211 190 -481c0 -30 -1.33301 -74.333 -4 -133s-4 -103 -4 -133c0 -10.667 9.83301 -28 29.5 -52s29.5 -41.333 29.5 -52c0 -8 -6 -21.667 -18 -41
l-27 -41c-16.667 -42 -22.667 -132.333 -18 -271l4 -129c-19.333 -4 -37 -6 -53 -6c-56 0 -84 32.667 -84 98c0 23.333 4 58.166 12 104.499s12 81.166 12 104.499c0 39.333 -14.333 59.333 -43 60c-32.667 0 -113.834 -18.167 -243.501 -54.5
s-201.834 -61.833 -216.501 -76.5c-8 -8 -41.667 -60 -101 -156c-48 -78 -86.333 -117 -115 -117c-16.667 0 -33.334 11.333 -50.001 34s-25 42 -25 58zM531.003 1307c0 108 58.667 161.667 176 161c46.667 0 86 -12.833 118 -38.5s48 -61.167 48 -106.5
c0 -102.667 -55.333 -154 -166 -154c-117.333 0 -176 46 -176 138zM581.003 465.003c83.333 15.333 208.334 42.666 375.001 81.999v362c0 22 -4 53.167 -12 93.5s-12.667 68.5 -14 84.5c-32.667 -66.667 -92.334 -169.667 -179.001 -309
c-82 -131.333 -138.667 -235.666 -170 -312.999zM594.004 1305c0 -35.333 16.667 -61.335 50 -78.002h112c9.33301 6.66699 22.333 15.334 39 26.001c5.33301 19.333 8 40 8 62c0 20.667 -2.66699 42.334 -8 65.001c-8 5.33301 -16.333 13 -25 23l-129 2
c-31.333 -12 -47 -45.333 -47 -100z" />
    <glyph glyph-name="AE" unicode="&#xc6;" horiz-adv-x="2050" 
d="M-184 59c0 13.333 22.3359 53.6689 67.0029 121.002l86 129c157.333 250 348 594.667 572 1034c126.667 -50.667 190 -211 190 -481c0 -30 -1.33301 -74.333 -4 -133s-4 -103 -4 -133c0 -10.667 9.83301 -28 29.5 -52s29.5 -41.333 29.5 -52c0 -8 -6 -21.667 -18 -41
l-27 -41c-16.667 -42 -22.667 -132.333 -18 -271l4 -129c-19.333 -4 -37 -6 -53 -6c-56 0 -84 32.667 -84 98c0 23.333 4 58.166 12 104.499s12 81.166 12 104.499c0 39.333 -14.333 59.333 -43 60c-32.667 0 -113.834 -18.167 -243.501 -54.5
s-201.834 -61.833 -216.501 -76.5c-8 -8 -41.667 -60 -101 -156c-48 -78 -86.333 -117 -115 -117c-16.667 0 -33.334 11.333 -50.001 34s-25 42 -25 58zM231.003 465.003c83.333 15.333 208.334 42.666 375.001 81.999v362c0 22 -4 53.167 -12 93.5s-12.667 68.5 -14 84.5
c-32.667 -66.667 -92.334 -169.667 -179.001 -309c-82 -131.333 -138.667 -235.666 -170 -312.999zM604.004 203.003c0 53.333 20.333 132.334 61 237.001c0 6.66699 -2 17.667 -6 33s-6 27 -6 35c0 5.33301 0.666992 10 2 14c4 20.667 39 42 105 64
c35.333 22 102.666 117.333 201.999 286c-13.333 49.333 -20 87 -20 113c0 27.333 15 52.666 45 75.999l80 49c35.333 30 61.333 72.333 78 127h53c35.333 -38 64 -57 86 -57c19.333 0 80 12.333 182 37c66.667 18 168.334 43 305.001 75c110.667 26 213 39 307 39
c19.333 0 43.666 -13.5 73 -40.5c29.333 -27 44 -50.167 44 -69.5c0 -16.667 -7.5 -31.834 -22.5 -45.501s-30.5 -20.5 -46.5 -20.5c-6.66699 0 -11.5 2 -14.5 6s-7.83301 6 -14.5 6c-13.333 0 -36 -6 -68 -18c-35.333 -13.333 -59 -21.666 -71 -24.999
c-56 -12 -172.333 -32.333 -349 -61c-140.667 -22 -254.667 -47.333 -342 -76c-49.333 -15.333 -93 -64.333 -131 -147c-46.667 -96.667 -83.334 -156 -110.001 -178c12 -4 24.333 -6.33301 37 -7c19.333 0 46.333 5.83301 81 17.5s61.334 17.5 80.001 17.5
c174.667 0 305.334 35.667 392.001 107c58.667 -48 88 -81.667 88 -101c0 -44 -64.333 -84.333 -193 -121c-32.667 -9.33301 -159 -37 -379 -83c-151.333 -32.667 -242 -60.667 -272 -84c-18 -13.333 -37 -49 -57 -107c-27.333 -72.667 -43.333 -113 -48 -121
c101.333 -20.667 154.666 -30.667 159.999 -30c46.667 0 116.667 5.66699 210 17s163.333 17 210 17c6.66699 0 47 19.333 121 58l33 -52c-1.33301 -8 0 -32.333 4 -73c-91.333 -88.667 -268.333 -133 -531 -133c-238.667 0 -358 73 -358 219z" />
    <glyph glyph-name="Ccedilla" unicode="&#xc7;" horiz-adv-x="1177" 
d="M23 469c0 136.667 49 268.332 147 394.999c82 106.667 190 201.667 324 285c28.667 20.667 73 50.667 133 90c50.667 32.667 100.667 49 150 49c42 0 86.5 -23.167 133.5 -69.5s70.5 -90.166 70.5 -131.499c0 -46.667 -13.833 -88.334 -41.5 -125.001
s-64.167 -55 -109.5 -55c-36.667 0 -71.667 14.333 -105 43c5.33301 22 21.333 48.667 48 80c31.333 38 50.333 62.667 57 74l-10 8c-135.333 0 -277 -84.333 -425 -253s-222 -322 -222 -460c0 -60 26.5 -117.667 79.5 -173s109.5 -83.666 169.5 -84.999l95 -2
c184 -4 308.667 16.667 374 62c24.667 16.667 42.667 46.667 54 90c8 32.667 24.333 49 49 49c18 0 41.833 -15 71.5 -45s44.5 -54 44.5 -72c0 -76.667 -83.667 -138 -251 -184c-124 -34 -241 -51 -351 -51c-130 0 -243.333 47.667 -340 143s-145 208 -145 338zM432 54.998
h104v-121c100 -35.333 150 -97.333 150 -186c0 -57.333 -28.667 -101.666 -86 -132.999c-46.667 -24.667 -100.667 -37 -162 -37v62c76.667 1.33301 130 32.666 160 93.999c0 104 -55.333 155.667 -166 155v166z" />
    <glyph glyph-name="Egrave" unicode="&#xc8;" horiz-adv-x="1316" 
d="M-182 203c0 53.333 20.334 132.334 61.001 237.001c0 6.66699 -2 17.667 -6 33s-6 27 -6 35c0 5.33301 0.666992 10 2 14c4 20.667 39 42 105 64c35.333 22 102.666 117.333 201.999 286c-13.333 49.333 -20 87 -20 113c0 27.333 15 52.666 45 75.999l80 49
c35.333 30 61.333 72.333 78 127h53c35.333 -38 64 -57 86 -57c19.333 0 80 12.333 182 37c66.667 18 168.334 43 305.001 75c110.667 26 213 39 307 39c19.333 0 43.666 -13.5 72.999 -40.5s44 -50.167 44 -69.5c0 -16.667 -7.5 -31.834 -22.5 -45.501
s-30.5 -20.5 -46.5 -20.5c-6.66699 0 -11.5 2 -14.5 6s-7.83301 6 -14.5 6c-13.333 0 -36 -6 -68 -18c-35.333 -13.333 -59 -21.666 -71 -24.999c-56 -12 -172.333 -32.333 -349 -61c-140.667 -22 -254.667 -47.333 -342 -76c-49.333 -15.333 -93 -64.333 -131 -147
c-46.667 -96.667 -83.334 -156 -110.001 -178c12 -4 24.333 -6.33301 37 -7c19.333 0 46.333 5.83301 81 17.5s61.334 17.5 80.001 17.5c174.667 0 305.334 35.667 392.001 107c58.667 -48 88 -81.667 88 -101c0 -44 -64.333 -84.333 -193 -121
c-32.667 -9.33301 -159 -37 -379 -83c-151.333 -32.667 -242 -60.667 -272 -84c-18 -13.333 -37 -49 -57 -107c-27.333 -72.667 -43.333 -113 -48 -121c101.333 -20.667 154.666 -30.667 159.999 -30c46.667 0 116.667 5.66699 210 17s163.333 17 210 17
c6.66699 0 47 19.333 121 58l33 -52c-1.33301 -8 0 -32.333 4 -73c-91.333 -88.667 -268.333 -133 -531 -133c-238.667 0 -358 73 -358 219zM196.001 1849l5.00098 9.00098c24.667 0 72 -9 142 -27s110.667 -33 122 -45c2.66699 -20.667 40.167 -79 112.5 -175
s108.5 -155 108.5 -177c0 -20.667 -20.667 -31 -62 -31c-36.667 0 -90.834 32.333 -162.501 97s-107.5 115 -107.5 151c0 9.33301 -26 42.666 -78 99.999s-78.667 90 -80 98z" />
    <glyph glyph-name="Eacute" unicode="&#xc9;" horiz-adv-x="1316" 
d="M-182 203c0 53.333 20.334 132.334 61.001 237.001c0 6.66699 -2 17.667 -6 33s-6 27 -6 35c0 5.33301 0.666992 10 2 14c4 20.667 39 42 105 64c35.333 22 102.666 117.333 201.999 286c-13.333 49.333 -20 87 -20 113c0 27.333 15 52.666 45 75.999l80 49
c35.333 30 61.333 72.333 78 127h53c35.333 -38 64 -57 86 -57c19.333 0 80 12.333 182 37c66.667 18 168.334 43 305.001 75c110.667 26 213 39 307 39c19.333 0 43.666 -13.5 72.999 -40.5s44 -50.167 44 -69.5c0 -16.667 -7.5 -31.834 -22.5 -45.501
s-30.5 -20.5 -46.5 -20.5c-6.66699 0 -11.5 2 -14.5 6s-7.83301 6 -14.5 6c-13.333 0 -36 -6 -68 -18c-35.333 -13.333 -59 -21.666 -71 -24.999c-56 -12 -172.333 -32.333 -349 -61c-140.667 -22 -254.667 -47.333 -342 -76c-49.333 -15.333 -93 -64.333 -131 -147
c-46.667 -96.667 -83.334 -156 -110.001 -178c12 -4 24.333 -6.33301 37 -7c19.333 0 46.333 5.83301 81 17.5s61.334 17.5 80.001 17.5c174.667 0 305.334 35.667 392.001 107c58.667 -48 88 -81.667 88 -101c0 -44 -64.333 -84.333 -193 -121
c-32.667 -9.33301 -159 -37 -379 -83c-151.333 -32.667 -242 -60.667 -272 -84c-18 -13.333 -37 -49 -57 -107c-27.333 -72.667 -43.333 -113 -48 -121c101.333 -20.667 154.666 -30.667 159.999 -30c46.667 0 116.667 5.66699 210 17s163.333 17 210 17
c6.66699 0 47 19.333 121 58l33 -52c-1.33301 -8 0 -32.333 4 -73c-91.333 -88.667 -268.333 -133 -531 -133c-238.667 0 -358 73 -358 219zM335.001 1389c0 38 32.1641 92.501 96.4971 163.501s114.833 106.5 151.5 106.5c10.667 0 37.334 16 80.001 48
s67.334 48 74.001 48l47 -6c0 -36.667 13 -75 39 -115c0 -6.66699 -35 -35.334 -105 -86.001c-19.333 -1.33301 -77.666 -38.5 -174.999 -111.5s-157 -109.5 -179 -109.5c-19.333 0 -29 20.667 -29 62z" />
    <glyph glyph-name="Ecircumflex" unicode="&#xca;" horiz-adv-x="1316" 
d="M-182 203c0 53.333 20.334 132.334 61.001 237.001c0 6.66699 -2 17.667 -6 33s-6 27 -6 35c0 5.33301 0.666992 10 2 14c4 20.667 39 42 105 64c35.333 22 102.666 117.333 201.999 286c-13.333 49.333 -20 87 -20 113c0 27.333 15 52.666 45 75.999l80 49
c35.333 30 61.333 72.333 78 127h53c35.333 -38 64 -57 86 -57c19.333 0 80 12.333 182 37c66.667 18 168.334 43 305.001 75c110.667 26 213 39 307 39c19.333 0 43.666 -13.5 72.999 -40.5s44 -50.167 44 -69.5c0 -16.667 -7.5 -31.834 -22.5 -45.501
s-30.5 -20.5 -46.5 -20.5c-6.66699 0 -11.5 2 -14.5 6s-7.83301 6 -14.5 6c-13.333 0 -36 -6 -68 -18c-35.333 -13.333 -59 -21.666 -71 -24.999c-56 -12 -172.333 -32.333 -349 -61c-140.667 -22 -254.667 -47.333 -342 -76c-49.333 -15.333 -93 -64.333 -131 -147
c-46.667 -96.667 -83.334 -156 -110.001 -178c12 -4 24.333 -6.33301 37 -7c19.333 0 46.333 5.83301 81 17.5s61.334 17.5 80.001 17.5c174.667 0 305.334 35.667 392.001 107c58.667 -48 88 -81.667 88 -101c0 -44 -64.333 -84.333 -193 -121
c-32.667 -9.33301 -159 -37 -379 -83c-151.333 -32.667 -242 -60.667 -272 -84c-18 -13.333 -37 -49 -57 -107c-27.333 -72.667 -43.333 -113 -48 -121c101.333 -20.667 154.666 -30.667 159.999 -30c46.667 0 116.667 5.66699 210 17s163.333 17 210 17
c6.66699 0 47 19.333 121 58l33 -52c-1.33301 -8 0 -32.333 4 -73c-91.333 -88.667 -268.333 -133 -531 -133c-238.667 0 -358 73 -358 219zM226.001 1438c0 31.333 96.3311 164.332 288.998 398.999c10.667 -4 26.334 -8 47.001 -12c0 -9.33301 2 -23.666 6 -42.999
s6 -33.666 6 -42.999c0 -20.667 -2.66699 -51.5 -8 -92.5s-8 -71.833 -8 -92.5s5 -50.334 15 -89.001s15 -65.667 15 -81c0 -24.667 -7.33301 -36.667 -22 -36c-39.333 0 -62.666 92 -69.999 276l-2 59l-8 11c-8 -18 -29.333 -50.333 -64 -97l-161 -215
c-8 0 -15.833 6.83301 -23.5 20.5s-11.5 25.5 -11.5 35.5z" />
    <glyph glyph-name="Edieresis" unicode="&#xcb;" horiz-adv-x="1316" 
d="M-182 203c0 53.333 20.334 132.334 61.001 237.001c0 6.66699 -2 17.667 -6 33s-6 27 -6 35c0 5.33301 0.666992 10 2 14c4 20.667 39 42 105 64c35.333 22 102.666 117.333 201.999 286c-13.333 49.333 -20 87 -20 113c0 27.333 15 52.666 45 75.999l80 49
c35.333 30 61.333 72.333 78 127h53c35.333 -38 64 -57 86 -57c19.333 0 80 12.333 182 37c66.667 18 168.334 43 305.001 75c110.667 26 213 39 307 39c19.333 0 43.666 -13.5 72.999 -40.5s44 -50.167 44 -69.5c0 -16.667 -7.5 -31.834 -22.5 -45.501
s-30.5 -20.5 -46.5 -20.5c-6.66699 0 -11.5 2 -14.5 6s-7.83301 6 -14.5 6c-13.333 0 -36 -6 -68 -18c-35.333 -13.333 -59 -21.666 -71 -24.999c-56 -12 -172.333 -32.333 -349 -61c-140.667 -22 -254.667 -47.333 -342 -76c-49.333 -15.333 -93 -64.333 -131 -147
c-46.667 -96.667 -83.334 -156 -110.001 -178c12 -4 24.333 -6.33301 37 -7c19.333 0 46.333 5.83301 81 17.5s61.334 17.5 80.001 17.5c174.667 0 305.334 35.667 392.001 107c58.667 -48 88 -81.667 88 -101c0 -44 -64.333 -84.333 -193 -121
c-32.667 -9.33301 -159 -37 -379 -83c-151.333 -32.667 -242 -60.667 -272 -84c-18 -13.333 -37 -49 -57 -107c-27.333 -72.667 -43.333 -113 -48 -121c101.333 -20.667 154.666 -30.667 159.999 -30c46.667 0 116.667 5.66699 210 17s163.333 17 210 17
c6.66699 0 47 19.333 121 58l33 -52c-1.33301 -8 0 -32.333 4 -73c-91.333 -88.667 -268.333 -133 -531 -133c-238.667 0 -358 73 -358 219zM123.001 1536c0 32.667 15.334 61.333 46.001 86s63 37 97 37c40 0 60 -19 60 -57c0 -20.667 -12.333 -43.667 -37 -69
s-47.334 -38 -68.001 -38h-86c0 4 -2 10.5 -6 19.5s-6 16.167 -6 21.5zM586.002 1507c0 30 17.332 64.167 51.999 102.5s66.334 57.5 95.001 57.5c50.667 0 76 -15.667 76 -47c0 -24.667 -14.667 -54.667 -44 -90s-56.333 -53 -81 -53h-84c-9.33301 0 -14 10 -14 30z" />
    <glyph glyph-name="Igrave" unicode="&#xcc;" horiz-adv-x="1165" 
d="M-272 47l-0.00292969 51.001c9.33301 18 23 27 41 27c42 0 124 10.333 246 31c126.667 22 203.667 40.333 231 55c22 12 37.667 31.667 47 59c5.33301 16.667 13.666 41.334 24.999 74.001c50.667 120 158.334 345.333 323.001 676l-10 8
c-35.333 0 -97.666 -22.5 -186.999 -67.5s-155.333 -67.5 -198 -67.5c-57.333 0 -86 39 -86 117c0 22 33.833 51.667 101.5 89s114.5 56 140.5 56c5.33301 0 10 -1.66699 14 -5s8.66699 -5 14 -5s31.666 10.5 78.999 31.5s85.333 31.5 114 31.5
c10.667 0 22.334 -1.33301 35.001 -4l32 29c53.333 6.66699 119 17 197 31c9.33301 1.33301 55 16.333 137 45c66.667 23.333 108.334 34.666 125.001 33.999c16.667 0 37.667 -14.5 63 -43.5s38 -51.833 38 -68.5c0 -61.333 -149 -113.333 -447 -156
c0 -9.33301 0.666992 -22.5 2 -39.5s2 -30.5 2 -40.5c0 -38 -54.5 -157.667 -163.5 -359s-164.167 -330 -165.5 -386l18 -19c30 9.33301 90.667 14.333 182 15c8 0 77.667 -9.66699 209 -29c0 -50.667 -53.333 -90.334 -160 -119.001
c-76.667 -20.667 -150.334 -30.667 -221.001 -30c-5.33301 0 -13.166 2 -23.499 6s-18.166 6 -23.499 6c-13.333 0 -40.5 -11 -81.5 -33s-68.5 -33 -82.5 -33c-18 0 -45.333 1 -82 3s-64 3 -82 3c-35.333 0 -86.833 -9.83301 -154.5 -29.5s-119.167 -29.5 -154.5 -29.5
c-24.667 0 -56 28.667 -94 86zM271.997 1849l5.00098 9.00098c24.667 0 72 -9 142 -27s110.667 -33 122 -45c2.66699 -20.667 40.167 -79 112.5 -175s108.5 -155 108.5 -177c0 -20.667 -20.667 -31 -62 -31c-36.667 0 -90.834 32.333 -162.501 97s-107.5 115 -107.5 151
c0 9.33301 -26 42.666 -78 99.999s-78.667 90 -80 98z" />
    <glyph glyph-name="Iacute" unicode="&#xcd;" horiz-adv-x="1148" 
d="M-291 47l-0.00292969 51.001c9.33301 18 23 27 41 27c42 0 124 10.333 246 31c126.667 22 203.667 40.333 231 55c22 12 37.667 31.667 47 59c5.33301 16.667 13.666 41.334 24.999 74.001c50.667 120 158.334 345.333 323.001 676l-10 8
c-35.333 0 -97.666 -22.5 -186.999 -67.5s-155.333 -67.5 -198 -67.5c-57.333 0 -86 39 -86 117c0 22 33.833 51.667 101.5 89s114.5 56 140.5 56c5.33301 0 10 -1.66699 14 -5s8.66699 -5 14 -5s31.666 10.5 78.999 31.5s85.333 31.5 114 31.5
c10.667 0 22.334 -1.33301 35.001 -4l32 29c53.333 6.66699 119 17 197 31c9.33301 1.33301 55 16.333 137 45c66.667 23.333 108.334 34.666 125.001 33.999c16.667 0 37.667 -14.5 63 -43.5s38 -51.833 38 -68.5c0 -61.333 -149 -113.333 -447 -156
c0 -9.33301 0.666992 -22.5 2 -39.5s2 -30.5 2 -40.5c0 -38 -54.5 -157.667 -163.5 -359s-164.167 -330 -165.5 -386l18 -19c30 9.33301 90.667 14.333 182 15c8 0 77.667 -9.66699 209 -29c0 -50.667 -53.333 -90.334 -160 -119.001
c-76.667 -20.667 -150.334 -30.667 -221.001 -30c-5.33301 0 -13.166 2 -23.499 6s-18.166 6 -23.499 6c-13.333 0 -40.5 -11 -81.5 -33s-68.5 -33 -82.5 -33c-18 0 -45.333 1 -82 3s-64 3 -82 3c-35.333 0 -86.833 -9.83301 -154.5 -29.5s-119.167 -29.5 -154.5 -29.5
c-24.667 0 -56 28.667 -94 86zM412.997 1389c0 38 32.1641 92.501 96.4971 163.501s114.833 106.5 151.5 106.5c10.667 0 37.334 16 80.001 48s67.334 48 74.001 48l47 -6c0 -36.667 13 -75 39 -115c0 -6.66699 -35 -35.334 -105 -86.001
c-19.333 -1.33301 -77.666 -38.5 -174.999 -111.5s-157 -109.5 -179 -109.5c-19.333 0 -29 20.667 -29 62z" />
    <glyph glyph-name="Icircumflex" unicode="&#xce;" horiz-adv-x="1181" 
d="M-254 47l-0.00292969 51.001c9.33301 18 23 27 41 27c42 0 124 10.333 246 31c126.667 22 203.667 40.333 231 55c22 12 37.667 31.667 47 59c5.33301 16.667 13.666 41.334 24.999 74.001c50.667 120 158.334 345.333 323.001 676l-10 8
c-35.333 0 -97.666 -22.5 -186.999 -67.5s-155.333 -67.5 -198 -67.5c-57.333 0 -86 39 -86 117c0 22 33.833 51.667 101.5 89s114.5 56 140.5 56c5.33301 0 10 -1.66699 14 -5s8.66699 -5 14 -5s31.666 10.5 78.999 31.5s85.333 31.5 114 31.5
c10.667 0 22.334 -1.33301 35.001 -4l32 29c53.333 6.66699 119 17 197 31c9.33301 1.33301 55 16.333 137 45c66.667 23.333 108.334 34.666 125.001 33.999c16.667 0 37.667 -14.5 63 -43.5s38 -51.833 38 -68.5c0 -61.333 -149 -113.333 -447 -156
c0 -9.33301 0.666992 -22.5 2 -39.5s2 -30.5 2 -40.5c0 -38 -54.5 -157.667 -163.5 -359s-164.167 -330 -165.5 -386l18 -19c30 9.33301 90.667 14.333 182 15c8 0 77.667 -9.66699 209 -29c0 -50.667 -53.333 -90.334 -160 -119.001
c-76.667 -20.667 -150.334 -30.667 -221.001 -30c-5.33301 0 -13.166 2 -23.499 6s-18.166 6 -23.499 6c-13.333 0 -40.5 -11 -81.5 -33s-68.5 -33 -82.5 -33c-18 0 -45.333 1 -82 3s-64 3 -82 3c-35.333 0 -86.833 -9.83301 -154.5 -29.5s-119.167 -29.5 -154.5 -29.5
c-24.667 0 -56 28.667 -94 86zM401.997 1438c0 31.333 96.3311 164.332 288.998 398.999c10.667 -4 26.334 -8 47.001 -12c0 -9.33301 2 -23.666 6 -42.999s6 -33.666 6 -42.999c0 -20.667 -2.66699 -51.5 -8 -92.5s-8 -71.833 -8 -92.5s5 -50.334 15 -89.001
s15 -65.667 15 -81c0 -24.667 -7.33301 -36.667 -22 -36c-39.333 0 -62.666 92 -69.999 276l-2 59l-8 11c-8 -18 -29.333 -50.333 -64 -97l-161 -215c-8 0 -15.833 6.83301 -23.5 20.5s-11.5 25.5 -11.5 35.5z" />
    <glyph glyph-name="Idieresis" unicode="&#xcf;" horiz-adv-x="1185" 
d="M-250 47l-0.00292969 51.001c9.33301 18 23 27 41 27c42 0 124 10.333 246 31c126.667 22 203.667 40.333 231 55c22 12 37.667 31.667 47 59c5.33301 16.667 13.666 41.334 24.999 74.001c50.667 120 158.334 345.333 323.001 676l-10 8
c-35.333 0 -97.666 -22.5 -186.999 -67.5s-155.333 -67.5 -198 -67.5c-57.333 0 -86 39 -86 117c0 22 33.833 51.667 101.5 89s114.5 56 140.5 56c5.33301 0 10 -1.66699 14 -5s8.66699 -5 14 -5s31.666 10.5 78.999 31.5s85.333 31.5 114 31.5
c10.667 0 22.334 -1.33301 35.001 -4l32 29c53.333 6.66699 119 17 197 31c9.33301 1.33301 55 16.333 137 45c66.667 23.333 108.334 34.666 125.001 33.999c16.667 0 37.667 -14.5 63 -43.5s38 -51.833 38 -68.5c0 -61.333 -149 -113.333 -447 -156
c0 -9.33301 0.666992 -22.5 2 -39.5s2 -30.5 2 -40.5c0 -38 -54.5 -157.667 -163.5 -359s-164.167 -330 -165.5 -386l18 -19c30 9.33301 90.667 14.333 182 15c8 0 77.667 -9.66699 209 -29c0 -50.667 -53.333 -90.334 -160 -119.001
c-76.667 -20.667 -150.334 -30.667 -221.001 -30c-5.33301 0 -13.166 2 -23.499 6s-18.166 6 -23.499 6c-13.333 0 -40.5 -11 -81.5 -33s-68.5 -33 -82.5 -33c-18 0 -45.333 1 -82 3s-64 3 -82 3c-35.333 0 -86.833 -9.83301 -154.5 -29.5s-119.167 -29.5 -154.5 -29.5
c-24.667 0 -56 28.667 -94 86zM241.997 1536c0 32.667 15.334 61.333 46.001 86s63 37 97 37c40 0 60 -19 60 -57c0 -20.667 -12.333 -43.667 -37 -69s-47.334 -38 -68.001 -38h-86c0 4 -2 10.5 -6 19.5s-6 16.167 -6 21.5zM704.998 1507c0 30 17.332 64.167 51.999 102.5
s66.334 57.5 95.001 57.5c50.667 0 76 -15.667 76 -47c0 -24.667 -14.667 -54.667 -44 -90s-56.333 -53 -81 -53h-84c-9.33301 0 -14 10 -14 30z" />
    <glyph glyph-name="Ntilde" unicode="&#xd1;" horiz-adv-x="1243" 
d="M-99 51c-1.33301 95.333 34.332 222.333 106.999 381c106.667 233.333 162.667 359 168 377l69 221c39.333 118.667 72.333 178 99 178c57.333 0 99 -74.333 125 -223c8 -65.333 21.667 -163.666 41 -294.999c22 -146 65 -284 129 -414
c158.667 432.667 344.334 852 557.001 1258h122l13 -55c-108 -181.333 -224 -426 -348 -734c-131.333 -323.333 -214 -579.333 -248 -768c-15.333 -18 -35.333 -26.667 -60 -26c-54.667 0 -121.334 122 -200.001 366c-49.333 150 -91.666 303.667 -126.999 461
c-39.333 -122.667 -93.333 -265.334 -162 -428.001c-96.667 -230.667 -163 -346 -199 -346c-26 0 -54.667 15.667 -86 47zM218.998 1554c0 26 32.667 57.668 98 95.001c61.333 35.333 107.333 53 138 53c5.33301 0 34.666 -14.667 87.999 -44s100.333 -44 141 -44
c109.333 0 192 42.333 248 127c28.667 -38.667 43 -63.334 43 -74.001c0 -35.333 -34.333 -70.666 -103 -105.999c-61.333 -32.667 -111.666 -49.334 -150.999 -50.001h-68c-12 0 -44.333 13.333 -97 40s-85 40 -97 40c-30 0 -70 -17.333 -120 -52s-71.667 -52 -65 -52
c-10.667 0 -22.5 8.5 -35.5 25.5s-19.5 30.833 -19.5 41.5z" />
    <glyph glyph-name="Ograve" unicode="&#xd2;" horiz-adv-x="1308" 
d="M23 401c0 50.667 10.998 117.002 32.998 199.002c16.667 16.667 33.667 42.667 51 78c22 44 36.333 71.333 43 82c131.333 196.667 310.666 344 537.999 442c6.66699 2.66699 21 13.667 43 33c18 15.333 34 22.666 48 21.999c4 0 8.33301 -1.66699 13 -5
s9.66699 -5 15 -5c12 0 28.333 5.83301 49 17.5s37.334 17.5 50.001 17.5c9.33301 0 15.333 -8.33301 18 -25c8 9.33301 10.667 21 8 35c36.667 -10.667 92 -27.667 166 -51l72 -82c35.333 -42 53 -69.333 53 -82v-342c0 -152.667 -62 -293.334 -186 -422.001
c-105.333 -109.333 -238 -194.666 -398 -255.999c-20.667 -8 -82.667 -35.333 -186 -82c-2.66699 -2.66699 -4 -7.33398 -4 -14.001c0 -9.33301 2 -22.333 6 -39h-33c-15.333 -1.33301 -25.666 -2 -30.999 -2c-34 0 -87.667 30 -161 90
c-69.333 56 -113.666 101.667 -132.999 137c-49.333 91.333 -74 176 -74 254zM208.998 449.002c0 -195.333 37.667 -293.001 113 -293.001c46.667 0 153.667 27.333 321 82l11 -2c4 2.66699 5.33301 4.66699 4 6c38 15.333 96 51.833 174 109.5s128.333 102.834 151 135.501
c82 115.333 123 265 123 449c0 39.333 -8 79 -24 119c-20.667 49.333 -48 73.666 -82 72.999c-64 0 -191.667 -51.667 -383 -155c-76.667 -42 -145.667 -103.667 -207 -185c-27.333 -35.333 -78 -113.666 -152 -234.999c-32.667 -53.333 -49 -88 -49 -104zM224.998 1849
l5.00098 9.00098c24.667 0 72 -9 142 -27s110.667 -33 122 -45c2.66699 -20.667 40.167 -79 112.5 -175s108.5 -155 108.5 -177c0 -20.667 -20.667 -31 -62 -31c-36.667 0 -90.834 32.333 -162.501 97s-107.5 115 -107.5 151c0 9.33301 -26 42.666 -78 99.999
s-78.667 90 -80 98z" />
    <glyph glyph-name="Oacute" unicode="&#xd3;" horiz-adv-x="1308" 
d="M23 401c0 50.667 10.998 117.002 32.998 199.002c16.667 16.667 33.667 42.667 51 78c22 44 36.333 71.333 43 82c131.333 196.667 310.666 344 537.999 442c6.66699 2.66699 21 13.667 43 33c18 15.333 34 22.666 48 21.999c4 0 8.33301 -1.66699 13 -5
s9.66699 -5 15 -5c12 0 28.333 5.83301 49 17.5s37.334 17.5 50.001 17.5c9.33301 0 15.333 -8.33301 18 -25c8 9.33301 10.667 21 8 35c36.667 -10.667 92 -27.667 166 -51l72 -82c35.333 -42 53 -69.333 53 -82v-342c0 -152.667 -62 -293.334 -186 -422.001
c-105.333 -109.333 -238 -194.666 -398 -255.999c-20.667 -8 -82.667 -35.333 -186 -82c-2.66699 -2.66699 -4 -7.33398 -4 -14.001c0 -9.33301 2 -22.333 6 -39h-33c-15.333 -1.33301 -25.666 -2 -30.999 -2c-34 0 -87.667 30 -161 90
c-69.333 56 -113.666 101.667 -132.999 137c-49.333 91.333 -74 176 -74 254zM208.998 449.002c0 -195.333 37.667 -293.001 113 -293.001c46.667 0 153.667 27.333 321 82l11 -2c4 2.66699 5.33301 4.66699 4 6c38 15.333 96 51.833 174 109.5s128.333 102.834 151 135.501
c82 115.333 123 265 123 449c0 39.333 -8 79 -24 119c-20.667 49.333 -48 73.666 -82 72.999c-64 0 -191.667 -51.667 -383 -155c-76.667 -42 -145.667 -103.667 -207 -185c-27.333 -35.333 -78 -113.666 -152 -234.999c-32.667 -53.333 -49 -88 -49 -104zM363.998 1389
c0 38 32.1641 92.501 96.4971 163.501s114.833 106.5 151.5 106.5c10.667 0 37.334 16 80.001 48s67.334 48 74.001 48l47 -6c0 -36.667 13 -75 39 -115c0 -6.66699 -35 -35.334 -105 -86.001c-19.333 -1.33301 -77.666 -38.5 -174.999 -111.5s-157 -109.5 -179 -109.5
c-19.333 0 -29 20.667 -29 62z" />
    <glyph glyph-name="Ocircumflex" unicode="&#xd4;" horiz-adv-x="1308" 
d="M23 401c0 50.667 10.998 117.002 32.998 199.002c16.667 16.667 33.667 42.667 51 78c22 44 36.333 71.333 43 82c131.333 196.667 310.666 344 537.999 442c6.66699 2.66699 21 13.667 43 33c18 15.333 34 22.666 48 21.999c4 0 8.33301 -1.66699 13 -5
s9.66699 -5 15 -5c12 0 28.333 5.83301 49 17.5s37.334 17.5 50.001 17.5c9.33301 0 15.333 -8.33301 18 -25c8 9.33301 10.667 21 8 35c36.667 -10.667 92 -27.667 166 -51l72 -82c35.333 -42 53 -69.333 53 -82v-342c0 -152.667 -62 -293.334 -186 -422.001
c-105.333 -109.333 -238 -194.666 -398 -255.999c-20.667 -8 -82.667 -35.333 -186 -82c-2.66699 -2.66699 -4 -7.33398 -4 -14.001c0 -9.33301 2 -22.333 6 -39h-33c-15.333 -1.33301 -25.666 -2 -30.999 -2c-34 0 -87.667 30 -161 90
c-69.333 56 -113.666 101.667 -132.999 137c-49.333 91.333 -74 176 -74 254zM208.998 449.002c0 -195.333 37.667 -293.001 113 -293.001c46.667 0 153.667 27.333 321 82l11 -2c4 2.66699 5.33301 4.66699 4 6c38 15.333 96 51.833 174 109.5s128.333 102.834 151 135.501
c82 115.333 123 265 123 449c0 39.333 -8 79 -24 119c-20.667 49.333 -48 73.666 -82 72.999c-64 0 -191.667 -51.667 -383 -155c-76.667 -42 -145.667 -103.667 -207 -185c-27.333 -35.333 -78 -113.666 -152 -234.999c-32.667 -53.333 -49 -88 -49 -104zM253.998 1438
c0 31.333 96.3311 164.332 288.998 398.999c10.667 -4 26.334 -8 47.001 -12c0 -9.33301 2 -23.666 6 -42.999s6 -33.666 6 -42.999c0 -20.667 -2.66699 -51.5 -8 -92.5s-8 -71.833 -8 -92.5s5 -50.334 15 -89.001s15 -65.667 15 -81c0 -24.667 -7.33301 -36.667 -22 -36
c-39.333 0 -62.666 92 -69.999 276l-2 59l-8 11c-8 -18 -29.333 -50.333 -64 -97l-161 -215c-8 0 -15.833 6.83301 -23.5 20.5s-11.5 25.5 -11.5 35.5z" />
    <glyph glyph-name="Otilde" unicode="&#xd5;" horiz-adv-x="1308" 
d="M23 401c0 50.667 10.998 117.002 32.998 199.002c16.667 16.667 33.667 42.667 51 78c22 44 36.333 71.333 43 82c131.333 196.667 310.666 344 537.999 442c6.66699 2.66699 21 13.667 43 33c18 15.333 34 22.666 48 21.999c4 0 8.33301 -1.66699 13 -5
s9.66699 -5 15 -5c12 0 28.333 5.83301 49 17.5s37.334 17.5 50.001 17.5c9.33301 0 15.333 -8.33301 18 -25c8 9.33301 10.667 21 8 35c36.667 -10.667 92 -27.667 166 -51l72 -82c35.333 -42 53 -69.333 53 -82v-342c0 -152.667 -62 -293.334 -186 -422.001
c-105.333 -109.333 -238 -194.666 -398 -255.999c-20.667 -8 -82.667 -35.333 -186 -82c-2.66699 -2.66699 -4 -7.33398 -4 -14.001c0 -9.33301 2 -22.333 6 -39h-33c-15.333 -1.33301 -25.666 -2 -30.999 -2c-34 0 -87.667 30 -161 90
c-69.333 56 -113.666 101.667 -132.999 137c-49.333 91.333 -74 176 -74 254zM185.998 1554c0 26 32.667 57.668 98 95.001c61.333 35.333 107.333 53 138 53c5.33301 0 34.666 -14.667 87.999 -44s100.333 -44 141 -44c109.333 0 192 42.333 248 127
c28.667 -38.667 43 -63.334 43 -74.001c0 -35.333 -34.333 -70.666 -103 -105.999c-61.333 -32.667 -111.666 -49.334 -150.999 -50.001h-68c-12 0 -44.333 13.333 -97 40s-85 40 -97 40c-30 0 -70 -17.333 -120 -52s-71.667 -52 -65 -52c-10.667 0 -22.5 8.5 -35.5 25.5
s-19.5 30.833 -19.5 41.5zM208.998 449.003c0 -195.333 37.667 -293.001 113 -293.001c46.667 0 153.667 27.333 321 82l11 -2c4 2.66699 5.33301 4.66699 4 6c38 15.333 96 51.833 174 109.5s128.333 102.834 151 135.501c82 115.333 123 265 123 449
c0 39.333 -8 79 -24 119c-20.667 49.333 -48 73.666 -82 72.999c-64 0 -191.667 -51.667 -383 -155c-76.667 -42 -145.667 -103.667 -207 -185c-27.333 -35.333 -78 -113.666 -152 -234.999c-32.667 -53.333 -49 -88 -49 -104z" />
    <glyph glyph-name="Odieresis" unicode="&#xd6;" horiz-adv-x="1306" 
d="M21 401c0 50.667 10.998 117.002 32.998 199.002c16.667 16.667 33.667 42.667 51 78c22 44 36.333 71.333 43 82c131.333 196.667 310.666 344 537.999 442c6.66699 2.66699 21 13.667 43 33c18 15.333 34 22.666 48 21.999c4 0 8.33301 -1.66699 13 -5
s9.66699 -5 15 -5c12 0 28.333 5.83301 49 17.5s37.334 17.5 50.001 17.5c9.33301 0 15.333 -8.33301 18 -25c8 9.33301 10.667 21 8 35c36.667 -10.667 92 -27.667 166 -51l72 -82c35.333 -42 53 -69.333 53 -82v-342c0 -152.667 -62 -293.334 -186 -422.001
c-105.333 -109.333 -238 -194.666 -398 -255.999c-20.667 -8 -82.667 -35.333 -186 -82c-2.66699 -2.66699 -4 -7.33398 -4 -14.001c0 -9.33301 2 -22.333 6 -39h-33c-15.333 -1.33301 -25.666 -2 -30.999 -2c-34 0 -87.667 30 -161 90
c-69.333 56 -113.666 101.667 -132.999 137c-49.333 91.333 -74 176 -74 254zM148.998 1536c0 32.667 15.334 61.333 46.001 86s63 37 97 37c40 0 60 -19 60 -57c0 -20.667 -12.333 -43.667 -37 -69s-47.334 -38 -68.001 -38h-86c0 4 -2 10.5 -6 19.5s-6 16.167 -6 21.5z
M206.999 449.001c0 -195.333 37.667 -293.001 113 -293.001c46.667 0 153.667 27.333 321 82l11 -2c4 2.66699 5.33301 4.66699 4 6c38 15.333 96 51.833 174 109.5s128.333 102.834 151 135.501c82 115.333 123 265 123 449c0 39.333 -8 79 -24 119
c-20.667 49.333 -48 73.666 -82 72.999c-64 0 -191.667 -51.667 -383 -155c-76.667 -42 -145.667 -103.667 -207 -185c-27.333 -35.333 -78 -113.666 -152 -234.999c-32.667 -53.333 -49 -88 -49 -104zM611.999 1507c0 30 17.332 64.167 51.999 102.5
s66.334 57.5 95.001 57.5c50.667 0 76 -15.667 76 -47c0 -24.667 -14.667 -54.667 -44 -90s-56.333 -53 -81 -53h-84c-9.33301 0 -14 10 -14 30z" />
    <glyph glyph-name="Ugrave" unicode="&#xd9;" horiz-adv-x="1167" 
d="M49 410c0 91.333 31.9961 221.666 95.9961 390.999c58.667 155.333 117.334 278 176.001 368c64 -74 96.333 -124.333 97 -151c0 -30 -32.5 -120.833 -97.5 -272.5s-97.5 -263.5 -97.5 -335.5c0 -75.333 23.833 -132.833 71.5 -172.5s109.834 -59.5 186.501 -59.5
c72.667 0 138.334 15.667 197.001 47c72.667 38 138.667 163.667 198 377c52 182.667 78 331 78 445c0 20.667 -3 50.334 -9 89.001s-9 68.334 -9 89.001c0 72.667 23 108.667 69 108c32.667 0 63.334 -34.667 92.001 -104c24.667 -59.333 37 -108 37 -146
c-2.66699 -6.66699 -8 -26.334 -16 -59.001l-82 -377c-94 -416.667 -237.333 -624.667 -430 -624c-22 0 -55.167 -1.83301 -99.5 -5.5s-77.5 -5.5 -99.5 -5.5c-94 0 -177.167 42.333 -249.5 127s-108.5 175 -108.5 271zM296.996 1849l5.00098 9.00098
c24.667 0 72 -9 142 -27s110.667 -33 122 -45c2.66699 -20.667 40.167 -79 112.5 -175s108.5 -155 108.5 -177c0 -20.667 -20.667 -31 -62 -31c-36.667 0 -90.834 32.333 -162.501 97s-107.5 115 -107.5 151c0 9.33301 -26 42.666 -78 99.999s-78.667 90 -80 98z" />
    <glyph glyph-name="Uacute" unicode="&#xda;" horiz-adv-x="1169" 
d="M49 410c0 91.333 31.9961 221.666 95.9961 390.999c58.667 155.333 117.334 278 176.001 368c64 -74 96.333 -124.333 97 -151c0 -30 -32.5 -120.833 -97.5 -272.5s-97.5 -263.5 -97.5 -335.5c0 -75.333 23.833 -132.833 71.5 -172.5s109.834 -59.5 186.501 -59.5
c72.667 0 138.334 15.667 197.001 47c72.667 38 138.667 163.667 198 377c52 182.667 78 331 78 445c0 20.667 -3 50.334 -9 89.001s-9 68.334 -9 89.001c0 72.667 23 108.667 69 108c32.667 0 63.334 -34.667 92.001 -104c24.667 -59.333 37 -108 37 -146
c-2.66699 -6.66699 -8 -26.334 -16 -59.001l-82 -377c-94 -416.667 -237.333 -624.667 -430 -624c-22 0 -55.167 -1.83301 -99.5 -5.5s-77.5 -5.5 -99.5 -5.5c-94 0 -177.167 42.333 -249.5 127s-108.5 175 -108.5 271zM435.996 1389c0 38 32.1641 92.501 96.4971 163.501
s114.833 106.5 151.5 106.5c10.667 0 37.334 16 80.001 48s67.334 48 74.001 48l47 -6c0 -36.667 13 -75 39 -115c0 -6.66699 -35 -35.334 -105 -86.001c-19.333 -1.33301 -77.666 -38.5 -174.999 -111.5s-157 -109.5 -179 -109.5c-19.333 0 -29 20.667 -29 62z" />
    <glyph glyph-name="Ucircumflex" unicode="&#xdb;" horiz-adv-x="1171" 
d="M51 410c0 91.333 31.9961 221.666 95.9961 390.999c58.667 155.333 117.334 278 176.001 368c64 -74 96.333 -124.333 97 -151c0 -30 -32.5 -120.833 -97.5 -272.5s-97.5 -263.5 -97.5 -335.5c0 -75.333 23.833 -132.833 71.5 -172.5s109.834 -59.5 186.501 -59.5
c72.667 0 138.334 15.667 197.001 47c72.667 38 138.667 163.667 198 377c52 182.667 78 331 78 445c0 20.667 -3 50.334 -9 89.001s-9 68.334 -9 89.001c0 72.667 23 108.667 69 108c32.667 0 63.334 -34.667 92.001 -104c24.667 -59.333 37 -108 37 -146
c-2.66699 -6.66699 -8 -26.334 -16 -59.001l-82 -377c-94 -416.667 -237.333 -624.667 -430 -624c-22 0 -55.167 -1.83301 -99.5 -5.5s-77.5 -5.5 -99.5 -5.5c-94 0 -177.167 42.333 -249.5 127s-108.5 175 -108.5 271zM327.996 1438
c0 31.333 96.3311 164.332 288.998 398.999c10.667 -4 26.334 -8 47.001 -12c0 -9.33301 2 -23.666 6 -42.999s6 -33.666 6 -42.999c0 -20.667 -2.66699 -51.5 -8 -92.5s-8 -71.833 -8 -92.5s5 -50.334 15 -89.001s15 -65.667 15 -81c0 -24.667 -7.33301 -36.667 -22 -36
c-39.333 0 -62.666 92 -69.999 276l-2 59l-8 11c-8 -18 -29.333 -50.333 -64 -97l-161 -215c-8 0 -15.833 6.83301 -23.5 20.5s-11.5 25.5 -11.5 35.5z" />
    <glyph glyph-name="Udieresis" unicode="&#xdc;" horiz-adv-x="1093" 
d="M49 410c0 91.333 31.9961 221.666 95.9961 390.999c58.667 155.333 117.334 278 176.001 368c64 -74 96.333 -124.333 97 -151c0 -30 -32.5 -120.833 -97.5 -272.5s-97.5 -263.5 -97.5 -335.5c0 -75.333 23.833 -132.833 71.5 -172.5s109.834 -59.5 186.501 -59.5
c72.667 0 138.334 15.667 197.001 47c72.667 38 138.667 163.667 198 377c52 182.667 78 331 78 445c0 20.667 -3 50.334 -9 89.001s-9 68.334 -9 89.001c0 72.667 23 108.667 69 108c32.667 0 63.334 -34.667 92.001 -104c24.667 -59.333 37 -108 37 -146
c-2.66699 -6.66699 -8 -26.334 -16 -59.001l-82 -377c-94 -416.667 -237.333 -624.667 -430 -624c-22 0 -55.167 -1.83301 -99.5 -5.5s-77.5 -5.5 -99.5 -5.5c-94 0 -177.167 42.333 -249.5 127s-108.5 175 -108.5 271zM222.996 1536c0 32.667 15.334 61.333 46.001 86
s63 37 97 37c40 0 60 -19 60 -57c0 -20.667 -12.333 -43.667 -37 -69s-47.334 -38 -68.001 -38h-86c0 4 -2 10.5 -6 19.5s-6 16.167 -6 21.5zM685.997 1507c0 30 17.332 64.167 51.999 102.5s66.334 57.5 95.001 57.5c50.667 0 76 -15.667 76 -47
c0 -24.667 -14.667 -54.667 -44 -90s-56.333 -53 -81 -53h-84c-9.33301 0 -14 10 -14 30z" />
    <glyph glyph-name="Yacute" unicode="&#xdd;" horiz-adv-x="1144" 
d="M-50 956c0 61.333 9.00098 152.334 27.001 273.001l25 39h39c45.333 -39.333 67.666 -87.333 66.999 -144c0 -19.333 -2.66699 -48 -8 -86s-8 -66.667 -8 -86c0 -130 64.667 -222.667 194 -278c60 -26 181 -52.667 363 -80l231 434c128.667 218.667 227.667 328 297 328
c13.333 0 24.5 -9.83301 33.5 -29.5s13.5 -37.167 13.5 -52.5c0 -9.33301 -34.667 -69.333 -104 -180l-127 -205c-84.667 -168 -213 -448.667 -385 -842c-32.667 -74 -62 -110.667 -88 -110c-60 0 -90 27.667 -90 83c0 53.333 21.667 122.333 65 207
c48 91.333 75.333 159 82 203c-2.66699 1.33301 -5.33398 2 -8.00098 2c-5.33301 0 -12.333 -2 -21 -6c-173.333 0 -313.666 44.333 -420.999 133c-117.333 95.333 -176.333 227.666 -177 396.999zM438.001 1389c0 38 32.1641 92.501 96.4971 163.501
s114.833 106.5 151.5 106.5c10.667 0 37.334 16 80.001 48s67.334 48 74.001 48l47 -6c0 -36.667 13 -75 39 -115c0 -6.66699 -35 -35.334 -105 -86.001c-19.333 -1.33301 -77.666 -38.5 -174.999 -111.5s-157 -109.5 -179 -109.5c-19.333 0 -29 20.667 -29 62z" />
    <glyph glyph-name="agrave" unicode="&#xe0;" horiz-adv-x="1118" 
d="M78 168c0 130 63.168 263.499 189.501 400.499s253.5 205.5 381.5 205.5c46.667 0 91 -29.333 133 -88c39.333 -53.333 59.333 -104.666 60 -153.999c0 -12 -47 -123 -141 -333c22 -12 55.333 -18.333 100 -19c22 0 54.5 6.83301 97.5 20.5s75.167 20.5 96.5 20.5
c23.333 0 47.333 -29.333 72 -88c-1.33301 -44 -44.333 -78.667 -129 -104c-62.667 -19.333 -124 -29 -184 -29c-72.667 -0 -125.334 31.333 -158.001 94c-10.667 22 -21.667 33.667 -33 35c-34 -22 -90.667 -48 -170 -78c-83.333 -32.667 -141.333 -49 -174 -49
c-42 0 -76.667 17.667 -104 53c-24.667 31.333 -37 69 -37 113zM217.001 181.999c24.667 -5.33301 48.667 -8 72 -8c114.667 0 221.667 75 321 225l111 170c-44 26 -83.667 39 -119 39c-54.667 0 -129.667 -57.333 -225 -172c-90 -108 -143.333 -192.667 -160 -254z
M266.001 1349l5.00098 9.00098c24.667 0 72 -9 142 -27s110.667 -33 122 -45c2.66699 -20.667 40.167 -79 112.5 -175s108.5 -155 108.5 -177c0 -20.667 -20.667 -31 -62 -31c-36.667 0 -90.834 32.333 -162.501 97s-107.5 115 -107.5 151c0 9.33301 -26 42.666 -78 99.999
s-78.667 90 -80 98z" />
    <glyph glyph-name="aacute" unicode="&#xe1;" horiz-adv-x="1120" 
d="M68 168c0 130 63.168 263.499 189.501 400.499s253.5 205.5 381.5 205.5c46.667 0 91 -29.333 133 -88c39.333 -53.333 59.333 -104.666 60 -153.999c0 -12 -47 -123 -141 -333c22 -12 55.333 -18.333 100 -19c22 0 54.5 6.83301 97.5 20.5s75.167 20.5 96.5 20.5
c23.333 0 47.333 -29.333 72 -88c-1.33301 -44 -44.333 -78.667 -129 -104c-62.667 -19.333 -124 -29 -184 -29c-72.667 -0 -125.334 31.333 -158.001 94c-10.667 22 -21.667 33.667 -33 35c-34 -22 -90.667 -48 -170 -78c-83.333 -32.667 -141.333 -49 -174 -49
c-42 0 -76.667 17.667 -104 53c-24.667 31.333 -37 69 -37 113zM207.001 181.999c24.667 -5.33301 48.667 -8 72 -8c114.667 0 221.667 75 321 225l111 170c-44 26 -83.667 39 -119 39c-54.667 0 -129.667 -57.333 -225 -172c-90 -108 -143.333 -192.667 -160 -254z
M395.001 888.999c0 38 32.1641 92.501 96.4971 163.501s114.833 106.5 151.5 106.5c10.667 0 37.334 16 80.001 48s67.334 48 74.001 48l47 -6c0 -36.667 13 -75 39 -115c0 -6.66699 -35 -35.334 -105 -86.001c-19.333 -1.33301 -77.666 -38.5 -174.999 -111.5
s-157 -109.5 -179 -109.5c-19.333 0 -29 20.667 -29 62z" />
    <glyph glyph-name="acircumflex" unicode="&#xe2;" horiz-adv-x="1130" 
d="M86 168c0 130 63.168 263.499 189.501 400.499s253.5 205.5 381.5 205.5c46.667 0 91 -29.333 133 -88c39.333 -53.333 59.333 -104.666 60 -153.999c0 -12 -47 -123 -141 -333c22 -12 55.333 -18.333 100 -19c22 0 54.5 6.83301 97.5 20.5s75.167 20.5 96.5 20.5
c23.333 0 47.333 -29.333 72 -88c-1.33301 -44 -44.333 -78.667 -129 -104c-62.667 -19.333 -124 -29 -184 -29c-72.667 -0 -125.334 31.333 -158.001 94c-10.667 22 -21.667 33.667 -33 35c-34 -22 -90.667 -48 -170 -78c-83.333 -32.667 -141.333 -49 -174 -49
c-42 0 -76.667 17.667 -104 53c-24.667 31.333 -37 69 -37 113zM225.001 181.999c24.667 -5.33301 48.667 -8 72 -8c114.667 0 221.667 75 321 225l111 170c-44 26 -83.667 39 -119 39c-54.667 0 -129.667 -57.333 -225 -172c-90 -108 -143.333 -192.667 -160 -254z
M303.001 937.999c0 31.333 96.3311 164.332 288.998 398.999c10.667 -4 26.334 -8 47.001 -12c0 -9.33301 2 -23.666 6 -42.999s6 -33.666 6 -42.999c0 -20.667 -2.66699 -51.5 -8 -92.5s-8 -71.833 -8 -92.5s5 -50.334 15 -89.001s15 -65.667 15 -81
c0 -24.667 -7.33301 -36.667 -22 -36c-39.333 0 -62.666 92 -69.999 276l-2 59l-8 11c-8 -18 -29.333 -50.333 -64 -97l-161 -215c-8 0 -15.833 6.83301 -23.5 20.5s-11.5 25.5 -11.5 35.5z" />
    <glyph glyph-name="atilde" unicode="&#xe3;" horiz-adv-x="1103" 
d="M61 168c0 130 63.168 263.499 189.501 400.499s253.5 205.5 381.5 205.5c46.667 0 91 -29.333 133 -88c39.333 -53.333 59.333 -104.666 60 -153.999c0 -12 -47 -123 -141 -333c22 -12 55.333 -18.333 100 -19c22 0 54.5 6.83301 97.5 20.5s75.167 20.5 96.5 20.5
c23.333 0 47.333 -29.333 72 -88c-1.33301 -44 -44.333 -78.667 -129 -104c-62.667 -19.333 -124 -29 -184 -29c-72.667 -0 -125.334 31.333 -158.001 94c-10.667 22 -21.667 33.667 -33 35c-34 -22 -90.667 -48 -170 -78c-83.333 -32.667 -141.333 -49 -174 -49
c-42 0 -76.667 17.667 -104 53c-24.667 31.333 -37 69 -37 113zM200.001 181.999c24.667 -5.33301 48.667 -8 72 -8c114.667 0 221.667 75 321 225l111 170c-44 26 -83.667 39 -119 39c-54.667 0 -129.667 -57.333 -225 -172c-90 -108 -143.333 -192.667 -160 -254z
M211.001 1054c0 26 32.667 57.668 98 95.001c61.333 35.333 107.333 53 138 53c5.33301 0 34.666 -14.667 87.999 -44s100.333 -44 141 -44c109.333 0 192 42.333 248 127c28.667 -38.667 43 -63.334 43 -74.001c0 -35.333 -34.333 -70.666 -103 -105.999
c-61.333 -32.667 -111.666 -49.334 -150.999 -50.001h-68c-12 0 -44.333 13.333 -97 40s-85 40 -97 40c-30 0 -70 -17.333 -120 -52s-71.667 -52 -65 -52c-10.667 0 -22.5 8.5 -35.5 25.5s-19.5 30.833 -19.5 41.5z" />
    <glyph glyph-name="adieresis" unicode="&#xe4;" horiz-adv-x="1079" 
d="M82 168c0 130 63.168 263.499 189.501 400.499s253.5 205.5 381.5 205.5c46.667 0 91 -29.333 133 -88c39.333 -53.333 59.333 -104.666 60 -153.999c0 -12 -47 -123 -141 -333c22 -12 55.333 -18.333 100 -19c22 0 54.5 6.83301 97.5 20.5s75.167 20.5 96.5 20.5
c23.333 0 47.333 -29.333 72 -88c-1.33301 -44 -44.333 -78.667 -129 -104c-62.667 -19.333 -124 -29 -184 -29c-72.667 -0 -125.334 31.333 -158.001 94c-10.667 22 -21.667 33.667 -33 35c-34 -22 -90.667 -48 -170 -78c-83.333 -32.667 -141.333 -49 -174 -49
c-42 0 -76.667 17.667 -104 53c-24.667 31.333 -37 69 -37 113zM197.001 1036c0 32.667 15.334 61.333 46.001 86s63 37 97 37c40 0 60 -19 60 -57c0 -20.667 -12.333 -43.667 -37 -69s-47.334 -38 -68.001 -38h-86c0 4 -2 10.5 -6 19.5s-6 16.167 -6 21.5zM221.002 181.998
c24.667 -5.33301 48.667 -8 72 -8c114.667 0 221.667 75 321 225l111 170c-44 26 -83.667 39 -119 39c-54.667 0 -129.667 -57.333 -225 -172c-90 -108 -143.333 -192.667 -160 -254zM660.002 1007c0 30 17.332 64.167 51.999 102.5s66.334 57.5 95.001 57.5
c50.667 0 76 -15.667 76 -47c0 -24.667 -14.667 -54.667 -44 -90s-56.333 -53 -81 -53h-84c-9.33301 0 -14 10 -14 30z" />
    <glyph glyph-name="aring" unicode="&#xe5;" horiz-adv-x="1130" 
d="M90 168c0 130 63.168 263.499 189.501 400.499s253.5 205.5 381.5 205.5c46.667 0 91 -29.333 133 -88c39.333 -53.333 59.333 -104.666 60 -153.999c0 -12 -47 -123 -141 -333c22 -12 55.333 -18.333 100 -19c22 0 54.5 6.83301 97.5 20.5s75.167 20.5 96.5 20.5
c23.333 0 47.333 -29.333 72 -88c-1.33301 -44 -44.333 -78.667 -129 -104c-62.667 -19.333 -124 -29 -184 -29c-72.667 -0 -125.334 31.333 -158.001 94c-10.667 22 -21.667 33.667 -33 35c-34 -22 -90.667 -48 -170 -78c-83.333 -32.667 -141.333 -49 -174 -49
c-42 0 -76.667 17.667 -104 53c-24.667 31.333 -37 69 -37 113zM229.001 181.999c24.667 -5.33301 48.667 -8 72 -8c114.667 0 221.667 75 321 225l111 170c-44 26 -83.667 39 -119 39c-54.667 0 -129.667 -57.333 -225 -172c-90 -108 -143.333 -192.667 -160 -254z
M473.001 806.999c0 108 58.667 161.667 176 161c46.667 0 86 -12.833 118 -38.5s48 -61.167 48 -106.5c0 -102.667 -55.333 -154 -166 -154c-117.333 0 -176 46 -176 138zM536.001 804.999c0 -35.333 16.667 -61.335 50 -78.002h112
c9.33301 6.66699 22.333 15.334 39 26.001c5.33301 19.333 8 40 8 62c0 20.667 -2.66699 42.334 -8 65.001c-8 5.33301 -16.333 13 -25 23l-129 2c-31.333 -12 -47 -45.333 -47 -100z" />
    <glyph glyph-name="ae" unicode="&#xe6;" horiz-adv-x="1835" 
d="M178 168c0 130 63.168 263.499 189.501 400.499s253.5 205.5 381.5 205.5c46.667 0 91 -29.333 133 -88c39.333 -53.333 59.333 -104.666 60 -153.999c0 -12 -47 -123 -141 -333c22 -12 55.333 -18.333 100 -19c22 0 54.5 6.83301 97.5 20.5s75.167 20.5 96.5 20.5
c23.333 0 47.333 -29.333 72 -88c-1.33301 -44 -44.333 -78.667 -129 -104c-62.667 -19.333 -124 -29 -184 -29c-72.667 -0 -125.334 31.333 -158.001 94c-10.667 22 -21.667 33.667 -33 35c-34 -22 -90.667 -48 -170 -78c-83.333 -32.667 -141.333 -49 -174 -49
c-42 0 -76.667 17.667 -104 53c-24.667 31.333 -37 69 -37 113zM317.001 181.999c24.667 -5.33301 48.667 -8 72 -8c114.667 0 221.667 75 321 225l111 170c-44 26 -83.667 39 -119 39c-54.667 0 -129.667 -57.333 -225 -172c-90 -108 -143.333 -192.667 -160 -254z
M971.001 290.999c0 138 74.333 260.668 223 368.001c136.667 100 276.667 150 420 150c31.333 0 56.333 -28 75 -84c15.333 -44 23 -85.667 23 -125c0 -90 -34.667 -162.333 -104 -217c-46.667 -35.333 -124.667 -71 -234 -107c-122.667 -39.333 -201.667 -69.333 -237 -90
c39.333 -28.667 107.333 -43 204 -43c23.333 0 56.833 7.83301 100.5 23.5s77.167 23.5 100.5 23.5c13.333 0 29.333 -14.667 48 -44s28 -51.333 28 -66c0 -38 -36.333 -67.333 -109 -88c-53.333 -15.333 -105 -23 -155 -23c-108 0 -197 26 -267 78
c-78 57.333 -116.667 138.666 -116 243.999zM1149 334l255.998 108.001c94 50.667 157.333 113.667 190 189h-51c-57.333 0 -131.666 -36.333 -222.999 -109c-83.333 -66.667 -140.666 -129.334 -171.999 -188.001z" />
    <glyph glyph-name="ccedilla" unicode="&#xe7;" horiz-adv-x="888" 
d="M148 281c0 88.667 18.999 166.333 56.999 233c22 38 71.333 100.667 148 188c1.33301 0 40 20 116 60c50.667 26 90.334 39 119.001 39c91.333 -0.666992 137 -61.667 137 -183c0 -16.667 -1.33301 -33 -4 -49c-20.667 -12 -50 -31.667 -88 -59
c-10.667 10.667 -16 23.667 -16 39c0 13.333 4 36.333 12 69l-10 9c-54.667 0 -127 -46.167 -217 -138.5s-135 -165.833 -135 -220.5c0 -79.333 139 -118 417 -116l2 -15c6.66699 -49.333 -21.333 -88.333 -84 -117c-48 -22 -99.667 -32.667 -155 -32
c-88.667 0 -160.667 26.5 -216 79.5s-83 124.167 -83 213.5zM472.999 54.999h104v-121c100 -35.333 150 -97.333 150 -186c0 -57.333 -28.667 -101.666 -86 -132.999c-46.667 -24.667 -100.667 -37 -162 -37v62c76.667 1.33301 130 32.666 160 93.999
c0 104 -55.333 155.667 -166 155v166z" />
    <glyph glyph-name="egrave" unicode="&#xe8;" horiz-adv-x="1050" 
d="M187 291c0 138 74.333 260.668 223 368.001c136.667 100 276.667 150 420 150c31.333 0 56.333 -28 75 -84c15.333 -44 23 -85.667 23 -125c0 -90 -34.667 -162.333 -104 -217c-46.667 -35.333 -124.667 -71 -234 -107c-122.667 -39.333 -201.667 -69.333 -237 -90
c39.333 -28.667 107.333 -43 204 -43c23.333 0 56.833 7.83301 100.5 23.5s77.167 23.5 100.5 23.5c13.333 0 29.333 -14.667 48 -44s28 -51.333 28 -66c0 -38 -36.333 -67.333 -109 -88c-53.333 -15.333 -105 -23 -155 -23c-108 0 -197 26 -267 78
c-78 57.333 -116.667 138.666 -116 243.999zM356 1349l5.00098 9.00098c24.667 0 72 -9 142 -27s110.667 -33 122 -45c2.66699 -20.667 40.167 -79 112.5 -175s108.5 -155 108.5 -177c0 -20.667 -20.667 -31 -62 -31c-36.667 0 -90.834 32.333 -162.501 97
s-107.5 115 -107.5 151c0 9.33301 -26 42.666 -78 99.999s-78.667 90 -80 98zM365.001 334.002l255.998 108.001c94 50.667 157.333 113.667 190 189h-51c-57.333 0 -131.666 -36.333 -222.999 -109c-83.333 -66.667 -140.666 -129.334 -171.999 -188.001z" />
    <glyph glyph-name="eacute" unicode="&#xe9;" horiz-adv-x="1001" 
d="M142 291c0 138 74.333 260.668 223 368.001c136.667 100 276.667 150 420 150c31.333 0 56.333 -28 75 -84c15.333 -44 23 -85.667 23 -125c0 -90 -34.667 -162.333 -104 -217c-46.667 -35.333 -124.667 -71 -234 -107c-122.667 -39.333 -201.667 -69.333 -237 -90
c39.333 -28.667 107.333 -43 204 -43c23.333 0 56.833 7.83301 100.5 23.5s77.167 23.5 100.5 23.5c13.333 0 29.333 -14.667 48 -44s28 -51.333 28 -66c0 -38 -36.333 -67.333 -109 -88c-53.333 -15.333 -105 -23 -155 -23c-108 0 -197 26 -267 78
c-78 57.333 -116.667 138.666 -116 243.999zM320 334.001l255.998 108.001c94 50.667 157.333 113.667 190 189h-51c-57.333 0 -131.666 -36.333 -222.999 -109c-83.333 -66.667 -140.666 -129.334 -171.999 -188.001zM449.998 889.002c0 38 32.1641 92.501 96.4971 163.501
s114.833 106.5 151.5 106.5c10.667 0 37.334 16 80.001 48s67.334 48 74.001 48l47 -6c0 -36.667 13 -75 39 -115c0 -6.66699 -35 -35.334 -105 -86.001c-19.333 -1.33301 -77.666 -38.5 -174.999 -111.5s-157 -109.5 -179 -109.5c-19.333 0 -29 20.667 -29 62z" />
    <glyph glyph-name="ecircumflex" unicode="&#xea;" horiz-adv-x="1009" 
d="M150 291c0 138 74.333 260.668 223 368.001c136.667 100 276.667 150 420 150c31.333 0 56.333 -28 75 -84c15.333 -44 23 -85.667 23 -125c0 -90 -34.667 -162.333 -104 -217c-46.667 -35.333 -124.667 -71 -234 -107c-122.667 -39.333 -201.667 -69.333 -237 -90
c39.333 -28.667 107.333 -43 204 -43c23.333 0 56.833 7.83301 100.5 23.5s77.167 23.5 100.5 23.5c13.333 0 29.333 -14.667 48 -44s28 -51.333 28 -66c0 -38 -36.333 -67.333 -109 -88c-53.333 -15.333 -105 -23 -155 -23c-108 0 -197 26 -267 78
c-78 57.333 -116.667 138.666 -116 243.999zM328 334.001l255.998 108.001c94 50.667 157.333 113.667 190 189h-51c-57.333 0 -131.666 -36.333 -222.999 -109c-83.333 -66.667 -140.666 -129.334 -171.999 -188.001zM347.998 938.002
c0 31.333 96.3311 164.332 288.998 398.999c10.667 -4 26.334 -8 47.001 -12c0 -9.33301 2 -23.666 6 -42.999s6 -33.666 6 -42.999c0 -20.667 -2.66699 -51.5 -8 -92.5s-8 -71.833 -8 -92.5s5 -50.334 15 -89.001s15 -65.667 15 -81c0 -24.667 -7.33301 -36.667 -22 -36
c-39.333 0 -62.666 92 -69.999 276l-2 59l-8 11c-8 -18 -29.333 -50.333 -64 -97l-161 -215c-8 0 -15.833 6.83301 -23.5 20.5s-11.5 25.5 -11.5 35.5z" />
    <glyph glyph-name="edieresis" unicode="&#xeb;" horiz-adv-x="940" 
d="M86 291c0 138 74.333 260.668 223 368.001c136.667 100 276.667 150 420 150c31.333 0 56.333 -28 75 -84c15.333 -44 23 -85.667 23 -125c0 -90 -34.667 -162.333 -104 -217c-46.667 -35.333 -124.667 -71 -234 -107c-122.667 -39.333 -201.667 -69.333 -237 -90
c39.333 -28.667 107.333 -43 204 -43c23.333 0 56.833 7.83301 100.5 23.5s77.167 23.5 100.5 23.5c13.333 0 29.333 -14.667 48 -44s28 -51.333 28 -66c0 -38 -36.333 -67.333 -109 -88c-53.333 -15.333 -105 -23 -155 -23c-108 0 -197 26 -267 78
c-78 57.333 -116.667 138.666 -116 243.999zM182 1036c0 32.667 15.334 61.333 46.001 86s63 37 97 37c40 0 60 -19 60 -57c0 -20.667 -12.333 -43.667 -37 -69s-47.334 -38 -68.001 -38h-86c0 4 -2 10.5 -6 19.5s-6 16.167 -6 21.5zM264.001 334l255.998 108.001
c94 50.667 157.333 113.667 190 189h-51c-57.333 0 -131.666 -36.333 -222.999 -109c-83.333 -66.667 -140.666 -129.334 -171.999 -188.001zM644.999 1007c0 30 17.332 64.167 51.999 102.5s66.334 57.5 95.001 57.5c50.667 0 76 -15.667 76 -47
c0 -24.667 -14.667 -54.667 -44 -90s-56.333 -53 -81 -53h-84c-9.33301 0 -14 10 -14 30z" />
    <glyph glyph-name="igrave" unicode="&#xec;" horiz-adv-x="770" 
d="M112 1349l5.00098 9.00098c24.667 0 72 -9 142 -27s110.667 -33 122 -45c2.66699 -20.667 40.167 -79 112.5 -175s108.5 -155 108.5 -177c0 -20.667 -20.667 -31 -62 -31c-36.667 0 -90.834 32.333 -162.501 97s-107.5 115 -107.5 151c0 9.33301 -26 42.666 -78 99.999
s-78.667 90 -80 98zM420.001 113.001c0 91.333 19.666 195.667 58.999 313l109 305c40.667 -6.66699 61 -50.334 61 -131.001c0 -72.667 -17.667 -177.167 -53 -313.5s-71.666 -233.166 -108.999 -290.499h-40c-18 28.667 -27 67.667 -27 117z" />
    <glyph glyph-name="iacute" unicode="&#xed;" horiz-adv-x="589" 
d="M41 889c0 38 32.1641 92.501 96.4971 163.501s114.833 106.5 151.5 106.5c10.667 0 37.334 16 80.001 48s67.334 48 74.001 48l47 -6c0 -36.667 13 -75 39 -115c0 -6.66699 -35 -35.334 -105 -86.001c-19.333 -1.33301 -77.666 -38.5 -174.999 -111.5
s-157 -109.5 -179 -109.5c-19.333 0 -29 20.667 -29 62zM208.997 113.001c0 91.333 19.666 195.667 58.999 313l109 305c40.667 -6.66699 61 -50.334 61 -131.001c0 -72.667 -17.667 -177.167 -53 -313.5s-71.666 -233.166 -108.999 -290.499h-40
c-18 28.667 -27 67.667 -27 117z" />
    <glyph glyph-name="icircumflex" unicode="&#xee;" horiz-adv-x="516" 
d="M-90 938c0 31.333 96.3311 164.332 288.998 398.999c10.667 -4 26.334 -8 47.001 -12c0 -9.33301 2 -23.666 6 -42.999s6 -33.666 6 -42.999c0 -20.667 -2.66699 -51.5 -8 -92.5s-8 -71.833 -8 -92.5s5 -50.334 15 -89.001s15 -65.667 15 -81
c0 -24.667 -7.33301 -36.667 -22 -36c-39.333 0 -62.666 92 -69.999 276l-2 59l-8 11c-8 -18 -29.333 -50.333 -64 -97l-161 -215c-8 0 -15.833 6.83301 -23.5 20.5s-11.5 25.5 -11.5 35.5zM188.998 112.999c0 91.333 19.666 195.667 58.999 313l109 305
c40.667 -6.66699 61 -50.334 61 -131.001c0 -72.667 -17.667 -177.167 -53 -313.5s-71.666 -233.166 -108.999 -290.499h-40c-18 28.667 -27 67.667 -27 117z" />
    <glyph glyph-name="idieresis" unicode="&#xef;" horiz-adv-x="671" 
d="M-82 1036c0 32.667 15.334 61.333 46.001 86s63 37 97 37c40 0 60 -19 60 -57c0 -20.667 -12.333 -43.667 -37 -69s-47.334 -38 -68.001 -38h-86c0 4 -2 10.5 -6 19.5s-6 16.167 -6 21.5zM299.001 112.999c0 91.333 19.666 195.667 58.999 313l109 305
c40.667 -6.66699 61 -50.334 61 -131.001c0 -72.667 -17.667 -177.167 -53 -313.5s-71.666 -233.166 -108.999 -290.499h-40c-18 28.667 -27 67.667 -27 117zM381 1007c0 30 17.332 64.167 51.999 102.5s66.334 57.5 95.001 57.5c50.667 0 76 -15.667 76 -47
c0 -24.667 -14.667 -54.667 -44 -90s-56.333 -53 -81 -53h-84c-9.33301 0 -14 10 -14 30z" />
    <glyph glyph-name="ntilde" unicode="&#xf1;" horiz-adv-x="942" 
d="M45 147c0 18 16.998 78.999 50.998 182.999c31.333 96.667 54 160 68 190c-8 13.333 -12 29 -12 47l2 21c39.333 35.333 64.333 58.333 75 69c28.667 27.333 50.667 54 66 80c19.333 -6.66699 51.333 -34 96 -82c110.667 62.667 191.334 94.334 242.001 95.001
c38 0 77.667 -33.667 119 -101c38 -60 57 -111 57 -153c0 -54.667 -15.667 -140.667 -47 -258c-35.333 -132.667 -69.666 -206 -102.999 -220c-39.333 54.667 -59 115 -59 181c0 38 11.333 93.167 34 165.5s34 127.5 34 165.5c0 28.667 -15.667 43 -47 43
c-110.667 0 -261.667 -191.667 -453 -575c-10.667 -6.66699 -21.667 -10 -33 -10c-26 0 -47.667 21 -65 63c-16.667 34 -25 66 -25 96zM179.998 1054c0 26 32.667 57.668 98 95.001c61.333 35.333 107.333 53 138 53c5.33301 0 34.666 -14.667 87.999 -44
s100.333 -44 141 -44c109.333 0 192 42.333 248 127c28.667 -38.667 43 -63.334 43 -74.001c0 -35.333 -34.333 -70.666 -103 -105.999c-61.333 -32.667 -111.666 -49.334 -150.999 -50.001h-68c-12 0 -44.333 13.333 -97 40s-85 40 -97 40c-30 0 -70 -17.333 -120 -52
s-71.667 -52 -65 -52c-10.667 0 -22.5 8.5 -35.5 25.5s-19.5 30.833 -19.5 41.5z" />
    <glyph glyph-name="ograve" unicode="&#xf2;" horiz-adv-x="987" 
d="M219 487c0 32.667 23.168 78.5 69.501 137.5s85.166 89.833 116.499 92.5c36.667 16.667 75.667 33 117 49c56 23.333 92 35 108 35c69.333 0 131 -34.333 185 -103c47.333 -62 71 -129.333 71 -202c0 -106.667 -57.667 -215 -173 -325s-226.333 -165 -333 -165
c-108 0 -161.667 160.333 -161 481zM364.001 186c96.667 0 186 30 268 90c90.667 67.333 136 147.333 136 240c0 65.333 -31.667 98 -95 98c-38 0 -84.333 -14.333 -139 -43c-4 -8 -15.167 -18.5 -33.5 -31.5s-30.5 -22.833 -36.5 -29.5
c-24.667 -35.333 -58 -143.333 -100 -324zM391.001 1349l5.00098 9.00098c24.667 0 72 -9 142 -27s110.667 -33 122 -45c2.66699 -20.667 40.167 -79 112.5 -175s108.5 -155 108.5 -177c0 -20.667 -20.667 -31 -62 -31c-36.667 0 -90.834 32.333 -162.501 97
s-107.5 115 -107.5 151c0 9.33301 -26 42.666 -78 99.999s-78.667 90 -80 98z" />
    <glyph glyph-name="oacute" unicode="&#xf3;" horiz-adv-x="937" 
d="M121 487c0 32.667 23.168 78.5 69.501 137.5s85.166 89.833 116.499 92.5c36.667 16.667 75.667 33 117 49c56 23.333 92 35 108 35c69.333 0 131 -34.333 185 -103c47.333 -62 71 -129.333 71 -202c0 -106.667 -57.667 -215 -173 -325s-226.333 -165 -333 -165
c-108 0 -161.667 160.333 -161 481zM266.001 186c96.667 0 186 30 268 90c90.667 67.333 136 147.333 136 240c0 65.333 -31.667 98 -95 98c-38 0 -84.333 -14.333 -139 -43c-4 -8 -15.167 -18.5 -33.5 -31.5s-30.5 -22.833 -36.5 -29.5
c-24.667 -35.333 -58 -143.333 -100 -324zM432.001 889c0 38 32.1641 92.501 96.4971 163.501s114.833 106.5 151.5 106.5c10.667 0 37.334 16 80.001 48s67.334 48 74.001 48l47 -6c0 -36.667 13 -75 39 -115c0 -6.66699 -35 -35.334 -105 -86.001
c-19.333 -1.33301 -77.666 -38.5 -174.999 -111.5s-157 -109.5 -179 -109.5c-19.333 0 -29 20.667 -29 62z" />
    <glyph glyph-name="ocircumflex" unicode="&#xf4;" horiz-adv-x="923" 
d="M131 487c0 32.667 23.168 78.5 69.501 137.5s85.166 89.833 116.499 92.5c36.667 16.667 75.667 33 117 49c56 23.333 92 35 108 35c69.333 0 131 -34.333 185 -103c47.333 -62 71 -129.333 71 -202c0 -106.667 -57.667 -215 -173 -325s-226.333 -165 -333 -165
c-108 0 -161.667 160.333 -161 481zM276.001 186c96.667 0 186 30 268 90c90.667 67.333 136 147.333 136 240c0 65.333 -31.667 98 -95 98c-38 0 -84.333 -14.333 -139 -43c-4 -8 -15.167 -18.5 -33.5 -31.5s-30.5 -22.833 -36.5 -29.5
c-24.667 -35.333 -58 -143.333 -100 -324zM332.001 938c0 31.333 96.3311 164.332 288.998 398.999c10.667 -4 26.334 -8 47.001 -12c0 -9.33301 2 -23.666 6 -42.999s6 -33.666 6 -42.999c0 -20.667 -2.66699 -51.5 -8 -92.5s-8 -71.833 -8 -92.5s5 -50.334 15 -89.001
s15 -65.667 15 -81c0 -24.667 -7.33301 -36.667 -22 -36c-39.333 0 -62.666 92 -69.999 276l-2 59l-8 11c-8 -18 -29.333 -50.333 -64 -97l-161 -215c-8 0 -15.833 6.83301 -23.5 20.5s-11.5 25.5 -11.5 35.5z" />
    <glyph glyph-name="otilde" unicode="&#xf5;" horiz-adv-x="849" 
d="M21 487c0 32.667 23.168 78.5 69.501 137.5s85.166 89.833 116.499 92.5c36.667 16.667 75.667 33 117 49c56 23.333 92 35 108 35c69.333 0 131 -34.333 185 -103c47.333 -62 71 -129.333 71 -202c0 -106.667 -57.667 -215 -173 -325s-226.333 -165 -333 -165
c-108 0 -161.667 160.333 -161 481zM153.001 1054c0 26 32.667 57.668 98 95.001c61.333 35.333 107.333 53 138 53c5.33301 0 34.666 -14.667 87.999 -44s100.333 -44 141 -44c109.333 0 192 42.333 248 127c28.667 -38.667 43 -63.334 43 -74.001
c0 -35.333 -34.333 -70.666 -103 -105.999c-61.333 -32.667 -111.666 -49.334 -150.999 -50.001h-68c-12 0 -44.333 13.333 -97 40s-85 40 -97 40c-30 0 -70 -17.333 -120 -52s-71.667 -52 -65 -52c-10.667 0 -22.5 8.5 -35.5 25.5s-19.5 30.833 -19.5 41.5z
M166.001 186.001c96.667 0 186 30 268 90c90.667 67.333 136 147.333 136 240c0 65.333 -31.667 98 -95 98c-38 0 -84.333 -14.333 -139 -43c-4 -8 -15.167 -18.5 -33.5 -31.5s-30.5 -22.833 -36.5 -29.5c-24.667 -35.333 -58 -143.333 -100 -324z" />
    <glyph glyph-name="odieresis" unicode="&#xf6;" horiz-adv-x="864" 
d="M62 487c0 32.667 23.168 78.5 69.501 137.5s85.166 89.833 116.499 92.5c36.667 16.667 75.667 33 117 49c56 23.333 92 35 108 35c69.333 0 131 -34.333 185 -103c47.333 -62 71 -129.333 71 -202c0 -106.667 -57.667 -215 -173 -325s-226.333 -165 -333 -165
c-108 0 -161.667 160.333 -161 481zM160.001 1036c0 32.667 15.334 61.333 46.001 86s63 37 97 37c40 0 60 -19 60 -57c0 -20.667 -12.333 -43.667 -37 -69s-47.334 -38 -68.001 -38h-86c0 4 -2 10.5 -6 19.5s-6 16.167 -6 21.5zM207.002 185.999c96.667 0 186 30 268 90
c90.667 67.333 136 147.333 136 240c0 65.333 -31.667 98 -95 98c-38 0 -84.333 -14.333 -139 -43c-4 -8 -15.167 -18.5 -33.5 -31.5s-30.5 -22.833 -36.5 -29.5c-24.667 -35.333 -58 -143.333 -100 -324zM623.002 1007c0 30 17.332 64.167 51.999 102.5
s66.334 57.5 95.001 57.5c50.667 0 76 -15.667 76 -47c0 -24.667 -14.667 -54.667 -44 -90s-56.333 -53 -81 -53h-84c-9.33301 0 -14 10 -14 30z" />
    <glyph glyph-name="ugrave" unicode="&#xf9;" horiz-adv-x="950" 
d="M174 233c0 267.333 9.66602 433.335 28.999 498.002c4 12 16.167 25.667 36.5 41s32.833 26.333 37.5 33h53c19.333 -22 29.666 -50.667 30.999 -86c-1.33301 26 -2.33301 -4.66699 -3 -92c0 -35.333 1.5 -87.833 4.5 -157.5s4.5 -122.5 4.5 -158.5
c0 -36.667 -3 -65.334 -9 -86.001c6.66699 -5.33301 16.334 -8 29.001 -8h55c50.667 0 123.334 82.667 218.001 248c18 30 73 139.333 165 328c27.333 -16.667 53.333 -59.667 78 -129c-1.33301 -15.333 -10.666 -41.333 -27.999 -78l-39 -82
c-36.667 -106.667 -91.334 -206.334 -164.001 -299.001c-92.667 -118.667 -182 -178 -268 -178c-57.333 0 -110 20 -158 60s-72 88.667 -72 146zM386.999 1349l5.00098 9.00098c24.667 0 72 -9 142 -27s110.667 -33 122 -45c2.66699 -20.667 40.167 -79 112.5 -175
s108.5 -155 108.5 -177c0 -20.667 -20.667 -31 -62 -31c-36.667 0 -90.834 32.333 -162.501 97s-107.5 115 -107.5 151c0 9.33301 -26 42.666 -78 99.999s-78.667 90 -80 98z" />
    <glyph glyph-name="uacute" unicode="&#xfa;" 
d="M92 233c0 267.333 9.66602 433.335 28.999 498.002c4 12 16.167 25.667 36.5 41s32.833 26.333 37.5 33h53c19.333 -22 29.666 -50.667 30.999 -86c-1.33301 26 -2.33301 -4.66699 -3 -92c0 -35.333 1.5 -87.833 4.5 -157.5s4.5 -122.5 4.5 -158.5
c0 -36.667 -3 -65.334 -9 -86.001c6.66699 -5.33301 16.334 -8 29.001 -8h55c50.667 0 123.334 82.667 218.001 248c18 30 73 139.333 165 328c27.333 -16.667 53.333 -59.667 78 -129c-1.33301 -15.333 -10.666 -41.333 -27.999 -78l-39 -82
c-36.667 -106.667 -91.334 -206.334 -164.001 -299.001c-92.667 -118.667 -182 -178 -268 -178c-57.333 0 -110 20 -158 60s-72 88.667 -72 146zM443.999 889.002c0 38 32.1641 92.501 96.4971 163.501s114.833 106.5 151.5 106.5c10.667 0 37.334 16 80.001 48
s67.334 48 74.001 48l47 -6c0 -36.667 13 -75 39 -115c0 -6.66699 -35 -35.334 -105 -86.001c-19.333 -1.33301 -77.666 -38.5 -174.999 -111.5s-157 -109.5 -179 -109.5c-19.333 0 -29 20.667 -29 62z" />
    <glyph glyph-name="ucircumflex" unicode="&#xfb;" horiz-adv-x="919" 
d="M104 233c0 267.333 9.66602 433.335 28.999 498.002c4 12 16.167 25.667 36.5 41s32.833 26.333 37.5 33h53c19.333 -22 29.666 -50.667 30.999 -86c-1.33301 26 -2.33301 -4.66699 -3 -92c0 -35.333 1.5 -87.833 4.5 -157.5s4.5 -122.5 4.5 -158.5
c0 -36.667 -3 -65.334 -9 -86.001c6.66699 -5.33301 16.334 -8 29.001 -8h55c50.667 0 123.334 82.667 218.001 248c18 30 73 139.333 165 328c27.333 -16.667 53.333 -59.667 78 -129c-1.33301 -15.333 -10.666 -41.333 -27.999 -78l-39 -82
c-36.667 -106.667 -91.334 -206.334 -164.001 -299.001c-92.667 -118.667 -182 -178 -268 -178c-57.333 0 -110 20 -158 60s-72 88.667 -72 146zM345.999 938.002c0 31.333 96.3311 164.332 288.998 398.999c10.667 -4 26.334 -8 47.001 -12c0 -9.33301 2 -23.666 6 -42.999
s6 -33.666 6 -42.999c0 -20.667 -2.66699 -51.5 -8 -92.5s-8 -71.833 -8 -92.5s5 -50.334 15 -89.001s15 -65.667 15 -81c0 -24.667 -7.33301 -36.667 -22 -36c-39.333 0 -62.666 92 -69.999 276l-2 59l-8 11c-8 -18 -29.333 -50.333 -64 -97l-161 -215
c-8 0 -15.833 6.83301 -23.5 20.5s-11.5 25.5 -11.5 35.5z" />
    <glyph glyph-name="udieresis" unicode="&#xfc;" horiz-adv-x="874" 
d="M59 233c0 267.333 9.66602 433.335 28.999 498.002c4 12 16.167 25.667 36.5 41s32.833 26.333 37.5 33h53c19.333 -22 29.666 -50.667 30.999 -86c-1.33301 26 -2.33301 -4.66699 -3 -92c0 -35.333 1.5 -87.833 4.5 -157.5s4.5 -122.5 4.5 -158.5
c0 -36.667 -3 -65.334 -9 -86.001c6.66699 -5.33301 16.334 -8 29.001 -8h55c50.667 0 123.334 82.667 218.001 248c18 30 73 139.333 165 328c27.333 -16.667 53.333 -59.667 78 -129c-1.33301 -15.333 -10.666 -41.333 -27.999 -78l-39 -82
c-36.667 -106.667 -91.334 -206.334 -164.001 -299.001c-92.667 -118.667 -182 -178 -268 -178c-57.333 0 -110 20 -158 60s-72 88.667 -72 146zM198.999 1036c0 32.667 15.334 61.333 46.001 86s63 37 97 37c40 0 60 -19 60 -57c0 -20.667 -12.333 -43.667 -37 -69
s-47.334 -38 -68.001 -38h-86c0 4 -2 10.5 -6 19.5s-6 16.167 -6 21.5zM662 1007c0 30 17.332 64.167 51.999 102.5s66.334 57.5 95.001 57.5c50.667 0 76 -15.667 76 -47c0 -24.667 -14.667 -54.667 -44 -90s-56.333 -53 -81 -53h-84c-9.33301 0 -14 10 -14 30z" />
    <glyph glyph-name="yacute" unicode="&#xfd;" horiz-adv-x="880" 
d="M51 412c0 60 7.66504 122.672 22.998 188.005c22 94 52 141 90 141c13.333 0 29.333 -17.333 48 -52s28 -60.334 28 -77.001c0 -30 -9.66699 -73.667 -29 -131s-29 -101 -29 -131c0 -83.333 59 -125 177 -125l170 305c94 164 154.667 246 182 246
c20.667 0 37.834 -9.16699 51.501 -27.5s20.5 -38.5 20.5 -60.5c0 -13.333 -35.5 -80.5 -106.5 -201.5s-106.5 -188.167 -106.5 -201.5c0 -6.66699 7.83301 -12.834 23.5 -18.501s23.5 -13.167 23.5 -22.5c0 -10.667 -9.66699 -24.334 -29 -41.001
c-9.33301 -6.66699 -23 -17.667 -41 -33c-44 -39.333 -81.667 -105.666 -113 -198.999c-18 -50.667 -38.333 -131.667 -61 -243c-22 -106.667 -42.667 -187.334 -62 -242.001c-15.333 -40.667 -41 -61 -77 -61c-38 0 -57.333 47 -58 141c0 38 14.333 119.333 43 244
c28.667 120 51.334 201 68.001 243c-92.667 35.333 -155.167 78.666 -187.5 129.999s-48.5 127.666 -48.5 228.999zM455.998 889.005c0 38 32.1641 92.501 96.4971 163.501s114.833 106.5 151.5 106.5c10.667 0 37.334 16 80.001 48s67.334 48 74.001 48l47 -6
c0 -36.667 13 -75 39 -115c0 -6.66699 -35 -35.334 -105 -86.001c-19.333 -1.33301 -77.666 -38.5 -174.999 -111.5s-157 -109.5 -179 -109.5c-19.333 0 -29 20.667 -29 62z" />
    <glyph glyph-name="ydieresis" unicode="&#xff;" horiz-adv-x="847" 
d="M30 412c0 60 7.66504 122.672 22.998 188.005c22 94 52 141 90 141c13.333 0 29.333 -17.333 48 -52s28 -60.334 28 -77.001c0 -30 -9.66699 -73.667 -29 -131s-29 -101 -29 -131c0 -83.333 59 -125 177 -125l170 305c94 164 154.667 246 182 246
c20.667 0 37.834 -9.16699 51.501 -27.5s20.5 -38.5 20.5 -60.5c0 -13.333 -35.5 -80.5 -106.5 -201.5s-106.5 -188.167 -106.5 -201.5c0 -6.66699 7.83301 -12.834 23.5 -18.501s23.5 -13.167 23.5 -22.5c0 -10.667 -9.66699 -24.334 -29 -41.001
c-9.33301 -6.66699 -23 -17.667 -41 -33c-44 -39.333 -81.667 -105.666 -113 -198.999c-18 -50.667 -38.333 -131.667 -61 -243c-22 -106.667 -42.667 -187.334 -62 -242.001c-15.333 -40.667 -41 -61 -77 -61c-38 0 -57.333 47 -58 141c0 38 14.333 119.333 43 244
c28.667 120 51.334 201 68.001 243c-92.667 35.333 -155.167 78.666 -187.5 129.999s-48.5 127.666 -48.5 228.999zM222.998 1036c0 32.667 15.334 61.333 46.001 86s63 37 97 37c40 0 60 -19 60 -57c0 -20.667 -12.333 -43.667 -37 -69s-47.334 -38 -68.001 -38h-86
c0 4 -2 10.5 -6 19.5s-6 16.167 -6 21.5zM685.999 1007c0 30 17.332 64.167 51.999 102.5s66.334 57.5 95.001 57.5c50.667 0 76 -15.667 76 -47c0 -24.667 -14.667 -54.667 -44 -90s-56.333 -53 -81 -53h-84c-9.33301 0 -14 10 -14 30z" />
    <glyph glyph-name="OE" unicode="&#x152;" horiz-adv-x="2039" 
d="M-231 401c0 50.667 10.998 117.002 32.998 199.002c16.667 16.667 33.667 42.667 51 78c22 44 36.333 71.333 43 82c131.333 196.667 310.666 344 537.999 442c6.66699 2.66699 21 13.667 43 33c18 15.333 34 22.666 48 21.999c4 0 8.33301 -1.66699 13 -5
s9.66699 -5 15 -5c12 0 28.333 5.83301 49 17.5s37.334 17.5 50.001 17.5c9.33301 0 15.333 -8.33301 18 -25c8 9.33301 10.667 21 8 35c36.667 -10.667 92 -27.667 166 -51l72 -82c35.333 -42 53 -69.333 53 -82v-342c0 -152.667 -62 -293.334 -186 -422.001
c-105.333 -109.333 -238 -194.666 -398 -255.999c-20.667 -8 -82.667 -35.333 -186 -82c-2.66699 -2.66699 -4 -7.33398 -4 -14.001c0 -9.33301 2 -22.333 6 -39h-33c-15.333 -1.33301 -25.666 -2 -30.999 -2c-34 0 -87.667 30 -161 90
c-69.333 56 -113.666 101.667 -132.999 137c-49.333 91.333 -74 176 -74 254zM-45.002 449.002c0 -195.333 37.667 -293.001 113 -293.001c46.667 0 153.667 27.333 321 82l11 -2c4 2.66699 5.33301 4.66699 4 6c38 15.333 96 51.833 174 109.5s128.333 102.834 151 135.501
c82 115.333 123 265 123 449c0 39.333 -8 79 -24 119c-20.667 49.333 -48 73.666 -82 72.999c-64 0 -191.667 -51.667 -383 -155c-76.667 -42 -145.667 -103.667 -207 -185c-27.333 -35.333 -78 -113.666 -152 -234.999c-32.667 -53.333 -49 -88 -49 -104zM591.998 203.001
c0 53.333 20.333 132.334 61 237.001c0 6.66699 -2 17.667 -6 33s-6 27 -6 35c0 5.33301 0.666992 10 2 14c4 20.667 39 42 105 64c35.333 22 102.666 117.333 201.999 286c-13.333 49.333 -20 87 -20 113c0 27.333 15 52.666 45 75.999l80 49
c35.333 30 61.333 72.333 78 127h53c35.333 -38 64 -57 86 -57c19.333 0 80 12.333 182 37c66.667 18 168.334 43 305.001 75c110.667 26 213 39 307 39c19.333 0 43.666 -13.5 73 -40.5c29.333 -27 44 -50.167 44 -69.5c0 -16.667 -7.5 -31.834 -22.5 -45.501
s-30.5 -20.5 -46.5 -20.5c-6.66699 0 -11.5 2 -14.5 6s-7.83301 6 -14.5 6c-13.333 0 -36 -6 -68 -18c-35.333 -13.333 -59 -21.666 -71 -24.999c-56 -12 -172.333 -32.333 -349 -61c-140.667 -22 -254.667 -47.333 -342 -76c-49.333 -15.333 -93 -64.333 -131 -147
c-46.667 -96.667 -83.334 -156 -110.001 -178c12 -4 24.333 -6.33301 37 -7c19.333 0 46.333 5.83301 81 17.5s61.334 17.5 80.001 17.5c174.667 0 305.334 35.667 392.001 107c58.667 -48 88 -81.667 88 -101c0 -44 -64.333 -84.333 -193 -121
c-32.667 -9.33301 -159 -37 -379 -83c-151.333 -32.667 -242 -60.667 -272 -84c-18 -13.333 -37 -49 -57 -107c-27.333 -72.667 -43.333 -113 -48 -121c101.333 -20.667 154.666 -30.667 159.999 -30c46.667 0 116.667 5.66699 210 17s163.333 17 210 17
c6.66699 0 47 19.333 121 58l33 -52c-1.33301 -8 0 -32.333 4 -73c-91.333 -88.667 -268.333 -133 -531 -133c-238.667 0 -358 73 -358 219z" />
    <glyph glyph-name="oe" unicode="&#x153;" horiz-adv-x="1779" 
d="M222 487c0 32.667 23.168 78.5 69.501 137.5s85.166 89.833 116.499 92.5c36.667 16.667 75.667 33 117 49c56 23.333 92 35 108 35c69.333 0 131 -34.333 185 -103c47.333 -62 71 -129.333 71 -202c0 -106.667 -57.667 -215 -173 -325s-226.333 -165 -333 -165
c-108 0 -161.667 160.333 -161 481zM367.001 186c96.667 0 186 30 268 90c90.667 67.333 136 147.333 136 240c0 65.333 -31.667 98 -95 98c-38 0 -84.333 -14.333 -139 -43c-4 -8 -15.167 -18.5 -33.5 -31.5s-30.5 -22.833 -36.5 -29.5
c-24.667 -35.333 -58 -143.333 -100 -324zM916.001 291c0 138 74.333 260.668 223 368.001c136.667 100 276.667 150 420 150c31.333 0 56.333 -28 75 -84c15.333 -44 23 -85.667 23 -125c0 -90 -34.667 -162.333 -104 -217c-46.667 -35.333 -124.667 -71 -234 -107
c-122.667 -39.333 -201.667 -69.333 -237 -90c39.333 -28.667 107.333 -43 204 -43c23.333 0 56.833 7.83301 100.5 23.5s77.167 23.5 100.5 23.5c13.333 0 29.333 -14.667 48 -44s28 -51.333 28 -66c0 -38 -36.333 -67.333 -109 -88c-53.333 -15.333 -105 -23 -155 -23
c-108 0 -197 26 -267 78c-78 57.333 -116.667 138.666 -116 243.999zM1094 334.001l255.998 108.001c94 50.667 157.333 113.667 190 189h-51c-57.333 0 -131.666 -36.333 -222.999 -109c-83.333 -66.667 -140.666 -129.334 -171.999 -188.001z" />
    <glyph glyph-name="circumflex" unicode="&#x2c6;" horiz-adv-x="446" 
d="M117 1438c0 31.333 96.3311 164.332 288.998 398.999c10.667 -4 26.334 -8 47.001 -12c0 -9.33301 2 -23.666 6 -42.999s6 -33.666 6 -42.999c0 -20.667 -2.66699 -51.5 -8 -92.5s-8 -71.833 -8 -92.5s5 -50.334 15 -89.001s15 -65.667 15 -81
c0 -24.667 -7.33301 -36.667 -22 -36c-39.333 0 -62.666 92 -69.999 276l-2 59l-8 11c-8 -18 -29.333 -50.333 -64 -97l-161 -215c-8 0 -15.833 6.83301 -23.5 20.5s-11.5 25.5 -11.5 35.5z" />
    <glyph glyph-name="tilde" unicode="&#x2dc;" horiz-adv-x="792" 
d="M92 1554c0 26 32.667 57.668 98 95.001c61.333 35.333 107.333 53 138 53c5.33301 0 34.666 -14.667 87.999 -44s100.333 -44 141 -44c109.333 0 192 42.333 248 127c28.667 -38.667 43 -63.334 43 -74.001c0 -35.333 -34.333 -70.666 -103 -105.999
c-61.333 -32.667 -111.666 -49.334 -150.999 -50.001h-68c-12 0 -44.333 13.333 -97 40s-85 40 -97 40c-30 0 -70 -17.333 -120 -52s-71.667 -52 -65 -52c-10.667 0 -22.5 8.5 -35.5 25.5s-19.5 30.833 -19.5 41.5z" />
    <glyph glyph-name="uni2000" unicode="&#x2000;" horiz-adv-x="929" 
 />
    <glyph glyph-name="uni2001" unicode="&#x2001;" horiz-adv-x="1858" 
 />
    <glyph glyph-name="uni2002" unicode="&#x2002;" horiz-adv-x="929" 
 />
    <glyph glyph-name="uni2003" unicode="&#x2003;" horiz-adv-x="1858" 
 />
    <glyph glyph-name="uni2004" unicode="&#x2004;" horiz-adv-x="619" 
 />
    <glyph glyph-name="uni2005" unicode="&#x2005;" horiz-adv-x="464" 
 />
    <glyph glyph-name="uni2006" unicode="&#x2006;" horiz-adv-x="309" 
 />
    <glyph glyph-name="uni2007" unicode="&#x2007;" horiz-adv-x="309" 
 />
    <glyph glyph-name="uni2008" unicode="&#x2008;" horiz-adv-x="232" 
 />
    <glyph glyph-name="uni2009" unicode="&#x2009;" horiz-adv-x="371" 
 />
    <glyph glyph-name="uni200A" unicode="&#x200a;" horiz-adv-x="103" 
 />
    <glyph glyph-name="uni2010" unicode="&#x2010;" 
d="M111 461c0 10.667 0.666992 19.999 2 27.999c36.667 26 117 52 241 78c112 23.333 198.667 35 260 35c123.333 0 190.333 -42.333 201 -127c-35.333 -10.667 -85 -21 -149 -31c-108 -15.333 -215.333 -39.666 -322 -72.999c-82 -26 -134.667 -39 -158 -39
c-26 0 -45.667 15.667 -59 47c-10.667 24.667 -16 52 -16 82z" />
    <glyph glyph-name="uni2011" unicode="&#x2011;" 
d="M111 461c0 10.667 0.666992 19.999 2 27.999c36.667 26 117 52 241 78c112 23.333 198.667 35 260 35c123.333 0 190.333 -42.333 201 -127c-35.333 -10.667 -85 -21 -149 -31c-108 -15.333 -215.333 -39.666 -322 -72.999c-82 -26 -134.667 -39 -158 -39
c-26 0 -45.667 15.667 -59 47c-10.667 24.667 -16 52 -16 82z" />
    <glyph glyph-name="figuredash" unicode="&#x2012;" 
d="M111 461c0 10.667 0.666992 19.999 2 27.999c36.667 26 117 52 241 78c112 23.333 198.667 35 260 35c123.333 0 190.333 -42.333 201 -127c-35.333 -10.667 -85 -21 -149 -31c-108 -15.333 -215.333 -39.666 -322 -72.999c-82 -26 -134.667 -39 -158 -39
c-26 0 -45.667 15.667 -59 47c-10.667 24.667 -16 52 -16 82z" />
    <glyph glyph-name="endash" unicode="&#x2013;" horiz-adv-x="1231" 
d="M111 461c0 10.667 1.00098 19.999 3.00098 27.999c53.333 26 170 52 350 78c163.333 23.333 289.666 35 378.999 35c179.333 0 276.666 -42.333 291.999 -127c-51.333 -10.667 -123.666 -21 -216.999 -31c-156.667 -15.333 -312.667 -39.666 -468 -72.999
c-119.333 -26 -196 -39 -230 -39c-38 0 -66.667 15.667 -86 47c-15.333 24.667 -23 52 -23 82z" />
    <glyph glyph-name="emdash" unicode="&#x2014;" horiz-adv-x="1431" 
d="M90 461c0 10.667 0.668945 20 2.00195 28c34 23.333 201.333 48.666 502 75.999c264.667 24.667 449 37 553 37c123.333 0 189.666 -42.333 198.999 -127c-62.667 -22 -157.667 -41 -285 -57l-301 -33c-308.667 -35.333 -507.334 -53 -596.001 -53
c-24.667 0 -44 16.333 -58 49c-10.667 24.667 -16 51.334 -16 80.001z" />
    <glyph glyph-name="quoteleft" unicode="&#x2018;" horiz-adv-x="161" 
d="M10 1122c0 27.333 5.66504 65.001 16.998 113.001c13.333 60 29 90 47 90c32.667 0 65.334 -28.667 98.001 -86v-74c0 -177.333 -5.33301 -282.333 -16 -315l2 -6c-5.33301 -2.66699 -12.333 -5.33398 -21 -8.00098c-35.333 0 -66.666 39.333 -93.999 118
c-22 64 -33 120 -33 168z" />
    <glyph glyph-name="quoteright" unicode="&#x2019;" horiz-adv-x="161" 
d="M10 1122c0 27.333 5.66504 65.001 16.998 113.001c13.333 60 29 90 47 90c32.667 0 65.334 -28.667 98.001 -86v-74c0 -177.333 -5.33301 -282.333 -16 -315l2 -6c-5.33301 -2.66699 -12.333 -5.33398 -21 -8.00098c-35.333 0 -66.666 39.333 -93.999 118
c-22 64 -33 120 -33 168z" />
    <glyph glyph-name="quotesinglbase" unicode="&#x201a;" horiz-adv-x="362" 
d="M88 78c0 27.333 5.33105 64.667 15.998 112c13.333 60 29.333 90.333 48 91c32.667 0 65.334 -28.667 98.001 -86v-74c0 -177.333 -5.66699 -282.666 -17 -315.999l3 -6c-5.33301 -2.66699 -12.333 -5.33398 -21 -8.00098c-35.333 0 -66.666 39.667 -93.999 119
c-22 64 -33 120 -33 168z" />
    <glyph glyph-name="quotedblleft" unicode="&#x201c;" horiz-adv-x="372" 
d="M-10 1057c0 62.667 15.667 149.333 47 260c80.667 -31.333 121 -71 121 -119c0 -36.667 -14.333 -150 -43 -340h-41c-56 40.667 -84 107 -84 199zM233 1147c0 28.667 5.66699 66.999 17 114.999c13.333 60 29.666 90 48.999 90c32.667 0 66 -28.667 100 -86v-76
c0 -180 -6 -286 -18 -318l2 -8c-5.33301 -1.33301 -12.333 -3.33301 -21 -6c-35.333 0 -66.666 39.667 -93.999 119c-23.333 66.667 -35 123.334 -35 170.001z" />
    <glyph glyph-name="quotedblright" unicode="&#x201d;" horiz-adv-x="372" 
d="M-10 1057c0 62.667 15.667 149.333 47 260c80.667 -31.333 121 -71 121 -119c0 -36.667 -14.333 -150 -43 -340h-41c-56 40.667 -84 107 -84 199zM233 1147c0 28.667 5.66699 66.999 17 114.999c13.333 60 29.666 90 48.999 90c32.667 0 66 -28.667 100 -86v-76
c0 -180 -6 -286 -18 -318l2 -8c-5.33301 -1.33301 -12.333 -3.33301 -21 -6c-35.333 0 -66.666 39.667 -93.999 119c-23.333 66.667 -35 123.334 -35 170.001z" />
    <glyph glyph-name="quotedblbase" unicode="&#x201e;" horiz-adv-x="595" 
d="M76 -8c0 62.667 15.667 149.333 47 260c80.667 -31.333 121 -71 121 -119c0 -36.667 -15 -150 -45 -340h-41c-54.667 40.667 -82 107 -82 199zM319 81.999c0 28.667 5.66699 66.999 17 114.999c13.333 60 29.666 90 48.999 90c32.667 0 65.334 -28.667 98.001 -86v-76
c0 -180 -5.33301 -286 -16 -318l2 -8c-5.33301 -1.33301 -12 -3.33301 -20 -6c-35.333 0 -67 39.667 -95 119c-23.333 66.667 -35 123.334 -35 170.001z" />
    <glyph glyph-name="ellipsis" unicode="&#x2026;" horiz-adv-x="1110" 
d="M-88 117c0 23.333 7.33203 50.667 21.999 82c16.667 36.667 35.334 55 56.001 55c27.333 0 55 -18.5 83 -55.5s42 -69.833 42 -98.5c0 -26 -10 -47.167 -30 -63.5s-43.667 -24.5 -71 -24.5c-68 0 -102 35 -102 105zM366.999 133.001c0 13.333 2 32.668 6 58.001
s6 45 6 59c5.33301 0 14.5 2 27.5 6s22.833 6 29.5 6c24.667 0 52.667 -19.333 84 -58s47 -70.334 47 -95.001c0 -28.667 -11.5 -53.667 -34.5 -75s-48.833 -32 -77.5 -32c-58.667 0 -88 43.667 -88 131zM826.999 168.003c0 6.66699 2.49902 16.832 7.49902 30.499
s7.5 23.834 7.5 30.501c38 9.33301 55 14.333 51 15c18 0 43 -19.167 75 -57.5s48 -66.5 48 -84.5c0 -54.667 -24.667 -82 -74 -82c-39.333 0 -70.666 21.333 -93.999 64c-13.333 24.667 -20.333 52.667 -21 84z" />
    <glyph glyph-name="uni202F" unicode="&#x202f;" horiz-adv-x="371" 
 />
    <glyph glyph-name="uni205F" unicode="&#x205f;" horiz-adv-x="464" 
 />
    <glyph glyph-name="trademark" unicode="&#x2122;" horiz-adv-x="1513" 
d="M45 1231c0 23.333 27.3369 45.001 82.0039 65.001c44 16.667 81.667 25 113 25c13.333 0 33 -4.16699 59 -12.5s45.667 -12.5 59 -12.5s34.166 4.16699 62.499 12.5s49.166 12.5 62.499 12.5c15.333 0 57 -14.333 125 -43c62.667 -24.667 106.334 -43.667 131.001 -57
c52 -28.667 91 -80 117 -154c31.333 -88.667 59.333 -146.667 84 -174h21c9.33301 15.333 44.666 69.333 105.999 162c44 65.333 74.667 122 92 170h53c52 -50.667 83 -114.334 93 -191.001c12 -98 27 -165.667 45 -203c2.66699 -6.66699 32.667 -56.334 90 -149.001
c47.333 -78 71 -123.667 71 -137s-4.66699 -27.666 -14 -42.999s-20.333 -23 -33 -23c-60 0 -118.667 58.667 -176 176l-112 250l-78.5 -141c-35.667 -62.667 -71.167 -94 -106.5 -94c-28.667 0 -66 23.667 -112 71l-105 107l2 -17
c1.33301 -170.667 -25.334 -256 -80.001 -256c-53.333 0 -80 43.333 -80 130c0 23.333 3.5 58.166 10.5 104.499s10.5 80.833 10.5 103.5v217c-32.667 1.33301 -66.667 2.33301 -102 3h-113c0 -42 2.33301 -106.167 7 -192.5s7 -150.5 7 -192.5
c0 -68 -4.66699 -129.667 -14 -185h-68c-31.333 40.667 -53 149.334 -65 326.001c-10.667 152.667 -35.334 229 -74.001 229c-9.33301 0 -22.5 -0.666992 -39.5 -2s-30.5 -2 -40.5 -2c-60 0 -90 39 -90 117z" />
    <glyph glyph-name="uni25FC" unicode="&#x25fc;" 
d="M0 0v911h911v-911h-911z" />
    </font>
</defs>
</svg>
